<svg xmlns="http://www.w3.org/2000/svg" xmlns:xlink="http://www.w3.org/1999/xlink" width="1080" zoomAndPan="magnify" viewBox="0 0 810 809.999993" height="1080" preserveAspectRatio="xMidYMid meet" version="1.0"><defs><clipPath id="0267aa3154"><path d="M 98 216 L 714 216 L 714 772.707031 L 98 772.707031 Z M 98 216 " clip-rule="nonzero"/></clipPath></defs><path fill="#000000" d="M 776.003906 295.367188 L 651.332031 203.703125 L 651.332031 94.359375 C 651.332031 77.214844 637.410156 63.351562 620.285156 63.351562 L 569.828125 63.351562 C 552.675781 63.351562 538.78125 77.242188 538.78125 94.359375 L 538.78125 120.925781 L 443.722656 51.039062 C 423.097656 35.839844 389.332031 35.839844 368.707031 51.039062 L 36.425781 295.367188 C 15.800781 310.542969 11.355469 339.851562 26.539062 360.492188 L 35.722656 372.949219 C 50.878906 393.589844 80.203125 398.054688 100.804688 382.878906 L 368.707031 185.804688 C 389.332031 170.628906 423.097656 170.628906 443.722656 185.804688 L 711.601562 382.878906 C 732.226562 398.054688 761.523438 393.5625 776.683594 372.949219 L 785.890625 360.492188 C 801.050781 339.851562 796.601562 310.542969 776.003906 295.367188 Z M 776.003906 295.367188 " fill-opacity="1" fill-rule="nonzero"/><g clip-path="url(#0267aa3154)"><path fill="#000000" d="M 676.597656 400.023438 L 443.648438 227.9375 C 423.050781 212.710938 389.378906 212.710938 368.777344 227.9375 L 135.832031 400.023438 C 115.234375 415.25 98.375 437.515625 98.375 449.582031 L 98.375 699.082031 C 98.375 739.585938 133.113281 772.4375 175.988281 772.4375 L 318.25 772.4375 L 318.25 551.738281 C 318.25 534.691406 332.21875 520.753906 349.273438 520.753906 L 463.109375 520.753906 C 480.164062 520.753906 494.132812 534.691406 494.132812 551.738281 L 494.132812 772.4375 L 636.414062 772.4375 C 679.269531 772.4375 713.984375 739.585938 713.984375 699.082031 L 713.984375 449.582031 C 714.007812 437.515625 697.195312 415.25 676.597656 400.023438 Z M 676.597656 400.023438 " fill-opacity="1" fill-rule="nonzero"/></g></svg>