<svg xmlns="http://www.w3.org/2000/svg" xmlns:xlink="http://www.w3.org/1999/xlink" width="1080" zoomAndPan="magnify" viewBox="0 0 810 809.999993" height="1080" preserveAspectRatio="xMidYMid meet" version="1.0"><defs><clipPath id="0e756abd20"><path d="M 8 158.238281 L 802 158.238281 L 802 651.738281 L 8 651.738281 Z M 8 158.238281 " clip-rule="nonzero"/></clipPath></defs><g clip-path="url(#0e756abd20)"><path fill="#000000" d="M 83.714844 652.46875 L 538.46875 652.46875 C 539.699219 652.464844 540.929688 652.433594 542.15625 652.371094 C 543.386719 652.3125 544.609375 652.21875 545.835938 652.097656 C 547.058594 651.976562 548.277344 651.824219 549.496094 651.640625 C 550.710938 651.460938 551.921875 651.25 553.128906 651.007812 C 554.332031 650.765625 555.53125 650.496094 556.726562 650.195312 C 557.917969 649.898438 559.101562 649.566406 560.28125 649.210938 C 561.457031 648.851562 562.625 648.464844 563.78125 648.050781 C 564.9375 647.636719 566.085938 647.191406 567.222656 646.71875 C 568.355469 646.25 569.480469 645.75 570.589844 645.222656 C 571.703125 644.695312 572.800781 644.144531 573.886719 643.5625 C 574.96875 642.984375 576.039062 642.375 577.09375 641.742188 C 578.148438 641.109375 579.1875 640.453125 580.207031 639.769531 C 581.230469 639.085938 582.234375 638.378906 583.222656 637.644531 C 584.210938 636.910156 585.179688 636.152344 586.128906 635.375 C 587.082031 634.59375 588.011719 633.789062 588.921875 632.964844 C 589.835938 632.136719 590.722656 631.289062 591.59375 630.421875 C 592.464844 629.550781 593.3125 628.660156 594.136719 627.75 C 594.964844 626.835938 595.765625 625.90625 596.546875 624.953125 C 597.328125 624.003906 598.082031 623.035156 598.816406 622.046875 C 599.546875 621.058594 600.257812 620.054688 600.941406 619.03125 C 601.625 618.007812 602.28125 616.96875 602.914062 615.914062 C 603.546875 614.859375 604.152344 613.789062 604.734375 612.707031 C 605.3125 611.621094 605.867188 610.523438 606.394531 609.410156 C 606.921875 608.300781 607.417969 607.175781 607.890625 606.039062 C 608.363281 604.902344 608.804688 603.757812 609.21875 602.597656 C 609.632812 601.441406 610.019531 600.273438 610.378906 599.097656 C 610.738281 597.917969 611.066406 596.734375 611.367188 595.542969 C 611.664062 594.347656 611.933594 593.148438 612.175781 591.941406 C 612.417969 590.738281 612.628906 589.523438 612.808594 588.308594 C 612.992188 587.09375 613.144531 585.871094 613.265625 584.648438 C 613.386719 583.421875 613.480469 582.195312 613.539062 580.96875 C 613.601562 579.738281 613.632812 578.511719 613.636719 577.28125 L 613.636719 525.867188 L 728.757812 588.207031 C 729.6875 588.710938 730.632812 589.183594 731.59375 589.625 C 732.554688 590.066406 733.527344 590.480469 734.515625 590.859375 C 735.5 591.238281 736.5 591.585938 737.507812 591.898438 C 738.519531 592.214844 739.535156 592.496094 740.5625 592.746094 C 741.589844 592.996094 742.625 593.210938 743.667969 593.390625 C 744.707031 593.574219 745.753906 593.722656 746.804688 593.835938 C 747.855469 593.953125 748.910156 594.03125 749.964844 594.078125 C 751.023438 594.125 752.078125 594.136719 753.136719 594.117188 C 754.191406 594.09375 755.246094 594.039062 756.300781 593.949219 C 757.355469 593.859375 758.402344 593.734375 759.449219 593.574219 C 760.492188 593.417969 761.53125 593.226562 762.566406 593 C 763.597656 592.777344 764.621094 592.519531 765.640625 592.226562 C 766.65625 591.9375 767.660156 591.613281 768.65625 591.257812 C 769.652344 590.898438 770.632812 590.511719 771.605469 590.09375 C 772.574219 589.671875 773.53125 589.222656 774.472656 588.742188 C 775.414062 588.257812 776.339844 587.746094 777.246094 587.207031 C 778.152344 586.664062 779.042969 586.09375 779.914062 585.496094 C 780.785156 584.898438 781.636719 584.269531 782.46875 583.617188 C 783.300781 582.964844 784.109375 582.285156 784.894531 581.578125 C 785.683594 580.871094 786.445312 580.140625 787.183594 579.386719 C 787.925781 578.628906 788.640625 577.851562 789.328125 577.050781 C 790.019531 576.246094 790.679688 575.425781 791.316406 574.582031 C 791.953125 573.734375 792.5625 572.871094 793.140625 571.988281 C 793.722656 571.105469 794.273438 570.203125 794.796875 569.285156 C 795.316406 568.363281 795.808594 567.429688 796.273438 566.476562 C 796.734375 565.527344 797.164062 564.5625 797.5625 563.582031 C 797.964844 562.601562 798.332031 561.613281 798.667969 560.609375 C 799 559.605469 799.304688 558.59375 799.574219 557.570312 C 799.84375 556.550781 800.082031 555.519531 800.285156 554.480469 C 800.488281 553.445312 800.65625 552.402344 800.792969 551.351562 C 800.929688 550.304688 801.03125 549.25 801.101562 548.195312 C 801.167969 547.140625 801.203125 546.085938 801.203125 545.027344 L 801.203125 266.320312 C 801.203125 265.261719 801.167969 264.207031 801.101562 263.152344 C 801.03125 262.097656 800.929688 261.042969 800.792969 259.996094 C 800.65625 258.945312 800.488281 257.902344 800.285156 256.867188 C 800.082031 255.828125 799.84375 254.796875 799.574219 253.777344 C 799.304688 252.753906 799 251.742188 798.667969 250.738281 C 798.332031 249.734375 797.964844 248.746094 797.5625 247.765625 C 797.164062 246.785156 796.734375 245.820312 796.273438 244.871094 C 795.808594 243.917969 795.320312 242.984375 794.796875 242.0625 C 794.273438 241.144531 793.722656 240.242188 793.140625 239.359375 C 792.5625 238.476562 791.953125 237.613281 791.316406 236.765625 C 790.679688 235.921875 790.019531 235.097656 789.328125 234.296875 C 788.640625 233.496094 787.925781 232.71875 787.183594 231.960938 C 786.445312 231.207031 785.683594 230.476562 784.894531 229.769531 C 784.109375 229.0625 783.300781 228.382812 782.46875 227.730469 C 781.636719 227.078125 780.785156 226.449219 779.914062 225.851562 C 779.042969 225.253906 778.152344 224.683594 777.246094 224.140625 C 776.339844 223.601562 775.414062 223.089844 774.472656 222.605469 C 773.53125 222.125 772.574219 221.675781 771.605469 221.253906 C 770.632812 220.835938 769.652344 220.445312 768.65625 220.089844 C 767.660156 219.734375 766.65625 219.410156 765.640625 219.121094 C 764.625 218.828125 763.597656 218.570312 762.566406 218.34375 C 761.53125 218.121094 760.492188 217.929688 759.449219 217.769531 C 758.402344 217.613281 757.355469 217.488281 756.300781 217.398438 C 755.246094 217.308594 754.191406 217.253906 753.136719 217.230469 C 752.078125 217.210938 751.023438 217.222656 749.964844 217.269531 C 748.910156 217.316406 747.855469 217.394531 746.804688 217.511719 C 745.753906 217.625 744.707031 217.773438 743.667969 217.953125 C 742.625 218.136719 741.589844 218.351562 740.5625 218.601562 C 739.535156 218.851562 738.519531 219.132812 737.507812 219.449219 C 736.5 219.761719 735.5 220.109375 734.515625 220.488281 C 733.527344 220.867188 732.554688 221.277344 731.59375 221.722656 C 730.632812 222.164062 729.6875 222.636719 728.757812 223.140625 L 613.636719 285.480469 L 613.636719 234.066406 C 613.632812 232.835938 613.601562 231.605469 613.539062 230.378906 C 613.480469 229.148438 613.386719 227.921875 613.265625 226.699219 C 613.144531 225.476562 612.992188 224.253906 612.808594 223.039062 C 612.628906 221.820312 612.417969 220.609375 612.175781 219.402344 C 611.933594 218.199219 611.664062 217 611.367188 215.804688 C 611.066406 214.613281 610.738281 213.425781 610.378906 212.25 C 610.019531 211.074219 609.632812 209.90625 609.21875 208.75 C 608.804688 207.589844 608.359375 206.445312 607.890625 205.308594 C 607.417969 204.171875 606.921875 203.046875 606.394531 201.9375 C 605.867188 200.824219 605.3125 199.726562 604.734375 198.640625 C 604.152344 197.554688 603.546875 196.488281 602.914062 195.433594 C 602.28125 194.378906 601.625 193.339844 600.941406 192.316406 C 600.257812 191.292969 599.546875 190.289062 598.816406 189.300781 C 598.082031 188.3125 597.328125 187.34375 596.546875 186.390625 C 595.765625 185.441406 594.964844 184.511719 594.136719 183.597656 C 593.3125 182.6875 592.464844 181.796875 591.59375 180.925781 C 590.722656 180.058594 589.835938 179.210938 588.921875 178.382812 C 588.011719 177.558594 587.082031 176.753906 586.128906 175.972656 C 585.179688 175.191406 584.210938 174.4375 583.222656 173.703125 C 582.234375 172.96875 581.230469 172.261719 580.207031 171.578125 C 579.1875 170.894531 578.148438 170.234375 577.09375 169.601562 C 576.039062 168.96875 574.96875 168.363281 573.886719 167.785156 C 572.800781 167.203125 571.703125 166.648438 570.589844 166.125 C 569.480469 165.597656 568.355469 165.097656 567.222656 164.625 C 566.085938 164.15625 564.9375 163.710938 563.78125 163.296875 C 562.621094 162.882812 561.457031 162.496094 560.28125 162.136719 C 559.101562 161.777344 557.917969 161.449219 556.726562 161.148438 C 555.53125 160.851562 554.332031 160.578125 553.128906 160.339844 C 551.921875 160.097656 550.710938 159.886719 549.496094 159.703125 C 548.277344 159.523438 547.058594 159.371094 545.835938 159.25 C 544.609375 159.128906 543.386719 159.035156 542.15625 158.972656 C 540.929688 158.914062 539.699219 158.878906 538.46875 158.878906 L 83.714844 158.878906 C 82.484375 158.878906 81.253906 158.914062 80.027344 158.972656 C 78.796875 159.035156 77.574219 159.128906 76.347656 159.25 C 75.125 159.371094 73.90625 159.523438 72.6875 159.703125 C 71.472656 159.886719 70.261719 160.097656 69.054688 160.339844 C 67.847656 160.578125 66.648438 160.851562 65.457031 161.148438 C 64.265625 161.449219 63.082031 161.777344 61.902344 162.136719 C 60.726562 162.496094 59.558594 162.882812 58.402344 163.296875 C 57.246094 163.710938 56.097656 164.15625 54.960938 164.625 C 53.828125 165.097656 52.703125 165.597656 51.589844 166.125 C 50.480469 166.648438 49.382812 167.203125 48.296875 167.785156 C 47.214844 168.363281 46.144531 168.96875 45.089844 169.601562 C 44.035156 170.234375 42.996094 170.894531 41.976562 171.578125 C 40.953125 172.261719 39.949219 172.96875 38.960938 173.703125 C 37.972656 174.4375 37.003906 175.191406 36.054688 175.972656 C 35.101562 176.753906 34.171875 177.558594 33.261719 178.382812 C 32.347656 179.210938 31.457031 180.058594 30.589844 180.925781 C 29.71875 181.796875 28.871094 182.6875 28.046875 183.597656 C 27.21875 184.511719 26.417969 185.441406 25.636719 186.390625 C 24.855469 187.34375 24.101562 188.3125 23.367188 189.300781 C 22.632812 190.289062 21.925781 191.292969 21.242188 192.316406 C 20.558594 193.339844 19.902344 194.378906 19.269531 195.433594 C 18.636719 196.488281 18.03125 197.554688 17.449219 198.640625 C 16.871094 199.726562 16.316406 200.824219 15.789062 201.9375 C 15.261719 203.046875 14.765625 204.171875 14.292969 205.308594 C 13.820312 206.445312 13.378906 207.589844 12.964844 208.75 C 12.546875 209.90625 12.164062 211.074219 11.804688 212.25 C 11.445312 213.425781 11.117188 214.613281 10.816406 215.804688 C 10.519531 217 10.246094 218.199219 10.007812 219.40625 C 9.765625 220.609375 9.554688 221.820312 9.371094 223.039062 C 9.191406 224.253906 9.039062 225.476562 8.917969 226.699219 C 8.796875 227.921875 8.703125 229.148438 8.640625 230.378906 C 8.582031 231.605469 8.550781 232.835938 8.546875 234.066406 L 8.546875 577.28125 C 8.550781 578.511719 8.582031 579.738281 8.640625 580.96875 C 8.703125 582.195312 8.796875 583.421875 8.917969 584.648438 C 9.039062 585.871094 9.191406 587.09375 9.371094 588.308594 C 9.554688 589.523438 9.765625 590.738281 10.007812 591.941406 C 10.246094 593.148438 10.519531 594.347656 10.816406 595.542969 C 11.117188 596.734375 11.445312 597.917969 11.804688 599.097656 C 12.164062 600.273438 12.546875 601.441406 12.964844 602.597656 C 13.378906 603.757812 13.820312 604.902344 14.292969 606.039062 C 14.765625 607.175781 15.261719 608.300781 15.789062 609.410156 C 16.316406 610.523438 16.871094 611.621094 17.449219 612.707031 C 18.03125 613.789062 18.636719 614.859375 19.269531 615.914062 C 19.902344 616.96875 20.558594 618.007812 21.242188 619.03125 C 21.925781 620.054688 22.632812 621.058594 23.367188 622.046875 C 24.101562 623.035156 24.855469 624.003906 25.636719 624.953125 C 26.417969 625.90625 27.21875 626.835938 28.046875 627.75 C 28.871094 628.660156 29.71875 629.550781 30.589844 630.421875 C 31.457031 631.289062 32.347656 632.136719 33.261719 632.964844 C 34.171875 633.789062 35.101562 634.59375 36.054688 635.375 C 37.003906 636.152344 37.972656 636.910156 38.960938 637.644531 C 39.949219 638.378906 40.953125 639.085938 41.976562 639.769531 C 42.996094 640.453125 44.035156 641.109375 45.089844 641.742188 C 46.144531 642.375 47.214844 642.984375 48.296875 643.5625 C 49.382812 644.144531 50.480469 644.695312 51.589844 645.222656 C 52.703125 645.75 53.828125 646.25 54.960938 646.722656 C 56.097656 647.191406 57.246094 647.636719 58.402344 648.050781 C 59.558594 648.464844 60.726562 648.851562 61.902344 649.210938 C 63.082031 649.566406 64.265625 649.898438 65.457031 650.195312 C 66.648438 650.496094 67.847656 650.765625 69.054688 651.007812 C 70.261719 651.25 71.472656 651.460938 72.6875 651.640625 C 73.90625 651.824219 75.125 651.976562 76.347656 652.097656 C 77.574219 652.21875 78.796875 652.3125 80.027344 652.371094 C 81.253906 652.433594 82.484375 652.464844 83.714844 652.46875 Z M 748.273438 259.210938 C 748.578125 259.046875 748.894531 258.898438 749.21875 258.773438 C 749.546875 258.648438 749.878906 258.546875 750.214844 258.464844 C 750.554688 258.382812 750.898438 258.320312 751.242188 258.285156 C 751.589844 258.246094 751.9375 258.230469 752.285156 258.238281 C 752.632812 258.246094 752.980469 258.273438 753.324219 258.324219 C 753.671875 258.378906 754.011719 258.453125 754.34375 258.546875 C 754.679688 258.644531 755.007812 258.761719 755.328125 258.898438 C 755.648438 259.039062 755.957031 259.195312 756.257812 259.375 C 756.554688 259.554688 756.84375 259.75 757.117188 259.964844 C 757.390625 260.179688 757.648438 260.414062 757.894531 260.660156 C 758.136719 260.910156 758.363281 261.175781 758.574219 261.453125 C 758.785156 261.730469 758.976562 262.023438 759.148438 262.324219 C 759.320312 262.628906 759.472656 262.941406 759.601562 263.265625 C 759.734375 263.585938 759.84375 263.917969 759.933594 264.253906 C 760.023438 264.589844 760.089844 264.933594 760.136719 265.277344 C 760.179688 265.625 760.203125 265.972656 760.203125 266.320312 L 760.203125 545.027344 C 760.203125 545.375 760.179688 545.722656 760.136719 546.070312 C 760.089844 546.414062 760.023438 546.753906 759.933594 547.09375 C 759.84375 547.429688 759.734375 547.761719 759.601562 548.082031 C 759.472656 548.40625 759.320312 548.71875 759.148438 549.019531 C 758.976562 549.324219 758.785156 549.617188 758.574219 549.894531 C 758.363281 550.171875 758.136719 550.4375 757.894531 550.683594 C 757.648438 550.933594 757.390625 551.167969 757.117188 551.382812 C 756.84375 551.597656 756.554688 551.792969 756.257812 551.972656 C 755.957031 552.152344 755.648438 552.308594 755.328125 552.449219 C 755.007812 552.585938 754.679688 552.703125 754.34375 552.800781 C 754.011719 552.894531 753.671875 552.96875 753.324219 553.019531 C 752.980469 553.074219 752.632812 553.101562 752.285156 553.109375 C 751.9375 553.117188 751.589844 553.101562 751.242188 553.0625 C 750.898438 553.027344 750.554688 552.964844 750.214844 552.882812 C 749.878906 552.800781 749.546875 552.699219 749.21875 552.574219 C 748.894531 552.445312 748.578125 552.300781 748.273438 552.136719 L 613.636719 479.230469 L 613.636719 332.117188 Z M 49.546875 234.066406 C 49.546875 232.949219 49.605469 231.832031 49.714844 230.71875 C 49.824219 229.605469 49.992188 228.5 50.210938 227.402344 C 50.429688 226.304688 50.699219 225.21875 51.027344 224.148438 C 51.351562 223.078125 51.730469 222.027344 52.15625 220.992188 C 52.585938 219.960938 53.0625 218.949219 53.59375 217.964844 C 54.121094 216.976562 54.695312 216.019531 55.316406 215.089844 C 55.9375 214.15625 56.605469 213.261719 57.3125 212.394531 C 58.023438 211.53125 58.773438 210.703125 59.566406 209.910156 C 60.355469 209.121094 61.183594 208.371094 62.046875 207.660156 C 62.914062 206.949219 63.808594 206.285156 64.738281 205.660156 C 65.671875 205.039062 66.628906 204.464844 67.613281 203.9375 C 68.601562 203.410156 69.609375 202.929688 70.644531 202.5 C 71.675781 202.074219 72.730469 201.695312 73.800781 201.371094 C 74.871094 201.042969 75.953125 200.773438 77.050781 200.554688 C 78.148438 200.335938 79.253906 200.167969 80.367188 200.058594 C 81.480469 199.949219 82.59375 199.890625 83.714844 199.890625 L 538.46875 199.890625 C 539.589844 199.890625 540.703125 199.949219 541.816406 200.058594 C 542.929688 200.167969 544.035156 200.335938 545.132812 200.554688 C 546.230469 200.773438 547.3125 201.042969 548.382812 201.371094 C 549.453125 201.695312 550.507812 202.074219 551.539062 202.5 C 552.574219 202.929688 553.582031 203.410156 554.570312 203.9375 C 555.554688 204.464844 556.511719 205.039062 557.441406 205.660156 C 558.375 206.285156 559.269531 206.949219 560.136719 207.660156 C 561 208.371094 561.828125 209.121094 562.617188 209.910156 C 563.410156 210.703125 564.160156 211.53125 564.871094 212.394531 C 565.578125 213.261719 566.246094 214.15625 566.867188 215.089844 C 567.488281 216.019531 568.0625 216.976562 568.589844 217.964844 C 569.117188 218.949219 569.597656 219.960938 570.027344 220.992188 C 570.453125 222.027344 570.832031 223.078125 571.15625 224.148438 C 571.480469 225.21875 571.753906 226.304688 571.972656 227.402344 C 572.191406 228.5 572.359375 229.605469 572.46875 230.71875 C 572.578125 231.832031 572.636719 232.949219 572.636719 234.066406 L 572.636719 577.28125 C 572.636719 578.398438 572.578125 579.515625 572.46875 580.628906 C 572.359375 581.742188 572.191406 582.847656 571.972656 583.945312 C 571.753906 585.042969 571.480469 586.125 571.15625 587.199219 C 570.832031 588.269531 570.453125 589.320312 570.027344 590.355469 C 569.597656 591.386719 569.117188 592.398438 568.589844 593.382812 C 568.0625 594.371094 567.488281 595.328125 566.867188 596.257812 C 566.246094 597.191406 565.578125 598.085938 564.871094 598.953125 C 564.160156 599.816406 563.410156 600.644531 562.617188 601.4375 C 561.828125 602.226562 561 602.976562 560.136719 603.6875 C 559.269531 604.398438 558.375 605.0625 557.441406 605.6875 C 556.511719 606.308594 555.554688 606.882812 554.570312 607.410156 C 553.582031 607.9375 552.574219 608.417969 551.539062 608.84375 C 550.507812 609.273438 549.453125 609.652344 548.382812 609.976562 C 547.3125 610.300781 546.230469 610.574219 545.132812 610.792969 C 544.035156 611.011719 542.929688 611.179688 541.816406 611.289062 C 540.703125 611.398438 539.589844 611.457031 538.46875 611.457031 L 83.714844 611.457031 C 82.59375 611.457031 81.480469 611.398438 80.367188 611.289062 C 79.253906 611.179688 78.148438 611.011719 77.050781 610.792969 C 75.953125 610.574219 74.871094 610.300781 73.800781 609.976562 C 72.730469 609.652344 71.675781 609.273438 70.644531 608.84375 C 69.609375 608.417969 68.601562 607.9375 67.613281 607.410156 C 66.628906 606.882812 65.671875 606.308594 64.738281 605.6875 C 63.808594 605.0625 62.914062 604.398438 62.046875 603.6875 C 61.183594 602.976562 60.355469 602.226562 59.566406 601.4375 C 58.773438 600.644531 58.023438 599.816406 57.3125 598.953125 C 56.605469 598.085938 55.9375 597.191406 55.316406 596.257812 C 54.695312 595.328125 54.121094 594.371094 53.59375 593.382812 C 53.0625 592.398438 52.585938 591.386719 52.15625 590.355469 C 51.730469 589.320312 51.351562 588.269531 51.027344 587.199219 C 50.699219 586.125 50.429688 585.042969 50.210938 583.945312 C 49.992188 582.847656 49.824219 581.742188 49.714844 580.628906 C 49.605469 579.515625 49.546875 578.398438 49.546875 577.28125 Z M 49.546875 234.066406 " fill-opacity="1" fill-rule="nonzero"/></g></svg>