<svg xmlns="http://www.w3.org/2000/svg" xmlns:xlink="http://www.w3.org/1999/xlink" width="1080" zoomAndPan="magnify" viewBox="0 0 810 809.999993" height="1080" preserveAspectRatio="xMidYMid meet" version="1.0"><defs><clipPath id="4d9ce032a2"><path d="M 8 158.238281 L 802 158.238281 L 802 651.738281 L 8 651.738281 Z M 8 158.238281 " clip-rule="nonzero"/></clipPath></defs><g clip-path="url(#4d9ce032a2)"><path fill="#d9d9d9" d="M 83.738281 652.480469 L 538.632812 652.480469 C 539.863281 652.476562 541.09375 652.445312 542.324219 652.382812 C 543.550781 652.324219 544.777344 652.230469 546 652.109375 C 547.226562 651.988281 548.445312 651.835938 549.664062 651.652344 C 550.878906 651.472656 552.089844 651.261719 553.296875 651.019531 C 554.503906 650.777344 555.703125 650.507812 556.894531 650.207031 C 558.089844 649.910156 559.273438 649.578125 560.449219 649.222656 C 561.628906 648.863281 562.792969 648.476562 563.953125 648.0625 C 565.109375 647.648438 566.257812 647.203125 567.394531 646.730469 C 568.53125 646.261719 569.652344 645.761719 570.765625 645.234375 C 571.878906 644.707031 572.976562 644.15625 574.0625 643.574219 C 575.144531 642.996094 576.214844 642.386719 577.269531 641.753906 C 578.324219 641.121094 579.363281 640.464844 580.386719 639.78125 C 581.410156 639.097656 582.414062 638.386719 583.402344 637.65625 C 584.390625 636.921875 585.359375 636.164062 586.308594 635.386719 C 587.261719 634.605469 588.191406 633.800781 589.101562 632.976562 C 590.015625 632.148438 590.90625 631.300781 591.773438 630.429688 C 592.644531 629.5625 593.492188 628.671875 594.320312 627.757812 C 595.144531 626.847656 595.949219 625.917969 596.730469 624.964844 C 597.507812 624.015625 598.265625 623.046875 599 622.058594 C 599.730469 621.070312 600.441406 620.066406 601.125 619.042969 C 601.808594 618.019531 602.464844 616.980469 603.097656 615.925781 C 603.730469 614.871094 604.339844 613.800781 604.917969 612.714844 C 605.5 611.632812 606.050781 610.535156 606.578125 609.421875 C 607.105469 608.308594 607.605469 607.1875 608.074219 606.050781 C 608.546875 604.914062 608.992188 603.765625 609.40625 602.609375 C 609.820312 601.449219 610.207031 600.285156 610.566406 599.105469 C 610.921875 597.929688 611.253906 596.746094 611.550781 595.550781 C 611.851562 594.359375 612.121094 593.160156 612.363281 591.953125 C 612.605469 590.746094 612.816406 589.535156 612.996094 588.320312 C 613.179688 587.101562 613.332031 585.882812 613.453125 584.65625 C 613.574219 583.433594 613.667969 582.207031 613.726562 580.980469 C 613.789062 579.75 613.820312 578.519531 613.824219 577.289062 L 613.824219 525.875 L 728.984375 588.21875 C 729.914062 588.722656 730.859375 589.195312 731.820312 589.636719 C 732.777344 590.078125 733.753906 590.488281 734.738281 590.867188 C 735.726562 591.246094 736.726562 591.59375 737.734375 591.910156 C 738.742188 592.226562 739.761719 592.507812 740.789062 592.753906 C 741.816406 593.003906 742.851562 593.21875 743.894531 593.402344 C 744.9375 593.585938 745.984375 593.734375 747.035156 593.847656 C 748.085938 593.960938 749.140625 594.042969 750.195312 594.089844 C 751.25 594.136719 752.308594 594.148438 753.367188 594.125 C 754.421875 594.105469 755.476562 594.046875 756.53125 593.957031 C 757.585938 593.867188 758.636719 593.746094 759.679688 593.585938 C 760.726562 593.429688 761.765625 593.238281 762.800781 593.011719 C 763.832031 592.785156 764.855469 592.527344 765.875 592.238281 C 766.890625 591.945312 767.898438 591.621094 768.890625 591.265625 C 769.886719 590.910156 770.871094 590.523438 771.839844 590.101562 C 772.8125 589.683594 773.769531 589.230469 774.710938 588.75 C 775.652344 588.269531 776.574219 587.757812 777.484375 587.214844 C 778.394531 586.675781 779.28125 586.105469 780.152344 585.507812 C 781.027344 584.90625 781.878906 584.28125 782.707031 583.628906 C 783.539062 582.972656 784.347656 582.292969 785.136719 581.585938 C 785.921875 580.882812 786.6875 580.152344 787.425781 579.394531 C 788.167969 578.640625 788.882812 577.859375 789.570312 577.058594 C 790.261719 576.257812 790.921875 575.433594 791.558594 574.589844 C 792.195312 573.746094 792.804688 572.882812 793.386719 571.996094 C 793.964844 571.113281 794.515625 570.210938 795.039062 569.292969 C 795.5625 568.375 796.054688 567.4375 796.515625 566.488281 C 796.976562 565.535156 797.410156 564.570312 797.808594 563.589844 C 798.207031 562.613281 798.574219 561.621094 798.910156 560.617188 C 799.246094 559.617188 799.550781 558.601562 799.820312 557.582031 C 800.089844 556.558594 800.328125 555.527344 800.53125 554.492188 C 800.734375 553.453125 800.902344 552.410156 801.039062 551.363281 C 801.175781 550.3125 801.277344 549.261719 801.347656 548.207031 C 801.414062 547.148438 801.449219 546.09375 801.449219 545.035156 L 801.449219 266.324219 C 801.449219 265.265625 801.414062 264.207031 801.347656 263.152344 C 801.277344 262.097656 801.175781 261.046875 801.039062 259.996094 C 800.902344 258.949219 800.734375 257.90625 800.53125 256.867188 C 800.328125 255.832031 800.089844 254.800781 799.820312 253.777344 C 799.550781 252.753906 799.246094 251.742188 798.910156 250.742188 C 798.574219 249.738281 798.207031 248.746094 797.808594 247.765625 C 797.410156 246.789062 796.976562 245.824219 796.515625 244.871094 C 796.054688 243.921875 795.5625 242.984375 795.039062 242.066406 C 794.515625 241.148438 793.964844 240.246094 793.386719 239.359375 C 792.804688 238.476562 792.195312 237.613281 791.558594 236.769531 C 790.921875 235.925781 790.261719 235.101562 789.570312 234.300781 C 788.882812 233.496094 788.167969 232.71875 787.425781 231.964844 C 786.6875 231.207031 785.921875 230.476562 785.136719 229.773438 C 784.347656 229.066406 783.539062 228.386719 782.707031 227.730469 C 781.878906 227.078125 781.027344 226.453125 780.152344 225.851562 C 779.28125 225.253906 778.394531 224.683594 777.484375 224.140625 C 776.574219 223.601562 775.652344 223.089844 774.710938 222.609375 C 773.769531 222.125 772.8125 221.675781 771.839844 221.257812 C 770.871094 220.835938 769.886719 220.449219 768.890625 220.09375 C 767.898438 219.734375 766.890625 219.414062 765.875 219.121094 C 764.855469 218.828125 763.832031 218.570312 762.800781 218.347656 C 761.765625 218.121094 760.726562 217.929688 759.679688 217.773438 C 758.636719 217.613281 757.585938 217.492188 756.53125 217.402344 C 755.476562 217.308594 754.421875 217.253906 753.367188 217.234375 C 752.308594 217.210938 751.25 217.222656 750.195312 217.269531 C 749.140625 217.316406 748.085938 217.398438 747.035156 217.511719 C 745.984375 217.625 744.9375 217.773438 743.894531 217.957031 C 742.851562 218.136719 741.816406 218.355469 740.789062 218.601562 C 739.761719 218.851562 738.746094 219.132812 737.734375 219.449219 C 736.726562 219.765625 735.726562 220.109375 734.738281 220.492188 C 733.753906 220.871094 732.777344 221.28125 731.820312 221.722656 C 730.859375 222.164062 729.914062 222.636719 728.984375 223.140625 L 613.824219 285.484375 L 613.824219 234.066406 C 613.820312 232.839844 613.789062 231.609375 613.726562 230.378906 C 613.667969 229.152344 613.574219 227.925781 613.453125 226.699219 C 613.332031 225.476562 613.179688 224.257812 612.996094 223.039062 C 612.816406 221.824219 612.605469 220.613281 612.363281 219.40625 C 612.121094 218.199219 611.851562 217 611.550781 215.808594 C 611.253906 214.613281 610.921875 213.429688 610.566406 212.253906 C 610.207031 211.074219 609.820312 209.90625 609.40625 208.75 C 608.992188 207.589844 608.546875 206.445312 608.074219 205.308594 C 607.605469 204.171875 607.105469 203.046875 606.578125 201.9375 C 606.050781 200.824219 605.5 199.726562 604.917969 198.640625 C 604.339844 197.558594 603.730469 196.488281 603.097656 195.433594 C 602.464844 194.378906 601.808594 193.339844 601.125 192.316406 C 600.441406 191.292969 599.730469 190.289062 599 189.300781 C 598.265625 188.3125 597.507812 187.34375 596.730469 186.394531 C 595.949219 185.441406 595.144531 184.511719 594.320312 183.601562 C 593.492188 182.6875 592.644531 181.796875 591.773438 180.929688 C 590.90625 180.058594 590.015625 179.210938 589.101562 178.382812 C 588.191406 177.558594 587.261719 176.753906 586.308594 175.972656 C 585.359375 175.191406 584.390625 174.4375 583.402344 173.703125 C 582.414062 172.96875 581.410156 172.261719 580.386719 171.578125 C 579.363281 170.894531 578.324219 170.238281 577.269531 169.605469 C 576.214844 168.972656 575.144531 168.363281 574.058594 167.785156 C 572.976562 167.203125 571.878906 166.648438 570.765625 166.125 C 569.652344 165.597656 568.53125 165.097656 567.394531 164.625 C 566.257812 164.15625 565.109375 163.710938 563.953125 163.296875 C 562.792969 162.882812 561.628906 162.496094 560.449219 162.136719 C 559.273438 161.777344 558.089844 161.449219 556.894531 161.148438 C 555.703125 160.851562 554.503906 160.578125 553.296875 160.339844 C 552.089844 160.097656 550.878906 159.886719 549.664062 159.703125 C 548.445312 159.523438 547.226562 159.371094 546 159.25 C 544.777344 159.128906 543.550781 159.035156 542.324219 158.972656 C 541.09375 158.914062 539.863281 158.882812 538.632812 158.878906 L 83.738281 158.878906 C 82.507812 158.882812 81.277344 158.914062 80.050781 158.972656 C 78.820312 159.035156 77.59375 159.128906 76.371094 159.25 C 75.144531 159.371094 73.925781 159.523438 72.707031 159.703125 C 71.492188 159.886719 70.28125 160.097656 69.074219 160.339844 C 67.867188 160.578125 66.667969 160.851562 65.476562 161.148438 C 64.28125 161.449219 63.097656 161.777344 61.921875 162.136719 C 60.742188 162.496094 59.578125 162.882812 58.417969 163.296875 C 57.261719 163.710938 56.113281 164.15625 54.976562 164.625 C 53.839844 165.097656 52.71875 165.597656 51.605469 166.125 C 50.492188 166.648438 49.394531 167.203125 48.3125 167.785156 C 47.226562 168.363281 46.15625 168.972656 45.101562 169.605469 C 44.046875 170.238281 43.007812 170.894531 41.984375 171.578125 C 40.960938 172.261719 39.957031 172.96875 38.96875 173.703125 C 37.980469 174.4375 37.011719 175.191406 36.0625 175.972656 C 35.109375 176.753906 34.179688 177.558594 33.269531 178.382812 C 32.355469 179.210938 31.464844 180.058594 30.597656 180.929688 C 29.726562 181.796875 28.878906 182.6875 28.050781 183.597656 C 27.226562 184.511719 26.421875 185.441406 25.644531 186.394531 C 24.863281 187.34375 24.105469 188.3125 23.371094 189.300781 C 22.640625 190.289062 21.929688 191.292969 21.246094 192.316406 C 20.5625 193.339844 19.90625 194.378906 19.273438 195.433594 C 18.640625 196.488281 18.03125 197.558594 17.453125 198.640625 C 16.871094 199.726562 16.320312 200.824219 15.792969 201.9375 C 15.265625 203.046875 14.765625 204.171875 14.296875 205.308594 C 13.824219 206.445312 13.378906 207.589844 12.964844 208.75 C 12.550781 209.90625 12.164062 211.074219 11.804688 212.253906 C 11.449219 213.429688 11.117188 214.613281 10.820312 215.808594 C 10.519531 217 10.25 218.199219 10.007812 219.40625 C 9.765625 220.613281 9.554688 221.824219 9.375 223.039062 C 9.191406 224.257812 9.039062 225.476562 8.917969 226.699219 C 8.796875 227.925781 8.703125 229.152344 8.644531 230.378906 C 8.582031 231.609375 8.550781 232.839844 8.546875 234.066406 L 8.546875 577.289062 C 8.550781 578.519531 8.582031 579.75 8.644531 580.980469 C 8.703125 582.207031 8.796875 583.433594 8.917969 584.65625 C 9.039062 585.882812 9.191406 587.101562 9.375 588.320312 C 9.554688 589.535156 9.765625 590.746094 10.007812 591.953125 C 10.25 593.160156 10.519531 594.359375 10.820312 595.550781 C 11.117188 596.746094 11.449219 597.929688 11.804688 599.105469 C 12.164062 600.285156 12.550781 601.449219 12.964844 602.609375 C 13.378906 603.765625 13.824219 604.914062 14.296875 606.050781 C 14.765625 607.1875 15.265625 608.308594 15.792969 609.421875 C 16.320312 610.535156 16.871094 611.632812 17.453125 612.714844 C 18.03125 613.800781 18.640625 614.871094 19.273438 615.925781 C 19.90625 616.980469 20.5625 618.019531 21.246094 619.042969 C 21.929688 620.066406 22.640625 621.070312 23.371094 622.058594 C 24.105469 623.046875 24.863281 624.015625 25.644531 624.964844 C 26.421875 625.917969 27.226562 626.847656 28.050781 627.757812 C 28.878906 628.671875 29.726562 629.5625 30.597656 630.429688 C 31.464844 631.300781 32.355469 632.148438 33.269531 632.976562 C 34.179688 633.800781 35.109375 634.605469 36.0625 635.386719 C 37.011719 636.164062 37.980469 636.921875 38.96875 637.65625 C 39.957031 638.386719 40.960938 639.097656 41.984375 639.78125 C 43.007812 640.464844 44.046875 641.121094 45.101562 641.753906 C 46.15625 642.386719 47.226562 642.996094 48.3125 643.574219 C 49.394531 644.15625 50.492188 644.707031 51.605469 645.234375 C 52.71875 645.761719 53.839844 646.261719 54.976562 646.730469 C 56.113281 647.203125 57.261719 647.648438 58.417969 648.0625 C 59.578125 648.476562 60.742188 648.863281 61.921875 649.222656 C 63.097656 649.578125 64.28125 649.910156 65.476562 650.207031 C 66.667969 650.507812 67.867188 650.777344 69.074219 651.019531 C 70.28125 651.261719 71.492188 651.472656 72.707031 651.652344 C 73.925781 651.835938 75.144531 651.988281 76.371094 652.109375 C 77.59375 652.230469 78.820312 652.324219 80.050781 652.382812 C 81.277344 652.445312 82.507812 652.476562 83.738281 652.480469 Z M 748.5 259.214844 C 748.808594 259.046875 749.125 258.902344 749.449219 258.777344 C 749.773438 258.652344 750.105469 258.546875 750.445312 258.464844 C 750.785156 258.382812 751.128906 258.324219 751.472656 258.285156 C 751.820312 258.246094 752.167969 258.234375 752.515625 258.238281 C 752.863281 258.246094 753.210938 258.277344 753.554688 258.328125 C 753.902344 258.378906 754.242188 258.453125 754.578125 258.550781 C 754.910156 258.644531 755.238281 258.761719 755.558594 258.902344 C 755.878906 259.039062 756.1875 259.199219 756.488281 259.375 C 756.789062 259.554688 757.074219 259.753906 757.347656 259.96875 C 757.625 260.183594 757.882812 260.414062 758.125 260.664062 C 758.371094 260.914062 758.597656 261.175781 758.808594 261.457031 C 759.015625 261.734375 759.207031 262.023438 759.378906 262.328125 C 759.550781 262.632812 759.703125 262.945312 759.835938 263.265625 C 759.96875 263.589844 760.078125 263.917969 760.167969 264.257812 C 760.257812 264.59375 760.324219 264.933594 760.367188 265.28125 C 760.414062 265.625 760.4375 265.972656 760.4375 266.324219 L 760.4375 545.035156 C 760.4375 545.386719 760.414062 545.730469 760.367188 546.078125 C 760.324219 546.421875 760.257812 546.765625 760.167969 547.101562 C 760.078125 547.4375 759.96875 547.769531 759.835938 548.09375 C 759.703125 548.414062 759.550781 548.726562 759.378906 549.03125 C 759.207031 549.332031 759.015625 549.625 758.808594 549.902344 C 758.597656 550.179688 758.371094 550.445312 758.125 550.695312 C 757.882812 550.941406 757.621094 551.175781 757.347656 551.390625 C 757.074219 551.605469 756.789062 551.804688 756.488281 551.980469 C 756.1875 552.160156 755.878906 552.320312 755.558594 552.457031 C 755.238281 552.59375 754.910156 552.710938 754.578125 552.808594 C 754.242188 552.90625 753.902344 552.976562 753.554688 553.03125 C 753.210938 553.082031 752.863281 553.113281 752.515625 553.117188 C 752.167969 553.125 751.820312 553.109375 751.472656 553.074219 C 751.128906 553.035156 750.785156 552.976562 750.445312 552.894531 C 750.105469 552.808594 749.773438 552.707031 749.449219 552.582031 C 749.125 552.457031 748.808594 552.3125 748.5 552.144531 L 613.824219 479.238281 L 613.824219 332.121094 Z M 49.558594 234.070312 C 49.5625 232.949219 49.617188 231.832031 49.726562 230.71875 C 49.839844 229.605469 50.003906 228.5 50.222656 227.402344 C 50.441406 226.304688 50.714844 225.222656 51.039062 224.152344 C 51.367188 223.082031 51.742188 222.027344 52.171875 220.996094 C 52.601562 219.960938 53.078125 218.953125 53.605469 217.964844 C 54.132812 216.976562 54.710938 216.019531 55.332031 215.089844 C 55.953125 214.160156 56.617188 213.261719 57.328125 212.398438 C 58.039062 211.53125 58.789062 210.703125 59.582031 209.914062 C 60.371094 209.121094 61.199219 208.371094 62.066406 207.660156 C 62.929688 206.949219 63.828125 206.285156 64.757812 205.664062 C 65.6875 205.039062 66.648438 204.464844 67.632812 203.9375 C 68.621094 203.410156 69.628906 202.929688 70.664062 202.503906 C 71.699219 202.074219 72.75 201.695312 73.820312 201.371094 C 74.890625 201.046875 75.976562 200.773438 77.070312 200.554688 C 78.167969 200.335938 79.273438 200.171875 80.386719 200.058594 C 81.5 199.949219 82.617188 199.894531 83.738281 199.890625 L 538.632812 199.890625 C 539.753906 199.894531 540.871094 199.949219 541.984375 200.058594 C 543.097656 200.171875 544.203125 200.335938 545.300781 200.554688 C 546.398438 200.773438 547.480469 201.046875 548.550781 201.371094 C 549.621094 201.695312 550.675781 202.074219 551.707031 202.503906 C 552.742188 202.929688 553.75 203.410156 554.738281 203.9375 C 555.726562 204.464844 556.683594 205.039062 557.613281 205.664062 C 558.542969 206.285156 559.441406 206.949219 560.304688 207.660156 C 561.171875 208.371094 562 209.121094 562.789062 209.914062 C 563.582031 210.703125 564.332031 211.53125 565.042969 212.398438 C 565.753906 213.261719 566.417969 214.160156 567.039062 215.089844 C 567.664062 216.019531 568.238281 216.976562 568.765625 217.964844 C 569.292969 218.953125 569.769531 219.960938 570.199219 220.996094 C 570.628906 222.027344 571.003906 223.082031 571.332031 224.152344 C 571.65625 225.222656 571.929688 226.304688 572.148438 227.402344 C 572.367188 228.5 572.53125 229.605469 572.644531 230.71875 C 572.753906 231.832031 572.808594 232.949219 572.8125 234.070312 L 572.8125 577.289062 C 572.808594 578.410156 572.753906 579.527344 572.644531 580.640625 C 572.53125 581.753906 572.367188 582.859375 572.148438 583.957031 C 571.929688 585.054688 571.65625 586.136719 571.332031 587.207031 C 571.007812 588.277344 570.628906 589.332031 570.199219 590.363281 C 569.769531 591.398438 569.292969 592.40625 568.765625 593.394531 C 568.238281 594.382812 567.664062 595.339844 567.039062 596.269531 C 566.417969 597.199219 565.753906 598.097656 565.042969 598.960938 C 564.332031 599.828125 563.582031 600.65625 562.789062 601.445312 C 562 602.238281 561.171875 602.988281 560.304688 603.699219 C 559.441406 604.410156 558.542969 605.074219 557.613281 605.695312 C 556.683594 606.320312 555.726562 606.894531 554.738281 607.421875 C 553.75 607.949219 552.742188 608.425781 551.707031 608.855469 C 550.675781 609.285156 549.621094 609.664062 548.550781 609.988281 C 547.480469 610.3125 546.398438 610.585938 545.300781 610.804688 C 544.203125 611.023438 543.097656 611.1875 541.984375 611.300781 C 540.871094 611.410156 539.753906 611.464844 538.632812 611.46875 L 83.738281 611.46875 C 82.617188 611.464844 81.5 611.410156 80.386719 611.300781 C 79.273438 611.1875 78.167969 611.023438 77.070312 610.804688 C 75.976562 610.585938 74.890625 610.3125 73.820312 609.988281 C 72.75 609.664062 71.699219 609.285156 70.664062 608.855469 C 69.628906 608.425781 68.621094 607.949219 67.632812 607.421875 C 66.648438 606.894531 65.6875 606.320312 64.757812 605.695312 C 63.828125 605.074219 62.929688 604.410156 62.066406 603.699219 C 61.199219 602.988281 60.371094 602.238281 59.582031 601.445312 C 58.789062 600.65625 58.039062 599.828125 57.328125 598.960938 C 56.617188 598.097656 55.953125 597.199219 55.332031 596.269531 C 54.710938 595.339844 54.132812 594.382812 53.605469 593.394531 C 53.078125 592.40625 52.601562 591.398438 52.171875 590.363281 C 51.742188 589.332031 51.367188 588.277344 51.039062 587.207031 C 50.714844 586.136719 50.441406 585.054688 50.222656 583.957031 C 50.003906 582.859375 49.839844 581.753906 49.726562 580.640625 C 49.617188 579.527344 49.5625 578.410156 49.558594 577.289062 Z M 49.558594 234.070312 " fill-opacity="1" fill-rule="nonzero"/></g></svg>