<svg xmlns="http://www.w3.org/2000/svg" xmlns:xlink="http://www.w3.org/1999/xlink" width="1080" zoomAndPan="magnify" viewBox="0 0 810 809.999993" height="1080" preserveAspectRatio="xMidYMid meet" version="1.0"><defs><clipPath id="cb4e48d563"><path d="M 21 78 L 786 78 L 786 735.703125 L 21 735.703125 Z M 21 78 " clip-rule="nonzero"/></clipPath></defs><g clip-path="url(#cb4e48d563)"><path fill="#d9d9d9" d="M 554.324219 423.582031 C 528.335938 423.582031 507.273438 402.515625 507.273438 376.535156 C 507.273438 350.550781 528.335938 329.484375 554.324219 329.484375 C 580.308594 329.484375 601.371094 350.550781 601.371094 376.535156 C 601.371094 402.515625 580.308594 423.582031 554.324219 423.582031 Z M 397.492188 423.582031 C 371.507812 423.582031 350.441406 402.515625 350.441406 376.535156 C 350.441406 350.550781 371.507812 329.484375 397.492188 329.484375 C 423.480469 329.484375 444.542969 350.550781 444.542969 376.535156 C 444.542969 402.515625 423.480469 423.582031 397.492188 423.582031 Z M 240.664062 423.582031 C 214.675781 423.582031 193.613281 402.515625 193.613281 376.535156 C 193.613281 350.550781 214.675781 329.484375 240.664062 329.484375 C 266.648438 329.484375 287.714844 350.550781 287.714844 376.535156 C 287.714844 402.515625 266.648438 423.582031 240.664062 423.582031 Z M 409.820312 78.445312 C 198.890625 74.285156 25.265625 204.265625 22.027344 368.753906 C 20.898438 425.941406 40.527344 479.765625 75.464844 525.832031 L 75.453125 525.832031 C 135.53125 603.015625 69.957031 735.703125 69.957031 735.703125 L 263.554688 652.324219 C 305.261719 665.503906 350.582031 673.183594 398.082031 674.121094 C 609.007812 678.273438 782.632812 548.300781 785.871094 383.808594 C 789.117188 219.316406 620.75 82.605469 409.820312 78.445312 " fill-opacity="1" fill-rule="evenodd"/></g></svg>