<svg width="259" height="280" viewBox="0 0 259 280" fill="none" xmlns="http://www.w3.org/2000/svg">
<path d="M73.3271 71.8673C71.3436 75.5255 67.0174 77.2008 62.9477 78.0043C58.878 78.8077 54.5689 79.0984 50.9438 81.1497C48.0027 82.825 45.7284 85.6457 44.7196 88.8595C44.5315 89.4749 44.3776 90.1416 44.5657 90.7399C45.1642 92.6887 48.1053 92.3126 49.7639 93.4751C51.5081 94.7059 51.3713 97.5094 50.0888 99.236C48.8064 100.946 46.7544 101.886 44.8564 102.86C42.9583 103.852 40.9919 105.1 40.1882 107.083C39.2306 109.459 40.2908 112.331 42.2572 113.989C44.2237 115.63 46.9083 116.228 49.4732 116.194C51.1832 116.177 52.9274 115.903 54.4663 115.134C57.5613 113.561 59.2542 110.245 61.2719 107.424C63.2726 104.604 66.3847 101.886 69.7875 102.518C70.1124 102.587 70.4544 102.689 70.6083 102.98C70.7964 103.339 70.5912 103.783 70.557 104.194C70.4886 105.168 71.5146 105.971 72.4892 105.971C73.481 105.971 74.3531 105.373 75.0713 104.689C77.0719 102.758 78.1492 99.9027 77.9269 97.1334C77.7217 94.6375 76.9522 91.304 79.2435 90.2954C79.8591 90.0219 80.5773 90.039 81.2442 89.9535C85.6559 89.4065 88.4089 83.5772 86.0321 79.8163C84.5102 77.406 81.6717 76.2435 79.0213 75.2349L73.3271 71.8673Z" fill="#4F3422"/>
<path d="M76.3194 92.911C75.8064 94.176 75.5842 95.441 75.8235 96.8086C76.1826 98.8941 77.106 99.7147 75.55 101.937C73.0876 105.476 69.1547 105.578 65.2902 105.664C60.0578 105.766 57.4757 109.578 57.527 114.587C57.5612 118.16 59.5106 123.528 64.0762 122.246C65.3757 121.887 66.7437 120.81 66.8463 119.374C66.9831 117.271 64.0933 116.519 62.4517 116.399C61.4428 116.331 61.4599 117.886 62.4517 117.955C65.3415 118.177 65.5125 120.981 62.7424 120.844C61.4941 120.793 60.5708 119.869 60.0236 118.844C59.1173 117.168 58.9634 115.032 59.1515 113.168C59.408 110.775 60.4511 108.262 62.9305 107.476C65.0508 106.792 67.4448 107.442 69.6164 107.1C72.4549 106.655 75.1396 105.117 76.8666 102.809C77.6361 101.766 78.303 100.604 78.1662 99.2531C77.9439 96.9795 76.8324 95.6803 77.8242 93.3041C78.2004 92.3981 76.6956 91.9878 76.3194 92.911Z" fill="#4F3422"/>
<path d="M69.7364 76.3803C60.7933 76.5855 52.0554 79.4916 44.8907 84.8764C42.6165 86.5859 39.3676 88.9792 41.4537 92.0733C41.8983 92.7229 42.531 93.2358 43.1295 93.7315C43.5741 94.0905 44.2409 94.3811 44.5145 94.894C44.8565 95.5778 44.3264 97.9881 43.6596 98.4326C42.873 98.9455 41.4024 99.0822 40.4961 99.3386C40.0003 99.4754 39.3676 99.7831 38.8546 99.8002C38.2048 100.091 37.6234 99.8515 37.1104 99.1164C35.5544 98.6719 35.3492 98.2958 36.4948 97.9881C37.4011 97.5437 36.6145 96.1932 35.7083 96.6377C34.2377 97.3556 33.1604 98.0907 34.0325 99.8857C34.7678 101.39 36.4265 101.766 37.9825 101.578C40.2567 101.287 43.4202 100.535 45.4379 99.3899C46.8572 98.5865 47.4728 97.1505 46.8743 95.5949C46.5665 94.7914 45.968 94.1076 45.3695 93.5264C45.0104 93.1845 44.5487 92.8768 44.1725 92.552C43.8135 92.2785 43.4715 91.9879 43.1466 91.6631C43.1808 90.5348 43.215 89.3895 43.2492 88.2612C43.9502 86.9449 46.1903 85.8337 47.4215 84.9961C48.5842 84.2097 49.7983 83.4747 51.0466 82.808C56.8262 79.7138 63.2214 78.0898 69.7535 77.953C70.7452 77.9189 70.7452 76.3632 69.7364 76.3803Z" fill="#4F3422"/>
<path d="M179.31 33.25C177.395 30.9764 174.129 30.1901 171.307 30.9593C168.127 31.8312 165.613 34.7715 165.904 38.1562C166.126 40.823 170.299 40.7546 170.076 38.0708C169.905 36.0023 171.923 34.5834 173.992 34.8398C176.283 35.1305 177.344 37.3186 177.036 39.2503C176.625 41.7632 174.3 42.806 171.906 42.8573C170.333 42.8915 168.674 43.0966 167.545 44.3104C166.246 45.7121 165.904 48.0712 165.494 49.8662C164.895 52.4817 168.931 53.5074 169.529 50.8919C169.734 50.0029 169.957 49.1311 170.196 48.2593C170.333 47.7635 170.384 47.2507 170.794 47.0968C171.29 46.9259 171.906 47.0284 172.419 47.0113C173.205 46.9942 174.009 46.9088 174.779 46.7036C177.651 45.9686 180.079 43.7462 180.917 40.8914C181.704 38.293 181.071 35.3356 179.31 33.25Z" fill="#C2B1FF"/>
<path d="M167.015 54.4134C164.399 53.7638 163.373 57.8153 165.989 58.4478C168.588 59.0974 169.614 55.063 167.015 54.4134Z" fill="#C2B1FF"/>
<path d="M8.43411 159.324C5.47589 159.016 2.58607 160.726 1.08131 163.222C-0.611541 166.059 -0.372148 169.906 2.19278 172.162C4.19343 173.923 7.15165 170.983 5.1339 169.205C3.57785 167.837 4.03953 165.41 5.71529 164.162C7.57914 162.777 9.85338 163.615 10.9648 165.222C12.4012 167.307 11.4778 169.684 9.78498 171.376C8.67351 172.487 7.63044 173.786 7.66464 175.444C7.69883 177.359 9.101 179.291 10.0415 180.864C11.4265 183.154 15.0516 181.103 13.6666 178.795C13.2049 178.026 12.7432 177.239 12.3157 176.436C12.0763 175.974 11.7343 175.581 11.9395 175.188C12.1789 174.726 12.6919 174.367 13.051 173.991C13.5982 173.427 14.1283 172.812 14.5387 172.145C16.0947 169.632 16.2999 166.35 14.9148 163.7C13.6495 161.307 11.1358 159.598 8.43411 159.324Z" fill="#C2B1FF"/>
<path d="M14.2652 183.086C11.9397 184.437 14.0087 188.061 16.3343 186.71C18.6598 185.36 16.5908 181.753 14.2652 183.086Z" fill="#C2B1FF"/>
<path d="M255.266 84.9449C252.786 83.3038 249.435 83.4405 246.938 84.9791C244.117 86.7056 242.544 90.2272 243.741 93.3897C244.698 95.8856 248.682 94.6718 247.725 92.1418C246.99 90.2101 248.529 88.2784 250.598 87.9536C252.889 87.5946 254.513 89.4066 254.753 91.3383C255.061 93.8684 253.111 95.5095 250.837 96.2274C249.332 96.689 247.81 97.3557 247.058 98.8429C246.186 100.552 246.528 102.912 246.631 104.758C246.784 107.442 250.957 107.305 250.803 104.621C250.751 103.715 250.717 102.809 250.717 101.903C250.717 101.39 250.615 100.877 250.974 100.621C251.401 100.33 252.017 100.245 252.513 100.091C253.265 99.8515 254.018 99.5438 254.701 99.1507C257.266 97.6463 258.959 94.8428 258.976 91.8683C258.942 89.1331 257.523 86.4492 255.266 84.9449Z" fill="#C2B1FF"/>
<path d="M249.332 108.69C246.648 108.792 246.784 112.963 249.469 112.861C252.154 112.758 252.017 108.587 249.332 108.69Z" fill="#C2B1FF"/>
<path d="M75.4131 266.526C61.0324 281.21 35.1608 277.159 24.3881 258.406C15.3083 242.61 18.6256 220.524 24.1658 203.993C32.2197 179.975 47.5751 158.743 63.6829 138.947C79.1237 119.938 92.7521 108.501 114.503 95.988C136.493 83.3379 159.15 75.97 184.577 80.8933C217.801 87.321 231.498 115.903 245.365 144.178C259.319 172.658 263.286 207.087 253.881 237.721C249.059 253.431 238.885 263.773 223.991 272.099C210.978 279.364 194.306 279.227 180.644 273.483C166.964 267.722 149.044 262.936 143.384 232.849L75.4131 266.526Z" fill="#E1E1E0"/>
<path d="M154.721 263.107C160.039 267.09 166.331 269.517 172.179 272.577C176.813 275.005 181.909 276.594 187.005 277.654C197.965 279.928 210.619 280.167 220.503 274.184C221.358 273.654 220.571 272.304 219.716 272.834C209.815 278.834 196.922 278.355 186.013 275.842C181.14 274.714 176.403 273.09 172.008 270.697C166.485 267.688 160.586 265.551 155.524 261.756C154.704 261.141 153.917 262.508 154.721 263.107Z" fill="#4F3422"/>
<path d="M198.205 236.439C186.235 257.705 166.947 269.551 155.114 262.902C143.281 256.252 143.384 233.618 155.353 212.352C167.323 191.086 186.611 179.24 198.444 185.889C210.26 192.539 210.157 215.173 198.205 236.439Z" fill="#4F3422"/>
<path d="M91.6918 246.644C79.7222 267.91 60.4339 279.757 48.601 273.107C36.7681 266.457 36.8707 243.824 48.8404 222.558C60.8101 201.292 80.0984 189.445 91.9312 196.095C103.747 202.745 103.644 225.378 91.6918 246.644Z" fill="#4F3422"/>
<path d="M183.944 215.617C182.593 215.993 181.823 214.113 183.037 213.446C184.012 212.899 184.987 212.335 185.927 211.754C185.158 209.532 184.269 207.344 183.277 205.207C182.371 205.497 181.327 205.737 180.233 205.925C177.463 206.386 176.095 202.694 178.506 201.275C179.173 200.882 179.891 200.454 180.626 200.027C179.036 197.189 177.258 194.471 175.308 191.856L172.282 194.129C173.376 193.309 174.368 192.539 175.257 191.787C173.462 189.411 171.529 187.12 169.477 184.984C165.698 187.172 161.372 188.676 157.149 189.189C154.618 189.497 153.592 186.095 155.866 184.932C158.79 183.445 162.244 182.334 165.391 181.069C163.134 179.069 160.74 177.222 158.243 175.547C131.345 184.18 119.632 196.676 78.7644 199.582C59.4248 200.95 43.0776 238.559 50.3279 254.782C52.8073 260.32 57.3558 263.209 62.9986 264.645C75.5839 267.876 89.007 266.628 101.524 263.158C114.058 259.688 125.857 254.064 137.604 248.456C148.069 243.465 158.551 238.473 169.016 233.481C175.941 230.182 183.123 226.644 188.543 221.395C188.099 219.088 187.517 216.797 186.833 214.558C185.756 215.019 184.764 215.378 183.944 215.617Z" fill="#ED7E1C"/>
<path d="M163.219 102.621L116.726 68.4142C111.955 72.2434 107.167 76.0556 102.294 79.7309C102.738 92.3298 105.799 107.613 116.572 116.587L124.301 104.159C124.301 104.159 131.312 115.681 138.22 127.015C144.683 137.614 159.782 138.417 167.34 128.554C167.443 128.417 167.545 128.297 167.631 128.16C173.872 119.989 171.872 108.228 163.219 102.621Z" fill="#ED7E1C"/>
<path d="M136.322 74.1066C136.544 78.2606 133.346 81.8163 129.174 82.0214C125.019 82.2437 121.462 79.0469 121.257 74.8758C121.035 70.7218 124.232 67.1661 128.405 66.9609C132.56 66.7387 136.099 69.9354 136.322 74.1066Z" fill="#ED7E1C"/>
<path d="M128.422 78.0385C129.191 75.3888 129.961 72.722 130.782 70.0894C131.072 69.1321 129.568 68.7048 129.277 69.6792C128.456 72.3288 127.687 74.9785 126.917 77.6282C126.627 78.6026 128.148 79.0129 128.422 78.0385Z" fill="#4F3422"/>
<path d="M124.284 104.176L138.613 127.425L129.345 94.6204L124.284 104.176Z" fill="#4F3422"/>
<path d="M102.704 82.9618C102.089 87.7655 101.798 92.8084 102.123 97.6463C102.157 98.1591 102.79 98.7232 103.303 98.313C104.824 97.1334 106.363 95.9539 107.885 94.7743C108.672 94.176 107.885 92.8084 107.099 93.4239C105.577 94.6034 104.038 95.7829 102.516 96.9625C102.909 97.1847 103.303 97.4069 103.696 97.6463C103.388 92.8084 103.679 87.7655 104.277 82.9618C104.38 81.9532 102.824 81.9703 102.704 82.9618Z" fill="#4F3422"/>
<path d="M111.647 86.0218C113.87 85.8166 116.093 85.6286 118.316 85.4235C119.308 85.338 119.325 83.7653 118.316 83.8507C116.093 84.0559 113.87 84.2439 111.647 84.4491C110.655 84.5516 110.638 86.1072 111.647 86.0218Z" fill="#4F3422"/>
<path d="M109.92 81.0642C112.211 79.2864 114.349 77.3376 116.332 75.2349C117.016 74.4998 115.922 73.3887 115.221 74.1238C113.237 76.2264 111.1 78.1752 108.808 79.9531C108.022 80.5685 109.133 81.6796 109.92 81.0642Z" fill="#4F3422"/>
<path d="M113.75 101.339C113.853 101.321 113.733 101.321 113.699 101.321C113.597 101.287 113.562 101.253 113.494 101.185C113.408 101.099 113.511 101.253 113.477 101.15C113.46 101.082 113.46 101.082 113.477 101.15C113.477 101.116 113.46 101.082 113.46 101.048C113.46 100.843 113.648 100.672 113.836 100.638C113.904 100.621 113.973 100.621 114.024 100.655C114.075 100.672 114.178 100.774 114.092 100.689C114.127 100.74 114.161 100.774 114.178 100.843C114.178 100.877 114.195 100.911 114.195 100.945C114.11 101.099 114.024 101.253 113.921 101.39C113.75 101.527 113.494 101.475 113.357 101.321C113.255 101.202 113.22 101.048 113.272 100.877C113.357 100.774 113.443 100.655 113.528 100.552C113.579 100.518 113.682 100.501 113.733 100.501C113.768 100.501 113.802 100.518 113.836 100.518C113.768 100.501 113.768 100.501 113.836 100.518C113.921 100.535 113.973 100.603 114.007 100.706C114.11 100.894 114.144 100.928 114.127 100.826C114.041 100.415 113.545 100.176 113.169 100.279C112.742 100.398 112.536 100.826 112.622 101.236C112.861 102.416 114.811 102.262 114.811 101.031C114.811 99.8342 112.947 99.4581 112.639 100.689C112.365 101.783 113.819 102.723 114.64 101.886C115.358 101.185 114.776 99.6803 113.716 99.8C113.306 99.8513 112.913 100.125 112.93 100.586C112.998 100.945 113.323 101.39 113.75 101.339Z" fill="#4F3422"/>
<path d="M171.906 247.226C153.524 242.525 106.483 202.044 89.6401 173.598C84.6641 165.205 80.5773 156.589 78.5254 147.05C77.4481 142.059 79.2093 136.657 82.4583 136.452C80.5773 132.725 82.6463 128.605 86.2714 126.537C87.6223 125.75 89.5717 127.494 90.4437 126.195C91.1619 125.118 91.1448 123.733 91.0935 122.434C90.8028 115.921 92.1879 105.783 95.8643 100.091C97.4203 97.6805 101.216 98.7233 101.285 101.595C101.336 103.664 101.08 105.852 100.806 107.014C99.1645 114.092 100.447 120.092 101.011 127.357C101.405 132.383 102.909 136.4 105.543 139.922C107.68 142.777 112.28 141.153 112.075 137.58C111.921 134.81 110.861 131.904 109.39 129.785C107.971 127.767 106.449 124.947 105.611 122.126C104.568 118.57 106.808 114.963 109.8 117.134C127.601 130.075 128.456 138.691 138.596 148.298C154.977 163.803 171.513 179.428 190.681 191.309C194.375 193.599 198.325 195.907 200.531 199.651C204.994 207.207 201.471 220.301 197.401 228.08C190.049 242.2 179.926 249.26 171.906 247.226Z" fill="#ED7E1C"/>
<path d="M172.111 246.456C165.733 244.764 159.851 240.935 154.413 237.294C146.479 231.977 139.006 225.977 131.825 219.703C116.999 206.745 102.396 192.3 91.7774 175.598C87.9813 169.632 84.6469 163.29 82.1674 156.657C80.9021 153.29 79.688 149.7 79.1408 146.127C78.7133 143.306 78.9185 137.734 82.6462 137.186C83.1934 137.101 83.296 136.434 83.1079 136.041C81.7571 132.947 83.2447 128.195 86.8527 127.374C88.3062 127.049 89.8964 128.007 91.025 126.639C92.222 125.203 91.8287 122.844 91.7945 121.152C91.7603 118.57 91.9484 115.972 92.3246 113.425C92.6495 111.151 93.1111 108.878 93.778 106.672C94.3594 104.758 95.5051 100.125 97.7793 99.578C101.541 98.6719 100.361 104.877 100.019 106.792C99.4893 109.647 99.1302 112.399 99.1986 115.305C99.3012 120.639 99.6432 126.519 100.857 131.716C101.61 134.947 103.422 140.571 106.876 141.853C109.561 142.845 112.519 140.999 112.827 138.161C113.34 133.169 109.493 129.22 107.543 125.032C106.842 123.511 106.021 121.699 106.158 119.989C106.226 119.015 106.483 117.613 107.663 117.288C108.398 117.083 109.664 118.075 110.211 118.399C112.878 120.006 115.358 122.417 117.632 124.536C120.847 127.528 123.754 130.827 126.387 134.349C128.49 137.169 130.439 140.076 132.611 142.845C135.467 146.469 138.801 149.563 142.136 152.726C150.805 160.897 159.56 169.017 168.811 176.522C173.24 180.112 177.771 183.565 182.439 186.83C187.227 190.163 192.87 192.83 197.162 196.796C206.156 205.121 200.753 220.695 195.64 229.703C191.228 237.447 182.525 248.884 172.111 246.456C171.136 246.234 170.709 247.739 171.701 247.961C180.045 249.892 187.586 243.482 192.374 237.396C198.769 229.276 203.608 218.523 203.386 208.01C203.283 203.104 201.693 198.711 197.966 195.394C193.571 191.497 188.048 188.796 183.226 185.445C171.974 177.633 161.595 168.607 151.506 159.324C143.777 152.196 136.202 145.341 130.063 136.776C127.533 133.238 124.916 129.75 121.924 126.588C120.146 124.707 118.247 122.929 116.281 121.237C114.297 119.545 111.835 116.946 109.373 115.989C105.389 114.45 104.106 119.391 104.841 122.314C105.508 124.981 106.979 127.562 108.484 129.836C109.954 132.075 112.964 137.545 110.313 139.853C107.304 142.435 104.893 137.819 103.833 135.562C102.328 132.314 101.935 128.913 101.61 125.391C101.319 122.331 100.926 119.288 100.806 116.211C100.669 112.707 101.233 109.442 101.764 105.988C102.071 104.006 102.618 101.202 101.319 99.4583C100.31 98.1249 98.4291 97.612 96.8901 98.2445C95.0947 98.9796 94.2397 101.185 93.5386 102.843C92.3588 105.612 91.5893 108.553 91.0763 111.51C90.5975 114.262 90.3068 117.049 90.2555 119.835C90.2384 120.998 90.7172 122.981 90.2897 124.006C90.0332 124.314 89.7767 124.605 89.5202 124.912C89.2637 125.75 88.8021 126.006 88.1694 125.682C87.6564 125.767 87.1434 125.494 86.5962 125.613C84.4588 126.058 82.441 128.622 81.6203 130.502C80.6969 132.656 80.8508 134.759 81.7742 136.879C81.928 136.503 82.0819 136.11 82.2358 135.733C77.619 136.417 77.0547 142.93 77.6019 146.503C78.6449 153.187 81.4664 159.786 84.4588 165.82C89.1612 175.274 95.1973 183.838 101.986 191.907C115.888 208.403 132.115 223.43 149.676 235.96C156.328 240.713 163.681 245.909 171.701 248.029C172.675 248.234 173.086 246.713 172.111 246.456Z" fill="#4F3422"/>
<path d="M89.0071 126.707C89.6055 134.708 91.7943 142.212 95.8811 149.136C96.3941 150.008 97.7449 149.221 97.2319 148.349C93.2819 141.665 91.1616 134.434 90.5802 126.707C90.5118 125.699 88.9387 125.699 89.0071 126.707Z" fill="#4F3422"/>
<path d="M81.7401 136.674C82.1504 143.563 84.0143 150.144 87.2632 156.23C87.742 157.119 89.0929 156.333 88.6141 155.444C85.502 149.597 83.7065 143.289 83.3132 136.674C83.2448 135.682 81.6717 135.682 81.7401 136.674Z" fill="#4F3422"/>
<path d="M95.5219 105.219C97.7106 104.365 99.1812 102.228 99.0102 99.8516C98.9418 98.8601 97.3686 98.843 97.4541 99.8516C97.5738 101.493 96.6847 103.1 95.1115 103.715C94.171 104.074 94.5814 105.595 95.5219 105.219Z" fill="#4F3422"/>
<path d="M109.578 117.169C108.877 120.468 111.202 123.647 114.52 124.092C115.511 124.229 115.511 122.656 114.52 122.519C112.228 122.211 110.621 119.784 111.083 117.579C111.288 116.604 109.783 116.177 109.578 117.169Z" fill="#4F3422"/>
<path d="M103.439 150.042C104.687 148.965 105.919 147.871 107.167 146.794C107.919 146.127 106.808 145.033 106.055 145.683C104.807 146.76 103.576 147.854 102.328 148.931C101.575 149.597 102.687 150.691 103.439 150.042Z" fill="#E1E1E0"/>
<path d="M94.8038 158.863C95.8811 157.786 96.9584 156.709 98.0356 155.632C98.7538 154.914 97.6424 153.82 96.9242 154.521C95.8469 155.598 94.7696 156.675 93.6924 157.752C92.9913 158.469 94.0857 159.581 94.8038 158.863Z" fill="#E1E1E0"/>
<path d="M87.947 166.248C88.5967 165.649 89.2294 165.034 89.8792 164.436C90.6145 163.752 89.503 162.641 88.7677 163.324C88.118 163.923 87.4853 164.538 86.8355 165.136C86.1002 165.837 87.2117 166.931 87.947 166.248Z" fill="#E1E1E0"/>
<path d="M121.599 137.836C122.898 137.255 124.283 136.999 125.703 136.999C126.711 136.999 126.711 135.443 125.703 135.443C123.993 135.426 122.368 135.802 120.812 136.486C119.906 136.896 120.692 138.246 121.599 137.836Z" fill="#E1E1E0"/>
<path d="M172.111 177.171C174.488 174.094 177.925 170.658 181.653 171.804C184.748 172.778 186.013 176.385 186.834 179.513C187.86 177.616 189.125 175.496 191.485 175.445C192.682 175.411 193.827 175.975 194.682 176.829C196.273 178.402 196.82 180.59 197.35 182.693C197.658 179.872 201.933 179.171 204.053 181.052C206.173 182.932 206.618 186.043 206.823 188.864C207.387 196.54 207.199 204.54 203.711 211.446C203.284 212.284 202.514 212.917 201.574 213.053C199.197 213.378 198.376 210.318 198.342 208.062C198.222 202.113 196.17 187.377 196.17 187.377C196.17 187.377 194.768 198.847 193.656 203.275C193.332 204.574 193.297 206.01 192.63 207.583C190.801 211.993 184.816 210.916 184.902 206.147C184.953 203.19 185.261 200.215 185.312 197.736C185.432 193.121 185.551 188.505 185.671 183.872C181.259 191.958 176.198 200.625 167.477 203.805C167.084 203.942 166.639 203.993 166.229 203.89C164.673 203.497 164.775 201.668 165.134 200.318C166.964 193.326 172.761 186.505 176.967 180.624L172.111 177.171Z" fill="#ED7E1C"/>
<path d="M172.658 177.735C174.556 175.342 177.378 171.872 180.798 172.47C184.183 173.069 185.278 176.864 186.064 179.735C186.235 180.368 187.176 180.522 187.501 179.924C188.629 177.855 190.322 175.222 193.144 176.658C195.384 177.804 196.05 180.693 196.598 182.915C196.786 183.65 197.948 183.684 198.102 182.915C198.496 181.035 200.667 180.419 202.36 181C204.139 181.616 205.045 183.513 205.506 185.206C206.344 188.334 206.293 191.907 206.276 195.121C206.259 198.591 205.968 202.095 205.096 205.463C204.737 206.848 204.139 210.147 203.027 211.07C202.104 211.344 201.163 211.6 200.24 211.874C199.932 211.532 199.71 211.139 199.59 210.694C199.282 209.942 199.197 209.173 199.128 208.369C198.615 201.275 197.897 194.232 196.905 187.189C196.769 186.232 195.469 186.608 195.366 187.394C194.597 193.565 193.964 200.01 192.289 206.027C191.656 208.301 189.587 210.797 187.039 209.104C184.85 207.651 185.705 203.993 185.842 201.788C186.218 195.839 186.252 189.856 186.406 183.907C186.423 183.137 185.312 182.83 184.953 183.513C181.105 190.522 176.848 198.249 169.478 202.095C168.418 202.66 166.024 204.318 165.665 201.6C165.545 200.625 166.263 199.138 166.605 198.249C167.443 196.044 168.606 193.975 169.854 191.975C172.231 188.18 175.001 184.693 177.617 181.069C178.199 180.248 176.848 179.462 176.266 180.283C174.522 182.71 158.346 203.395 166.212 204.728C168.058 205.036 170.435 203.446 171.906 202.506C173.975 201.189 175.822 199.548 177.463 197.719C181.071 193.719 183.739 189.001 186.321 184.3C185.842 184.163 185.346 184.043 184.867 183.907C184.765 187.873 184.662 191.821 184.56 195.787C184.474 199.36 183.739 203.224 184.115 206.779C184.474 210.164 188.031 212.335 191.109 210.54C193.212 209.309 193.725 206.95 194.152 204.728C194.58 202.472 195.076 200.215 195.452 197.941C196.016 194.437 196.495 190.933 196.94 187.411C196.427 187.479 195.914 187.548 195.401 187.616C195.931 191.411 196.41 195.206 196.82 199.001C197.094 201.566 197.367 204.13 197.504 206.711C197.606 208.677 197.538 210.916 198.803 212.575C199.915 214.028 201.83 214.267 203.301 213.156C205.524 211.481 206.361 207.138 206.909 204.608C207.661 201.07 207.883 197.411 207.832 193.804C207.781 190.505 207.832 186.847 206.669 183.701C205.797 181.377 204.053 179.428 201.454 179.274C199.231 179.137 197.076 180.265 196.615 182.539C197.111 182.539 197.624 182.539 198.119 182.539C197.35 179.445 196.085 175.445 192.425 174.812C189.33 174.265 187.484 176.795 186.167 179.188C186.646 179.257 187.124 179.308 187.603 179.376C186.697 176.026 185.295 171.94 181.516 171.034C177.344 170.026 173.907 173.769 171.598 176.676C170.931 177.411 172.043 178.522 172.658 177.735Z" fill="#4F3422"/>
<path d="M103.747 79.9529C93.5899 76.8075 83.4499 73.645 73.3098 70.4482C73.0875 72.6193 74.2161 74.6707 75.3105 76.5511C77.3795 80.1068 79.6367 83.8506 83.3131 85.6968C86.733 87.4063 90.854 87.1328 94.4449 85.8336C98.0358 84.5343 101.182 82.2949 104.294 80.0897L103.747 79.9529Z" fill="#ED7E1C"/>
<path d="M91.2986 192.591C86.7672 188.59 81.2098 186.197 75.1566 185.787C67.6499 185.291 60.1432 187.479 52.7733 185.325C52.893 185.753 52.9956 186.197 53.1153 186.624C56.7233 183.411 62.0754 183.889 66.5726 184.06C71.5999 184.248 76.5417 184.864 81.2611 186.642C81.3979 186.146 81.5347 185.633 81.6715 185.137C76.3536 183.753 71.1211 182.094 65.9741 180.163C63.3579 179.171 60.5194 178.265 58.0742 176.88C57.6296 176.658 57.2192 176.385 56.843 176.06C56.8601 175.137 56.8772 174.214 56.8943 173.291C57.1166 172.983 58.0913 172.812 58.4674 172.744C59.8867 172.47 61.5454 172.761 62.9304 173C73.1901 174.761 81.6202 181.718 89.3834 188.18C90.1529 188.813 91.2644 187.719 90.4949 187.069C85.365 182.795 80.1497 178.504 74.2161 175.359C71.4289 173.889 68.4878 172.658 65.4099 171.906C62.8449 171.273 59.6986 170.572 57.1337 171.479C55.5434 172.043 54.2439 173.342 54.5687 175.154C54.9791 177.445 57.6809 178.453 59.5276 179.24C66.5726 182.248 73.8399 184.71 81.2611 186.642C82.2529 186.898 82.612 185.479 81.6715 185.137C76.2168 183.086 70.4371 182.59 64.6575 182.453C60.1774 182.351 55.5092 182.402 51.9867 185.53C51.5421 185.941 51.7986 186.676 52.3287 186.83C58.5871 188.659 64.9482 187.496 71.3263 187.291C78.3542 187.086 84.852 188.984 90.17 193.668C90.9395 194.351 92.0509 193.257 91.2986 192.591Z" fill="#4F3422"/>
<path d="M108.979 70.7561C109.954 65.6961 110.245 60.5676 109.663 55.4392C109.304 52.2938 108.535 48.55 105.953 46.4302C100.686 42.1223 94.2909 50.9604 96.2744 55.9862C99.0958 63.1148 108.295 49.0115 109.441 46.5328C110.33 44.6182 111.886 40.5496 108.689 39.8316C107.116 39.4727 105.354 40.4983 103.952 41.1138C101.849 42.054 99.814 43.1651 97.8818 44.4301C94.2225 46.8405 90.9222 49.7637 88.1008 53.1143C86.237 55.3195 82.6119 59.0462 84.185 62.2429C85.553 65.0294 89.1097 64.1063 91.3668 63.1831C95.2826 61.5762 99.0274 59.4907 102.482 57.0461C109.578 52.0202 115.597 45.5242 120.145 38.1222C122.061 34.9938 124.215 31.2842 121.941 27.7456C119.82 24.4463 115.819 24.0702 112.314 24.925C103.798 27.0106 95.1287 31.7629 88.2889 37.1649C81.0045 42.9258 75.413 50.4646 72.8138 59.4394C72.7454 59.6787 72.8138 60.0377 73.019 60.2086C76.969 63.4566 83.2959 59.1659 87.109 57.3196C92.598 54.687 97.916 51.6612 102.824 48.0542C111.852 41.4215 121.223 31.5065 123.514 20.1384C126.352 6.37714 107.56 8.32594 99.5233 10.9585C93.6069 12.9073 88.1692 16.087 83.2617 19.8991C78.1489 23.848 72.9677 28.5833 69.2742 33.9168C66.7093 37.6264 64.589 43.7122 69.1374 46.8918C73.4123 49.8834 79.6878 47.2508 84.014 45.7293C96.6677 41.2847 109.544 34.3271 118.863 24.5318C120.812 22.4804 122.608 20.2581 124.13 17.8648C125.6 15.5741 127.994 12.1552 127.396 9.24906C126.404 4.47962 119.735 5.62497 116.349 6.01815C103.473 7.53958 90.9735 11.9842 79.8588 18.6854C74.1647 22.1214 68.8125 26.1387 63.9221 30.6346C59.1 35.0793 54.3121 40.0026 51.713 46.1225C50.7383 48.4303 50.345 50.5501 51.7301 52.7724C53.0981 54.9605 55.5091 56.6187 57.8517 57.5931C62.8448 59.6958 68.5731 59.0291 73.6688 57.6444C80.2692 55.8666 86.6816 52.875 92.769 49.7979C98.9932 46.6696 105.371 43.2506 110.57 38.5495C115.135 34.4126 118.641 29.0106 119.701 22.8736C120.162 20.2068 120.419 16.7879 119.239 14.2578C118.145 11.8988 115.409 11.1124 113.1 10.4628C93.3162 4.83861 57.5952 19.694 66.4186 45.0968C67.9234 49.4218 70.95 53.0288 75.4472 54.3451C81.261 56.0546 88.5112 55.1144 94.4105 54.2084C106.38 52.3963 118.829 47.2337 126.746 37.7461C130.302 33.4895 132.987 27.5747 130.61 22.1043C128.627 17.54 123.753 15.181 119.068 14.4288C106.141 12.3774 93.1965 18.4803 83.0394 25.9165C78.3883 29.3354 72.5402 33.2672 69.8214 38.5153C67.5985 42.789 68.9322 47.7123 74.2673 47.9517C80.5257 48.2252 87.5707 45.661 93.2478 43.2848C99.5746 40.6351 105.542 37.1478 111.219 33.3014C116.76 29.5406 122.061 25.4207 127.293 21.2325C127.96 20.7026 127.207 19.7965 126.523 19.9333C108.723 23.1984 92.3928 31.7971 79.1407 44.037C78.7303 44.4131 78.9184 44.9772 79.2946 45.2678C83.7062 48.5158 89.1781 46.1567 93.6582 44.2934C98.7709 42.1565 103.781 39.7633 108.518 36.8742C113.271 33.9681 117.769 30.5834 121.684 26.6003C123.599 24.6515 125.395 22.5488 126.968 20.3265C128.028 18.8563 128.935 17.1298 127.772 15.4203C126.729 13.8988 124.66 13.6082 122.984 13.4544C119.667 13.1638 116.332 13.4715 113.066 14.0356C106.671 15.1468 100.344 17.0614 94.2396 19.2324C82.0989 23.5745 70.5054 29.5406 59.9721 36.9426C55.5091 40.071 51.2342 43.5583 47.7288 47.7636C46.1214 49.6953 44.668 51.7638 43.4539 53.9861C42.5305 55.6785 40.6838 58.6017 41.3336 60.6531C41.915 62.4139 44.2747 63.2515 45.8479 63.7814C48.447 64.6533 51.2 64.7217 53.9017 64.3456C59.5959 63.5763 64.9822 61.0463 70.1805 58.7214C91.3839 49.2509 111.442 36.2588 125.6 17.5571C128.182 14.1553 131.277 9.88157 126.352 6.90708C121.958 4.24029 115.699 6.13781 110.997 6.8387C99.6943 8.51399 88.3915 10.4799 77.4478 13.8305C66.5212 17.164 55.9708 21.9334 46.8738 28.9081C39.7604 34.3613 29.21 43.507 36.4602 53.0288C43.7275 62.5848 59.4591 57.5589 68.5047 53.7981C80.1666 48.9603 91.0932 41.6437 101.165 34.0878C106.141 30.3611 110.895 26.2755 114.998 21.6086C118.418 17.7281 121.633 13.1638 121.257 7.74472C121.154 6.25747 120.675 3.28298 119.325 2.37696C118.572 1.88121 117.427 2.05216 116.572 2.01797C114.947 1.94959 113.34 1.93249 111.715 1.96668C105.474 2.12053 99.2497 3.04365 93.2136 4.59928C81.1413 7.71053 69.7872 13.2492 59.442 20.0872C54.6541 23.2497 48.9771 26.6687 45.7795 31.5749C43.2829 35.4041 42.4963 40.9428 45.6085 44.6695C48.7548 48.4474 54.4147 48.9603 58.9632 49.3534C65.2558 49.9005 71.634 49.3876 77.8069 48.0713C88.9216 45.7294 101.267 40.9086 109.492 32.8228C113.117 29.2671 115.665 24.9079 116.366 19.8478C116.418 19.4205 116.264 19.0273 115.819 18.8905C103.61 15.2151 90.358 17.1298 79.3972 23.5232C73.7543 26.8054 68.6244 31.2501 64.76 36.5324C60.639 42.1394 66.0937 46.8747 71.4801 48.6013C78.0805 50.721 85.7582 49.5928 92.2902 47.832C99.7114 45.8319 106.705 42.3788 113.22 38.3273C118.572 34.9938 126.335 30.8911 128.593 24.5489C130.644 18.7709 125.993 13.6253 120.214 13.5228C115.939 13.4544 111.51 15.3177 107.611 16.8904C103.747 18.4632 100.002 20.3265 96.4967 22.583C90.3751 26.4806 83.6378 31.9509 83.8772 39.9171C83.8943 40.3616 84.2192 40.6693 84.6638 40.7035C100.925 41.7292 116.161 33.0963 125.258 19.8649C125.6 19.3692 125.138 18.6854 124.574 18.6854C110.364 18.8563 97.1465 25.5917 87.8614 36.2246C87.3826 36.7717 87.7417 37.4726 88.4086 37.558C95.0774 38.3444 101.763 36.4469 107.269 32.6176C109.954 30.7543 112.331 28.4636 114.332 25.8652C116.264 23.3523 118.777 19.7965 119.051 16.5314C119.632 9.7961 107.526 11.4885 103.815 12.121C99.9508 12.7706 96.1889 14.0527 92.7006 15.8477C90.888 16.7708 89.161 17.8477 87.5023 19.0444C86.5106 19.7795 85.1597 20.5487 84.7322 21.7795C82.4751 28.3098 97.1807 23.7113 98.8906 23.1642C102.909 21.8821 106.825 20.241 110.553 18.2409C113.75 16.5314 117.615 14.6168 119.855 11.6594C121.633 9.30035 121.907 6.30876 120.265 3.79582C118.504 1.11194 115.409 0.205919 112.348 0.0691602C104.568 -0.28983 96.3086 0.770046 88.7848 2.75304C81.1584 4.77023 73.874 8.17209 67.8208 13.2663C63.4091 16.9759 58.4673 24.2925 63.4775 29.5919C67.8892 34.2587 76.1824 32.498 81.5688 31.0791C89.7082 28.9423 97.1978 24.8908 104.174 20.2752C107.868 17.8306 111.459 15.1981 114.981 12.4971C117.238 10.7705 121.035 8.68493 121.359 5.5053C122.061 -1.21295 108.979 2.65047 105.97 3.41974C91.5549 7.12931 75.1736 17.0956 69.7872 31.6945C68.556 35.028 68.2312 38.635 70.2831 41.7121C71.976 44.2592 74.7461 45.8832 77.5846 46.8405C85.4162 49.4731 93.8121 47.1311 101.114 43.9857C109.304 40.4471 117.136 35.8998 124.557 30.9424C131.192 26.4977 138.784 21.6257 143.777 15.2664C145.846 12.6509 147.146 9.779 147.539 6.46261C147.573 6.12072 147.265 5.79591 146.957 5.71044C131.482 1.48803 115.34 7.33445 100.789 12.4116C87.9982 16.8904 75.6182 24.019 71.1039 37.5922C70.779 38.5495 72.3008 38.9598 72.6086 38.0025C77.1571 24.2925 90.1186 17.6597 102.943 13.3176C116.794 8.63365 131.876 3.2146 146.53 7.21478C146.342 6.95836 146.154 6.71903 145.949 6.46261C145.145 13.2492 139.553 17.7452 134.543 21.7283C129.225 25.9336 123.668 29.8141 117.888 33.3527C111.92 36.9939 105.696 40.4642 99.2155 43.1138C92.9913 45.661 85.9805 47.5072 79.2946 45.7464C76.1653 44.9088 72.8993 43.2848 71.2578 40.3445C69.2571 36.7717 70.8987 32.498 72.6257 29.1645C75.5669 23.4719 80.2692 18.8734 85.3649 15.0784C90.7171 11.0953 96.7019 7.94986 103.063 5.91558C105.816 5.04374 108.62 4.34286 111.459 3.8813C113.066 3.62488 114.742 3.36845 116.383 3.30008C117.7 3.24879 120.197 3.09494 119.735 5.74463C119.564 6.78741 118.572 7.62506 117.837 8.30885C115.323 10.685 112.194 12.6851 109.407 14.7194C106.688 16.7024 103.935 18.617 101.096 20.412C95.6246 23.8651 89.8621 26.8909 83.672 28.8568C78.5422 30.4808 70.8645 32.686 65.8714 29.5406C58.4502 24.8737 66.3673 16.2066 70.7961 12.8903C80.9019 5.31726 93.6069 2.44534 106.021 1.77864C109.15 1.60769 112.81 1.16323 115.785 2.27439C120.675 4.10353 120.693 9.21487 117.05 12.309C112.023 16.5998 105.115 19.523 98.9077 21.5402C97.1636 22.1043 95.4023 22.6001 93.6069 23.0104C92.0166 23.3865 89.4175 24.3609 87.793 23.8309C84.4073 22.7198 88.3915 20.2923 89.7253 19.4034C91.1787 18.4461 92.6835 17.5742 94.2567 16.8221C97.5398 15.2322 101.045 14.1211 104.653 13.574C107.834 13.0783 112.399 12.5313 115.477 13.745C122.368 16.446 109.082 29.5064 106.175 31.4894C100.925 35.0451 94.7354 36.7375 88.4086 36.0024C88.5967 36.4469 88.7848 36.8913 88.9558 37.3358C97.9673 26.9935 110.741 20.4291 124.557 20.2581C124.335 19.8649 124.112 19.4717 123.89 19.0786C115.084 31.8655 100.344 40.1223 84.6467 39.1308C84.9032 39.3872 85.1597 39.6607 85.4333 39.9171C85.2281 33.0279 90.8709 28.2072 96.1205 24.6857C101.37 21.1812 107.133 18.4973 113.117 16.5485C116.435 15.4716 120.351 14.2407 123.702 15.8647C127.567 17.7281 128.456 22.1385 126.352 25.6772C123.275 30.874 116.691 34.3955 111.664 37.4555C101.302 43.7805 88.819 49.1312 76.4047 47.9688C73.4978 47.6953 70.5909 46.9431 68.1457 45.2849C66.2989 44.037 64.4522 42.1907 64.76 39.7462C64.9651 38.1051 66.9487 36.2246 67.9747 35.028C71.5314 30.9082 75.7892 27.3866 80.5257 24.6857C91.0932 18.6512 103.73 16.8733 115.426 20.3949C115.238 20.0701 115.067 19.7453 114.879 19.4376C113.459 29.6261 104.551 35.7631 96.0008 40.0197C85.9463 45.0285 74.7974 48.0884 63.5288 48.003C58.6212 47.9688 51.6959 47.9688 47.7288 44.584C42.5134 40.1564 46.0188 32.7544 50.0714 28.9935C54.0214 25.3182 58.7751 22.2924 63.3407 19.4547C67.855 16.6511 72.5231 14.104 77.3794 11.8988C87.2287 7.41992 97.8134 4.37705 108.637 3.67616C111.134 3.52231 113.63 3.47102 116.127 3.5565C117.358 3.60778 118.179 3.47102 118.863 4.548C119.701 5.8301 119.786 7.79601 119.701 9.26616C119.376 14.9758 114.896 19.6256 111.1 23.489C103.439 31.2501 94.2054 37.4042 85.0229 43.1822C75.8234 48.9774 65.9569 54.2597 55.1329 56.1743C49.7978 57.1145 43.3684 57.5248 39.0764 53.593C34.0663 48.9945 35.1093 42.6523 39.2303 37.8999C45.5572 30.6176 54.2608 25.0959 62.9132 21.0103C71.6853 16.8733 81.0387 14.1211 90.4948 12.0526C99.8482 10.0012 109.595 8.06952 119.154 7.26607C121.701 7.06093 125.327 7.06093 126.917 9.4713C128.764 12.2577 124.694 16.2408 123.069 18.3093C120.009 22.1898 116.657 25.8481 113.083 29.2671C105.884 36.1563 97.8134 42.0711 89.2636 47.1653C80.8164 52.2083 71.8734 56.6187 62.7251 60.2428C57.7491 62.2087 52.0037 64.0379 46.6686 62.431C45.1468 61.9694 42.8212 61.2343 42.8896 59.1488C42.9238 58.0205 43.9327 56.5333 44.4286 55.5418C45.7111 53.0459 47.2842 50.7381 49.0968 48.6013C55.663 40.8744 64.7428 35.2331 73.532 30.3611C83.0907 25.0446 93.2478 20.8393 103.781 17.8648C109.373 16.2921 115.186 14.8049 121.052 14.9416C122.214 14.9758 123.907 14.8391 124.95 15.369C127.584 16.6853 126.113 18.9076 124.899 20.4974C123.309 22.583 121.548 24.5489 119.667 26.378C112.519 33.3527 103.661 38.2931 94.5474 42.2249C90.2212 44.0882 84.4415 47.1482 80.0811 43.9173C80.1324 44.3276 80.1837 44.7379 80.235 45.1481C93.3162 33.0792 109.39 24.6686 126.934 21.4547C126.677 21.0274 126.421 20.5829 126.164 20.1555C114.554 29.4551 102.259 38.8231 87.964 43.6267C84.698 44.7208 81.3465 45.5755 77.9266 46.0883C76.3876 46.3277 74.6093 46.6354 73.0532 46.2593C69.582 45.4046 69.8727 41.8317 71.1552 39.3188C72.7625 36.1563 75.7037 33.8485 78.3541 31.592C81.4662 28.9423 84.7493 26.4635 88.2034 24.2583C94.1541 20.4632 100.703 17.4375 107.697 16.2066C113.87 15.1297 121.992 15.01 126.9 19.5914C133.226 25.4891 128.387 34.1733 123.377 39.0282C118.179 44.0712 111.784 47.7294 104.961 50.0543C98.6341 52.2083 91.9824 53.2511 85.3307 53.4733C78.4396 53.6955 71.7537 53.1143 68.5389 46.2251C66.1279 41.0625 66.2134 34.5323 68.4876 29.3183C71.2578 22.9933 77.0032 18.5315 83.1249 15.7109C89.7424 12.6509 97.3517 10.7534 104.653 10.856C108.107 10.9073 113.648 11.2321 116.52 13.4715C119.803 16.0357 118.418 22.4975 117.341 25.7797C114.845 33.3869 108.74 38.7205 102.14 42.8061C95.4194 46.9773 88.2376 50.5159 80.9019 53.4733C74.9684 55.8666 68.3338 58.2085 61.8359 57.1316C58.5528 56.5845 54.9106 54.9093 53.0639 51.986C50.8409 48.4987 54.7225 43.2506 56.8087 40.4642C65.3413 29.1132 78.3028 20.2581 91.1445 14.5655C97.4372 11.7791 104.072 9.69353 110.843 8.41142C114.178 7.77891 117.666 7.1635 121.069 7.12931C122.591 7.11221 124.66 7.28316 125.566 8.71912C126.797 10.6679 124.643 13.8988 123.668 15.6083C116.332 28.2585 101.9 36.7546 88.7506 42.2249C85.382 43.6267 81.9279 44.8917 78.4054 45.8661C75.584 46.6525 71.6853 47.4217 69.3939 45.0456C63.8366 39.2675 74.6777 29.6773 78.508 26.0361C88.0837 16.9417 102.687 7.76182 116.572 11.0953C126.216 13.4031 121.069 24.1557 117.751 29.8312C114.434 35.4725 109.971 40.3616 104.91 44.4985C100.053 48.4816 94.6499 51.7638 89.0584 54.6186C86.5961 55.8837 84.0995 57.0461 81.5688 58.1573C80.0298 58.824 77.9608 60.0548 76.2166 59.8838C73.8911 59.6445 74.6093 58.8752 75.0539 57.6102C75.4472 56.4649 75.9088 55.3366 76.4218 54.2255C81.7911 42.6181 92.6322 34.7203 104.055 29.6773C106.842 28.4465 109.783 27.1644 112.758 26.4464C115.221 25.8652 117.837 25.7797 119.803 27.6089C122.334 29.9509 121.342 32.9424 119.889 35.5579C116.64 41.4556 112.211 46.8234 107.201 51.3364C102.276 55.764 96.4283 59.7471 90.1699 62.0207C89.4517 62.2771 88.6651 62.5677 87.8956 62.5848C85.7753 62.619 85.1939 60.3967 85.9976 58.7385C86.7842 57.1145 88.1008 55.6101 89.2465 54.2426C91.7088 51.3193 94.5474 48.6867 97.6766 46.4986C100.276 44.6866 103.097 43.0967 106.072 41.9514C106.996 41.5924 108.706 40.6351 109.116 42.6694C109.27 43.4386 108.381 45.1823 108.124 45.7635C107.321 47.5072 106.346 49.1825 105.183 50.721C104.106 52.1741 102.858 53.5246 101.49 54.7041C100.652 55.4221 99.2497 56.9948 97.9502 55.8495C97.4543 55.405 97.5056 54.1571 97.5398 53.5588C97.7108 49.986 102.054 44.396 105.525 48.1739C107.902 50.7552 108.176 55.0118 108.364 58.3111C108.586 62.3626 108.261 66.397 107.492 70.3629C107.269 71.3202 108.774 71.7476 108.979 70.7561Z" fill="#4F3422"/>
<path d="M191.519 203.07C189.074 204.591 187.928 207.583 188.8 210.335C189.108 211.292 190.613 210.882 190.305 209.925C189.638 207.839 190.425 205.6 192.306 204.42C193.161 203.89 192.374 202.523 191.519 203.07Z" fill="#4F3422"/>
<path d="M204.327 204.95C201.488 206.061 199.607 208.66 199.487 211.72C199.453 212.728 201.026 212.728 201.061 211.72C201.146 209.412 202.583 207.309 204.737 206.472C205.678 206.095 205.267 204.591 204.327 204.95Z" fill="#4F3422"/>
<path d="M166.451 203.412C167.819 201.155 170.23 199.907 172.863 200.027C173.872 200.078 173.872 198.506 172.863 198.454C169.683 198.3 166.742 199.907 165.1 202.625C164.587 203.48 165.938 204.267 166.451 203.412Z" fill="#4F3422"/>
<path d="M208.448 190.385C213.441 187.684 218.896 185.975 224.538 185.257C227.445 184.881 230.369 184.761 233.293 184.898C234.747 184.966 236.183 185.086 237.62 185.274C238.645 185.411 241.45 185.479 242.305 186.129C244.015 187.445 240.133 187.565 239.193 187.667C237.808 187.821 236.44 187.924 235.055 188.026C232.131 188.232 229.207 188.385 226.283 188.608C220.828 189.052 215.39 189.804 210.26 191.821C209.457 192.146 209.542 193.309 210.465 193.36C217.391 193.719 224.265 191.65 231.156 192.796C237.329 193.821 243.091 196.864 247.076 201.702C247.076 201.326 247.076 200.967 247.076 200.591C245.109 202.796 241.125 201.651 238.628 201.224C235.55 200.694 232.49 200.095 229.446 199.429C223.376 198.095 217.391 196.471 211.457 194.625C210.5 194.317 210.089 195.839 211.047 196.129C218.229 198.386 225.513 200.266 232.883 201.753C235.961 202.369 239.107 203.087 242.219 203.36C244.374 203.548 246.648 203.412 248.17 201.719C248.478 201.377 248.444 200.95 248.17 200.608C244.203 195.787 238.492 192.659 232.387 191.445C225.051 189.992 217.801 192.197 210.448 191.804C210.517 192.317 210.585 192.83 210.654 193.343C217.835 190.505 225.564 190.214 233.174 189.719C234.627 189.616 247.435 189.855 244.442 185.599C243.262 183.924 239.5 183.958 237.688 183.718C234.165 183.257 230.592 183.154 227.052 183.428C220.263 183.941 213.646 185.787 207.644 189.035C206.772 189.514 207.559 190.864 208.448 190.385Z" fill="#4F3422"/>
</svg>
