<svg width="24" height="24" viewBox="0 0 24 24" fill="none" xmlns="http://www.w3.org/2000/svg">
<path fill-rule="evenodd" clip-rule="evenodd" d="M2 12C2 6.47715 6.47715 2 12 2C17.5228 2 22 6.47715 22 12C22 17.5228 17.5228 22 12 22C6.47715 22 2 17.5228 2 12ZM8.49999 11C9.32841 11 9.99999 10.3284 9.99999 9.5C9.99999 8.67157 9.32841 8 8.49999 8C7.67156 8 6.99999 8.67157 6.99999 9.5C6.99999 10.3284 7.67156 11 8.49999 11ZM15.5 11C16.3284 11 17 10.3284 17 9.5C17 8.67157 16.3284 8 15.5 8C14.6716 8 14 8.67157 14 9.5C14 10.3284 14.6716 11 15.5 11ZM8.99998 17.1962C9.9121 17.7228 10.9468 18 12 18C13.0532 18 14.0879 17.7228 15 17.1962C15.9121 16.6695 16.6695 15.9121 17.1961 15L15.4641 14C15.113 14.6081 14.6081 15.113 14 15.4641C13.3919 15.8152 12.7021 16 12 16C11.2978 16 10.6081 15.8152 9.99999 15.4641C9.39191 15.113 8.88696 14.6081 8.53588 14L6.80383 15C7.33044 15.9121 8.08787 16.6695 8.99998 17.1962Z" fill="#C9C7C5"/>
</svg>
