<svg width="53" height="38" viewBox="0 0 53 38" fill="none" xmlns="http://www.w3.org/2000/svg">
<path fill-rule="evenodd" clip-rule="evenodd" d="M49.2143 -1.65479e-07C51.3051 -2.5687e-07 53 1.69492 53 3.78571L53 15.1429C53 17.2336 51.3051 18.9286 49.2143 18.9286C47.1235 18.9286 45.4286 17.2336 45.4286 15.1429L45.4286 3.78571C45.4286 1.69492 47.1235 -7.40874e-08 49.2143 -1.65479e-07Z" fill="#705600"/>
<path fill-rule="evenodd" clip-rule="evenodd" d="M3.78571 -1.65479e-07C5.87651 -2.5687e-07 7.57143 1.69492 7.57143 3.78571L7.57143 15.1429C7.57143 17.2336 5.87651 18.9286 3.78572 18.9286C1.69492 18.9286 7.53307e-07 17.2336 6.61915e-07 15.1429L1.65479e-07 3.78571C7.40874e-08 1.69492 1.69492 -7.40874e-08 3.78571 -1.65479e-07Z" fill="#705600"/>
<path fill-rule="evenodd" clip-rule="evenodd" d="M0 34.0714C0 31.9806 1.69492 30.2857 3.78571 30.2857H49.2143C51.3051 30.2857 53 31.9806 53 34.0714C53 36.1622 51.3051 37.8571 49.2143 37.8571H3.78571C1.69492 37.8571 0 36.1622 0 34.0714Z" fill="#705600"/>
</svg>
