<svg width="34" height="32" viewBox="0 0 34 32" fill="none" xmlns="http://www.w3.org/2000/svg">
<path d="M30.074 17.178C29.1169 16.6946 28.0536 16.4433 27.0096 16.4433C24.7379 16.4433 22.8238 17.6227 22.0118 19.5174C21.3641 21.0254 21.4511 23.3164 22.2148 24.7181C22.7078 25.6268 23.8195 26.5935 25.4822 26.5935C25.8109 26.5935 26.1492 26.5548 26.4876 26.4872C27.4059 26.2938 28.7013 24.9211 29.0106 23.8288C29.2426 23.0071 28.3533 21.6054 27.4349 20.948C27.3672 20.8997 27.2899 20.8997 27.2319 20.8997C27.1159 20.8997 26.5359 20.9191 26.2556 21.2767C26.1589 21.3927 26.0526 21.6054 26.1202 21.9147L26.1396 21.9921L26.1976 22.0404C26.7872 22.6108 27.0966 23.2971 26.9709 23.7514C26.8839 24.0608 26.6132 24.2734 26.1589 24.3895C25.7239 24.3121 25.1052 23.9448 24.8925 23.6838C24.4962 23.1908 24.1385 21.9824 24.3029 21.3251C24.5929 20.165 25.7722 19.353 27.1836 19.353C28.1599 19.353 29.0299 19.7687 29.5713 20.4937C30.4606 21.6924 31.0986 23.9738 30.5766 25.1048C29.929 26.5258 28.1213 28.0049 26.3716 28.5462C25.9269 28.6815 25.4725 28.7492 25.0375 28.7492C23.3362 28.7492 21.6735 27.6955 20.3685 25.7911C18.7928 23.5001 18.7058 21.0931 20.1074 18.8117C20.6971 17.8643 21.5091 17.0136 22.3018 16.192C22.6788 15.8053 23.0655 15.4089 23.4232 15.0029C25.8689 12.2286 26.4586 9.02883 25.1922 5.4811C24.1095 2.43604 21.7218 0.570339 18.2901 0.0676632C17.9711 0.019329 17.6521 0 17.3331 0C14.3073 0 11.417 1.9527 10.3053 4.73675C9.17424 7.56914 10.0539 10.6625 12.49 12.4412C13.418 13.1179 14.6167 13.4852 15.854 13.4852C17.4684 13.4852 18.9474 12.8472 19.8368 11.7742C21.5575 9.68618 21.5478 7.3178 19.7981 5.75177C19.2084 5.2201 18.1837 5.02676 17.4201 5.02676C17.0334 5.02676 16.695 5.07509 16.434 5.15243C15.8347 5.34576 14.5297 6.56379 14.52 7.3468C14.52 7.64647 14.6843 7.87848 14.9937 7.98481L15.042 8.00415H15.0904C15.216 8.00415 15.2934 7.92681 15.4384 7.79148C15.738 7.50147 16.3664 6.91179 17.2267 6.91179C17.5457 6.91179 17.8841 6.99879 18.2127 7.16313C18.4931 7.30813 18.5511 7.65614 18.5608 7.85914C18.5898 8.55516 18.1451 9.56051 17.3621 10.0342C16.9271 10.2952 16.26 10.4595 15.622 10.4595C15.2547 10.4595 14.9164 10.4112 14.6553 10.3049C13.7273 9.95685 13.0893 9.2125 12.838 8.19748C12.5286 6.93113 12.9153 5.5101 13.8337 4.48541C14.752 3.47039 16.028 2.90972 17.4297 2.90972C19.1408 2.90972 20.7841 3.7604 21.8185 5.19109C23.1622 7.03746 23.3652 9.4155 22.3598 11.5422C21.3448 13.7076 19.3244 15.0803 16.9657 15.2253C16.8014 15.2349 16.6274 15.2349 16.4534 15.2349C15.1967 15.2349 13.8917 14.9739 12.635 14.7226C11.8036 14.5583 10.9433 14.3843 10.1023 14.2876C9.75425 14.2489 9.39658 14.2296 9.04858 14.2296C4.58249 14.2296 0.735087 17.497 0.087408 21.8181C-0.540937 26.0328 2.28178 29.9866 6.51586 30.8276C6.95087 30.9146 7.40521 30.9629 7.84022 30.9629C10.7016 30.9629 13.186 29.1842 14.1623 26.4292C15.1774 23.5774 13.998 20.6097 11.475 19.672C10.9143 19.469 10.2473 19.3627 9.53192 19.3627C8.56523 19.3627 7.60821 19.556 6.8252 19.8944C5.83918 20.3294 4.96917 22.0017 5.08517 23.2584C5.23017 24.9405 6.04219 25.3561 6.81553 25.7525L6.90253 25.8008C7.17321 25.9361 7.67588 26.1005 8.20756 26.1005C9.02924 26.1005 9.57058 25.7235 9.72525 25.0371L9.73492 25.0081C9.85092 23.9061 8.93257 23.4421 8.32356 23.1231C8.13022 23.0264 7.80155 22.8621 7.78222 22.7751C7.78222 22.6494 8.04322 22.5624 8.41056 22.5624C9.27091 22.5624 10.4309 22.9974 10.7403 23.6161C11.1269 24.4088 11.2236 25.7331 10.6339 26.6225C9.96692 27.6182 9.07757 28.1208 7.96589 28.1208C7.13454 28.1208 6.19685 27.8212 5.25917 27.2702C3.05513 25.9555 2.29145 22.9394 3.54814 20.542C4.80483 18.1447 6.92187 16.9556 9.62859 17.12C12.5866 17.294 14.7713 18.9277 15.9604 21.8471C16.231 22.5237 16.434 23.2488 16.6274 23.9448C16.8787 24.8728 17.1494 25.8298 17.5844 26.6998C19.1794 29.8609 21.9925 31.6009 25.5112 31.6009C25.6369 31.6009 25.7722 31.6009 25.8979 31.5912C29.552 31.4656 32.191 29.6095 33.5154 26.2262C34.8494 22.8041 33.3414 18.831 30.074 17.178Z" fill="white"/>
</svg>
