<svg width="20" height="20" viewBox="0 0 20 20" fill="none" xmlns="http://www.w3.org/2000/svg">
<path d="M14.6 7.37999C14.6937 7.28622 14.7464 7.15907 14.7464 7.02649C14.7464 6.89391 14.6937 6.76675 14.6 6.67299L13.327 5.39999C13.2809 5.35223 13.2257 5.31414 13.1647 5.28794C13.1037 5.26173 13.0381 5.24794 12.9717 5.24736C12.9053 5.24679 12.8394 5.25944 12.778 5.28458C12.7166 5.30972 12.6607 5.34684 12.6138 5.39379C12.5668 5.44074 12.5297 5.49656 12.5046 5.55801C12.4794 5.61946 12.4668 5.6853 12.4674 5.75169C12.4679 5.81808 12.4817 5.88369 12.5079 5.94469C12.5341 6.00569 12.5722 6.06086 12.62 6.10699L13.893 7.37999C13.9867 7.47372 14.1139 7.52638 14.2465 7.52638C14.3791 7.52638 14.5062 7.47372 14.6 7.37999ZM7.80998 13.461C7.85773 13.5071 7.89582 13.5623 7.92203 13.6233C7.94823 13.6843 7.96203 13.7499 7.9626 13.8163C7.96318 13.8827 7.95053 13.9485 7.92539 14.01C7.90025 14.0714 7.86312 14.1272 7.81618 14.1742C7.76923 14.2211 7.7134 14.2583 7.65196 14.2834C7.59051 14.3085 7.52467 14.3212 7.45828 14.3206C7.39189 14.32 7.32628 14.3062 7.26528 14.28C7.20427 14.2538 7.1491 14.2157 7.10298 14.168L5.83098 12.896C5.73709 12.8022 5.68429 12.675 5.6842 12.5423C5.68411 12.4097 5.73672 12.2824 5.83048 12.1885C5.92423 12.0946 6.05144 12.0418 6.18412 12.0417C6.31681 12.0416 6.44409 12.0942 6.53798 12.188L7.80998 13.461ZM17.17 2.84699C16.8951 2.57213 16.5222 2.41772 16.1335 2.41772C15.7447 2.41772 15.3719 2.57213 15.097 2.84699L14.477 3.46699L14.232 3.22299C14.0388 3.02964 13.8051 2.88156 13.5477 2.78942C13.2904 2.69729 13.0158 2.66339 12.7437 2.69017C12.4717 2.71695 12.209 2.80375 11.9746 2.9443C11.7401 3.08486 11.5398 3.27567 11.388 3.50299C10.9082 3.39882 10.4076 3.45281 9.96102 3.65687C9.51447 3.86093 9.146 4.20409 8.91072 4.63501C8.67545 5.06593 8.58603 5.56145 8.65583 6.04742C8.72564 6.5334 8.95092 6.98371 9.29798 7.33099L9.95598 7.98799L7.98698 9.95699L7.32898 9.29899C6.9817 8.95193 6.53139 8.72665 6.04541 8.65684C5.55944 8.58704 5.06392 8.67646 4.633 8.91173C4.20208 9.14701 3.85892 9.51548 3.65486 9.96203C3.4508 10.4086 3.39682 10.9092 3.50098 11.389C3.2741 11.5411 3.08372 11.7416 2.94348 11.9761C2.80325 12.2105 2.71664 12.4731 2.68988 12.7449C2.66311 13.0168 2.69685 13.2912 2.78868 13.5485C2.8805 13.8057 3.02813 14.0395 3.22098 14.233L3.46598 14.478L2.82898 15.115C2.55395 15.3899 2.39939 15.7628 2.39929 16.1516C2.3992 16.5405 2.55358 16.9135 2.82848 17.1885C3.10337 17.4635 3.47627 17.6181 3.86512 17.6182C4.25398 17.6183 4.62695 17.4639 4.90198 17.189L5.53998 16.551L5.78398 16.795C5.9772 16.9883 6.2109 17.1364 6.46825 17.2286C6.7256 17.3207 7.00019 17.3546 7.27222 17.3278C7.54425 17.301 7.80695 17.2142 8.04139 17.0737C8.27583 16.9331 8.47617 16.7423 8.62798 16.515C9.10777 16.6191 9.60838 16.5652 10.0549 16.3611C10.5015 16.157 10.87 15.8139 11.1052 15.383C11.3405 14.952 11.4299 14.4565 11.3601 13.9706C11.2903 13.4846 11.065 13.0343 10.718 12.687L10.06 12.03L12.029 10.062L12.687 10.719C13.0343 11.0656 13.4845 11.2905 13.9703 11.36C14.456 11.4296 14.9512 11.34 15.3819 11.1048C15.8126 10.8697 16.1556 10.5014 16.3596 10.0551C16.5637 9.60889 16.6178 9.10858 16.514 8.62899C16.7409 8.47683 16.9312 8.27635 17.0715 8.04191C17.2117 7.80748 17.2983 7.54492 17.3251 7.27306C17.3518 7.0012 17.3181 6.72679 17.2263 6.46951C17.1345 6.21223 16.9868 5.97847 16.794 5.78499L16.549 5.54099L17.169 4.92099C17.3052 4.78484 17.4133 4.62318 17.487 4.44525C17.5608 4.26732 17.5987 4.0766 17.5987 3.88399C17.5987 3.69138 17.5608 3.50066 17.487 3.32272C17.4133 3.14479 17.3052 2.98313 17.169 2.84699H17.17ZM15.842 4.83399L15.183 4.17399L15.803 3.55399C15.8905 3.46647 16.0092 3.4173 16.133 3.4173C16.2568 3.4173 16.3755 3.46647 16.463 3.55399C16.5505 3.64151 16.5997 3.76021 16.5997 3.88399C16.5997 4.00776 16.5505 4.12647 16.463 4.21399L15.843 4.83399H15.842ZM11.322 9.35399L9.35298 11.323L8.69398 10.664L10.663 8.69599L11.322 9.35399ZM4.83198 15.844L4.19498 16.481C4.10759 16.5685 3.98901 16.6177 3.86533 16.6178C3.74165 16.6179 3.623 16.5689 3.53548 16.4815C3.44796 16.3941 3.39873 16.2755 3.39864 16.1518C3.39855 16.0282 3.44759 15.9095 3.53498 15.822L4.17398 15.185L4.83198 15.844ZM12.326 3.92999C12.4047 3.85113 12.4983 3.78857 12.6012 3.74589C12.7042 3.70321 12.8145 3.68124 12.926 3.68124C13.0374 3.68124 13.1478 3.70321 13.2507 3.74589C13.3537 3.78857 13.4472 3.85113 13.526 3.92999L16.088 6.49199C16.1908 6.59446 16.2656 6.72161 16.3052 6.86128C16.3448 7.00094 16.3479 7.14843 16.3142 7.28963C16.2805 7.43083 16.2111 7.56101 16.1126 7.66771C16.0142 7.7744 15.89 7.85404 15.752 7.89899C15.685 7.9208 15.6234 7.95652 15.5712 8.00379C15.519 8.05107 15.4774 8.10884 15.4491 8.17332C15.4207 8.2378 15.4064 8.30754 15.4069 8.37797C15.4074 8.44839 15.4227 8.51792 15.452 8.58199C15.5758 8.85331 15.6005 9.15952 15.5217 9.44717C15.4428 9.73482 15.2655 9.98566 15.0206 10.1559C14.7757 10.3262 14.4788 10.405 14.1817 10.3787C13.8846 10.3524 13.6062 10.2226 13.395 10.012L10.005 6.62299C9.79435 6.41181 9.66456 6.13338 9.63826 5.83628C9.61195 5.53918 9.69081 5.24227 9.86106 4.99738C10.0313 4.75248 10.2821 4.57514 10.5698 4.49629C10.8574 4.41745 11.1637 4.44212 11.435 4.56599C11.4991 4.5954 11.5687 4.61091 11.6393 4.6115C11.7098 4.61209 11.7797 4.59774 11.8443 4.56941C11.9089 4.54108 11.9667 4.49939 12.0141 4.4471C12.0614 4.3948 12.0972 4.33308 12.119 4.26599C12.1604 4.13917 12.2313 4.02401 12.326 3.92999ZM4.82298 10.006C5.0617 9.76734 5.38543 9.63328 5.72298 9.63328C6.06053 9.63328 6.38426 9.76734 6.62298 10.006L10.012 13.395C10.2226 13.6062 10.3524 13.8846 10.3787 14.1817C10.405 14.4788 10.3261 14.7757 10.1559 15.0206C9.98565 15.2655 9.73481 15.4428 9.44716 15.5217C9.15951 15.6005 8.8533 15.5759 8.58198 15.452C8.51786 15.4226 8.44824 15.4071 8.3777 15.4065C8.30716 15.4059 8.23729 15.4202 8.17269 15.4486C8.10808 15.4769 8.05021 15.5186 8.00286 15.5709C7.95552 15.6232 7.91977 15.6849 7.89798 15.752C7.85295 15.8898 7.77332 16.0138 7.6667 16.1121C7.56009 16.2104 7.43004 16.2797 7.289 16.3134C7.14796 16.3471 7.00063 16.3441 6.86109 16.3046C6.72155 16.2652 6.59447 16.1906 6.49198 16.088L3.92998 13.526C3.82739 13.4235 3.75279 13.2964 3.71332 13.1569C3.67385 13.0173 3.67083 12.87 3.70453 12.729C3.73824 12.5879 3.80755 12.4579 3.90584 12.3513C4.00414 12.2446 4.12813 12.165 4.26598 12.12C4.33307 12.0982 4.39479 12.0624 4.44709 12.0151C4.49938 11.9678 4.54107 11.9099 4.5694 11.8453C4.59773 11.7807 4.61208 11.7108 4.61149 11.6403C4.6109 11.5697 4.59539 11.5001 4.56598 11.436C4.45784 11.1999 4.4245 10.9363 4.47043 10.6807C4.51637 10.4251 4.63939 10.1897 4.82298 10.006Z" fill="#0070F0"/>
</svg>
