<svg width="24" height="24" viewBox="0 0 24 24" fill="none" xmlns="http://www.w3.org/2000/svg">
<path fill-rule="evenodd" clip-rule="evenodd" d="M5 7C5 4.94968 6.2341 3.1876 8 2.41604V3C8 3.52529 8.10346 4.04543 8.30448 4.53073C8.5055 5.01604 8.80014 5.45699 9.17157 5.82843C9.54301 6.19986 9.98396 6.4945 10.4693 6.69552C10.9546 6.89654 11.4747 7 12 7C12.5253 7 13.0454 6.89654 13.5307 6.69552C14.016 6.4945 14.457 6.19986 14.8284 5.82843C15.1999 5.45699 15.4945 5.01604 15.6955 4.53073C15.8965 4.04543 16 3.52529 16 3V2.41604C17.7659 3.1876 19 4.94968 19 7V17C19 19.7614 16.7614 22 14 22H10C7.23858 22 5 19.7614 5 17V7ZM12 20C12.5523 20 13 19.5523 13 19C13 18.4477 12.5523 18 12 18C11.4477 18 11 18.4477 11 19C11 19.5523 11.4477 20 12 20Z" fill="#C9C7C5"/>
<path d="M10 2H14V3C14 3.26264 13.9483 3.52272 13.8478 3.76537C13.7472 4.00802 13.5999 4.2285 13.4142 4.41421C13.2285 4.59993 13.008 4.74725 12.7654 4.84776C12.5227 4.94827 12.2626 5 12 5C11.7374 5 11.4773 4.94827 11.2346 4.84776C10.992 4.74725 10.7715 4.59993 10.5858 4.41421C10.4001 4.2285 10.2528 4.00802 10.1522 3.76537C10.0517 3.52272 10 3.26264 10 3V2Z" fill="#C9C7C5"/>
</svg>
