<svg width="31" height="31" viewBox="0 0 31 31" fill="none" xmlns="http://www.w3.org/2000/svg">
<path d="M29.4046 12.0566L28.4711 12.9856L28.4745 12.989L29.4046 12.0566ZM20.9788 3.58948L21.9123 2.66051L21.91 2.65819L20.9788 3.58948ZM10.0212 3.58948L9.08997 2.65819L9.08766 2.66051L10.0212 3.58948ZM1.59536 12.0566L2.52549 12.989L2.52889 12.9856L1.59536 12.0566ZM2.26376 13.6747V12.3577L2.25693 12.3578L2.26376 13.6747ZM3.69169 13.6747H5.00868V12.3577H3.69169V13.6747ZM3.69169 22.9051H2.3747L2.37471 22.9071L3.69169 22.9051ZM10.4364 29.6829L10.4344 30.9999H10.4364V29.6829ZM11.8846 29.6829V31L11.8987 30.9998L11.8846 29.6829ZM12.8264 28.7263H11.5094V28.7264L12.8264 28.7263ZM12.8264 20.9512V19.6342H11.5094V20.9512H12.8264ZM18.1736 20.9512H19.4906V19.6342H18.1736V20.9512ZM18.1736 28.7263L19.4906 28.7264V28.7263H18.1736ZM19.1154 29.6829L19.1013 30.9999H19.1154V29.6829ZM20.5636 29.6829V30.9999L20.5656 30.9999L20.5636 29.6829ZM27.3083 22.9051L28.6253 22.9071V22.9051H27.3083ZM27.3083 13.6747V12.3577H25.9913V13.6747H27.3083ZM28.7362 13.6747L28.7431 12.3577H28.7362V13.6747ZM30.3382 11.1276L21.9123 2.66051L20.0453 4.51845L28.4711 12.9856L30.3382 11.1276ZM21.91 2.65819C18.3655 -0.88608 12.6345 -0.88608 9.08998 2.65819L10.9524 4.52077C13.4684 2.00503 17.5316 2.00503 20.0476 4.52077L21.91 2.65819ZM9.08766 2.66051L0.661839 11.1276L2.52889 12.9856L10.9547 4.51845L9.08766 2.66051ZM0.665246 11.1242C0.0157618 11.7721 -0.177761 12.7477 0.171799 13.5939L2.60626 12.5883C2.66258 12.7247 2.63213 12.8826 2.52548 12.989L0.665246 11.1242ZM0.171799 13.5939C0.521779 14.4412 1.34956 14.9965 2.27059 14.9917L2.25693 12.3578C2.41307 12.3569 2.54953 12.451 2.60626 12.5883L0.171799 13.5939ZM2.26376 14.9917H3.69169V12.3577H2.26376V14.9917ZM2.3747 13.6747V22.9051H5.00868V13.6747H2.3747ZM2.37471 22.9071C2.38136 27.3678 5.97988 30.9932 10.4344 30.9999L10.4384 28.3659C7.44755 28.3614 5.01319 25.9243 5.00868 22.9032L2.37471 22.9071ZM10.4364 30.9999H11.8846V28.3659H10.4364V30.9999ZM11.8987 30.9998C13.1483 30.9865 14.1435 29.9665 14.1434 28.7262L11.5094 28.7264C11.5094 28.5348 11.6645 28.3682 11.8705 28.366L11.8987 30.9998ZM14.1434 28.7263V20.9512H11.5094V28.7263H14.1434ZM12.8264 22.2682H18.1736V19.6342H12.8264V22.2682ZM16.8566 20.9512V28.7263H19.4906V20.9512H16.8566ZM16.8566 28.7262C16.8565 29.9665 17.8517 30.9865 19.1013 30.9998L19.1295 28.366C19.3355 28.3682 19.4906 28.5348 19.4906 28.7264L16.8566 28.7262ZM19.1154 30.9999H20.5636V28.3659H19.1154V30.9999ZM20.5656 30.9999C25.0201 30.9932 28.6186 27.3678 28.6253 22.9071L25.9913 22.9032C25.9868 25.9243 23.5525 28.3614 20.5616 28.3659L20.5656 30.9999ZM28.6253 22.9051V13.6747H25.9913V22.9051H28.6253ZM27.3083 14.9917H28.7362V12.3577H27.3083V14.9917ZM28.7294 14.9917C29.6504 14.9965 30.4782 14.4412 30.8282 13.5939L28.3937 12.5883C28.4505 12.451 28.5869 12.3569 28.7431 12.3578L28.7294 14.9917ZM30.8282 13.5939C31.1778 12.7477 30.9842 11.7721 30.3348 11.1242L28.4745 12.989C28.3679 12.8826 28.3374 12.7247 28.3937 12.5883L30.8282 13.5939Z" fill="#D9D8D8"/>
</svg>
