<svg width="24" height="24" viewBox="0 0 24 24" fill="none" xmlns="http://www.w3.org/2000/svg">
<path d="M12 1.44C10.9406 1.44 10.08 2.30063 10.08 3.36C10.08 4.2525 10.695 4.99688 11.52 5.2125V6.72H7.21496C5.08871 6.72 3.35996 8.44875 3.35996 10.575V12.48H0.959961V18.24H3.35996V22.56H20.64V18.24H23.04V12.48H20.64V10.575C20.64 8.44875 18.9112 6.72 16.785 6.72H12.48V5.2125C13.3068 4.99688 13.92 4.2525 13.92 3.36C13.92 2.30063 13.0593 1.44 12 1.44ZM12 2.4C12.5287 2.4 12.96 2.83125 12.96 3.36C12.96 3.88875 12.5287 4.32 12 4.32C11.4712 4.32 11.04 3.88875 11.04 3.36C11.04 2.83125 11.4712 2.4 12 2.4ZM7.21496 7.68H16.785C18.3806 7.68 19.68 8.97938 19.68 10.575V21.6H16.8V17.76H7.19996V21.6H4.31996V10.575C4.31996 8.97938 5.61934 7.68 7.21496 7.68ZM8.87996 10.56C7.68934 10.56 6.71996 11.5294 6.71996 12.72C6.71996 13.9106 7.68934 14.88 8.87996 14.88C10.0706 14.88 11.04 13.9106 11.04 12.72C11.04 11.5294 10.0706 10.56 8.87996 10.56ZM15.12 10.56C13.9293 10.56 12.96 11.5294 12.96 12.72C12.96 13.9106 13.9293 14.88 15.12 14.88C16.3106 14.88 17.28 13.9106 17.28 12.72C17.28 11.5294 16.3106 10.56 15.12 10.56ZM8.87996 11.52C9.54184 11.52 10.08 12.0581 10.08 12.72C10.08 13.3819 9.54184 13.92 8.87996 13.92C8.21809 13.92 7.67996 13.3819 7.67996 12.72C7.67996 12.0581 8.21809 11.52 8.87996 11.52ZM15.12 11.52C15.7818 11.52 16.32 12.0581 16.32 12.72C16.32 13.3819 15.7818 13.92 15.12 13.92C14.4581 13.92 13.92 13.3819 13.92 12.72C13.92 12.0581 14.4581 11.52 15.12 11.52ZM1.91996 13.44H3.35996V17.28H1.91996V13.44ZM20.64 13.44H22.08V17.28H20.64V13.44ZM8.15996 18.72H10.08V21.6H8.15996V18.72ZM11.04 18.72H12.96V21.6H11.04V18.72ZM13.92 18.72H15.84V21.6H13.92V18.72Z" fill="black"/>
</svg>
