<svg width="24" height="24" viewBox="0 0 24 24" fill="none" xmlns="http://www.w3.org/2000/svg">
<path d="M4.58818 8.11939L5.31435 8.30697L4.58818 8.11939ZM8.08799 4.82533L8.22926 5.56191L8.08799 4.82533ZM10.1526 13.5436L9.94105 12.8241L10.1526 13.5436ZM11.2594 14.6503L10.5398 14.4387L11.2594 14.6503ZM16.6836 20.2148L16.8712 20.941L16.6836 20.2148ZM19.9777 16.715L20.7142 16.8563L19.9777 16.715ZM21.7323 7.56593L20.9957 7.42466L21.7323 7.56593ZM17.237 3.07069L17.0958 2.33411L17.237 3.07069ZM6.0052 17.7371C5.71231 18.03 5.71231 18.5049 6.0052 18.7978C6.2981 19.0907 6.77297 19.0907 7.06586 18.7978L6.0052 17.7371ZM8.48008 17.3836C8.77297 17.0907 8.77297 16.6158 8.48008 16.3229C8.18718 16.03 7.71231 16.03 7.41942 16.3229L8.48008 17.3836ZM6.71231 21.2727C6.41942 21.5656 6.41942 22.0404 6.71231 22.3333C7.0052 22.6262 7.48008 22.6262 7.77297 22.3333L6.71231 21.2727ZM9.18718 20.9191C9.48008 20.6262 9.48008 20.1514 9.18718 19.8585C8.89429 19.5656 8.41942 19.5656 8.12652 19.8585L9.18718 20.9191ZM2.46967 17.03C2.17678 17.3229 2.17678 17.7978 2.46967 18.0907C2.76256 18.3836 3.23744 18.3836 3.53033 18.0907L2.46967 17.03ZM4.94454 16.6765C5.23744 16.3836 5.23744 15.9087 4.94454 15.6158C4.65165 15.3229 4.17678 15.3229 3.88388 15.6158L4.94454 16.6765ZM20.9957 7.42466L19.2411 16.5737L20.7142 16.8563L22.4689 7.70719L20.9957 7.42466ZM8.22926 5.56191L17.3783 3.80726L17.0958 2.33411L7.94673 4.08876L8.22926 5.56191ZM5.31435 8.30697C5.67585 6.90754 6.81437 5.83326 8.22926 5.56191L7.94673 4.08876C5.95789 4.47018 4.36735 5.97563 3.86202 7.9318L5.31435 8.30697ZM9.94105 12.8241C7.18864 13.6335 4.59178 11.1041 5.31435 8.30697L3.86202 7.9318C2.85311 11.8374 6.47515 15.4068 10.3642 14.2631L9.94105 12.8241ZM11.9789 14.8619C12.3454 13.6155 11.1874 12.4575 9.94105 12.8241L10.3642 14.2631C10.4716 14.2315 10.5714 14.3313 10.5398 14.4387L11.9789 14.8619ZM16.496 19.4887C13.6989 20.2112 11.1695 17.6144 11.9789 14.8619L10.5398 14.4387C9.39617 18.3278 12.9656 21.9499 16.8712 20.941L16.496 19.4887ZM19.2411 16.5737C18.9697 17.9886 17.8955 19.1272 16.496 19.4887L16.8712 20.941C18.8274 20.4357 20.3328 18.8451 20.7142 16.8563L19.2411 16.5737ZM22.4689 7.70719C23.08 4.52059 20.2824 1.72297 17.0958 2.33411L17.3783 3.80726C19.5237 3.39582 21.4072 5.2793 20.9957 7.42466L22.4689 7.70719ZM7.06586 18.7978L8.48008 17.3836L7.41942 16.3229L6.0052 17.7371L7.06586 18.7978ZM7.77297 22.3333L9.18718 20.9191L8.12652 19.8585L6.71231 21.2727L7.77297 22.3333ZM3.53033 18.0907L4.94454 16.6765L3.88388 15.6158L2.46967 17.03L3.53033 18.0907Z" fill="#F2F4F5"/>
</svg>
