<svg width="61" height="60" viewBox="0 0 61 60" fill="none" xmlns="http://www.w3.org/2000/svg">
<path fill-rule="evenodd" clip-rule="evenodd" d="M23.1235 42.2038C25.023 37.618 28.3826 33.7872 32.6812 31.3053C36.9798 28.8235 41.9773 27.8295 46.8984 28.4774C51.8196 29.1253 56.3895 31.3789 59.8993 34.8887C61.3669 36.3563 61.3669 38.7357 59.8993 40.2033C58.4317 41.671 56.0522 41.671 54.5846 40.2033C52.2447 37.8635 49.1982 36.3611 45.9174 35.9291C42.6366 35.4972 39.305 36.1599 36.4392 37.8145C33.5735 39.469 31.3337 42.0229 30.0674 45.0801C28.8011 48.1373 28.5789 51.5269 29.4354 54.7233C29.9725 56.7281 28.7828 58.7887 26.778 59.3259C24.7732 59.8631 22.7126 58.6734 22.1754 56.6686C20.8907 51.8741 21.224 46.7896 23.1235 42.2038Z" fill="#663600"/>
<path fill-rule="evenodd" clip-rule="evenodd" d="M1.87967 23.0522C3.67711 22.0145 5.97549 22.6303 7.01324 24.4278L12.6503 34.1914C13.688 35.9889 13.0722 38.2872 11.2748 39.325C9.47731 40.3627 7.17893 39.7469 6.14118 37.9495L0.504129 28.1858C-0.533623 26.3884 0.0822254 24.09 1.87967 23.0522Z" fill="#663600"/>
<path fill-rule="evenodd" clip-rule="evenodd" d="M40.9343 0.504007C42.7317 -0.533745 45.0301 0.0821028 46.0679 1.87954L51.7049 11.6432C52.7427 13.4406 52.1268 15.739 50.3294 16.7768C48.532 17.8145 46.2336 17.1987 45.1958 15.4012L39.5588 5.63758C38.521 3.84014 39.1369 1.54176 40.9343 0.504007Z" fill="#663600"/>
</svg>
