<svg width="24" height="24" viewBox="0 0 24 24" fill="none" xmlns="http://www.w3.org/2000/svg">
<path d="M12 16.9995C14.7614 16.9995 17 14.7609 17 11.9995C17 9.23809 14.7614 6.99951 12 6.99951C9.23858 6.99951 7 9.23809 7 11.9995C7 14.7609 9.23858 16.9995 12 16.9995Z" fill="white"/>
<path fill-rule="evenodd" clip-rule="evenodd" d="M12 1.99951C6.47715 1.99951 2 6.47666 2 11.9995C2 17.5224 6.47715 21.9995 12 21.9995C17.5228 21.9995 22 17.5224 22 11.9995C22 6.47666 17.5228 1.99951 12 1.99951ZM4 11.9995C4 7.58123 7.58172 3.99951 12 3.99951C16.4183 3.99951 20 7.58123 20 11.9995C20 16.4178 16.4183 19.9995 12 19.9995C7.58172 19.9995 4 16.4178 4 11.9995Z" fill="white"/>
</svg>
