<svg width="17" height="17" viewBox="0 0 17 17" fill="none" xmlns="http://www.w3.org/2000/svg">
<path d="M4.95833 7.79169H6.375V9.20835H4.95833V7.79169ZM14.875 4.25002V14.1667C14.875 14.9459 14.2375 15.5834 13.4583 15.5834H3.54167C3.16594 15.5834 2.80561 15.4341 2.53993 15.1684C2.27426 14.9027 2.125 14.5424 2.125 14.1667L2.13208 4.25002C2.13208 3.47085 2.75542 2.83335 3.54167 2.83335H4.25V1.41669H5.66667V2.83335H11.3333V1.41669H12.75V2.83335H13.4583C14.2375 2.83335 14.875 3.47085 14.875 4.25002ZM3.54167 5.66669H13.4583V4.25002H3.54167V5.66669ZM13.4583 14.1667V7.08335H3.54167V14.1667H13.4583ZM10.625 9.20835H12.0417V7.79169H10.625V9.20835ZM7.79167 9.20835H9.20833V7.79169H7.79167V9.20835Z" fill="#D9D8D8"/>
</svg>
