<svg width="307" height="42" viewBox="0 0 307 42" fill="none" xmlns="http://www.w3.org/2000/svg">
<path d="M200.667 30.3333C205.695 30.3333 208.209 30.3333 209.771 28.7707C211.333 27.2093 211.333 24.6947 211.333 19.6667C211.333 14.6387 211.333 12.124 209.771 10.5627C208.209 9 205.695 9 200.667 9H195.333C190.305 9 187.791 9 186.229 10.5627C184.667 12.124 184.667 14.6387 184.667 19.6667C184.667 24.6947 184.667 27.2093 186.229 28.7707C187.1 29.6427 188.267 30.028 190 30.1973" stroke="#D9D8D8" stroke-width="2.6" stroke-linecap="round" stroke-linejoin="round"/>
<path d="M200.667 30.3334C199.019 30.3334 197.203 31 195.545 31.86C192.881 33.2427 191.549 33.9347 190.893 33.4934C190.237 33.0534 190.361 31.6867 190.611 28.9547L190.667 28.3334" stroke="#D9D8D8" stroke-width="2.6" stroke-linecap="round"/>
<path d="M111 18L118.968 14.017C119.234 13.8837 119.531 13.8208 119.829 13.8342C120.127 13.8476 120.416 13.9369 120.67 14.0937C120.923 14.2504 121.133 14.4693 121.278 14.7297C121.423 14.9901 121.5 15.2833 121.5 15.5815V27.4185C121.5 27.7167 121.423 28.0099 121.278 28.2703C121.133 28.5307 120.923 28.7496 120.67 28.9063C120.416 29.0631 120.127 29.1524 119.829 29.1658C119.531 29.1792 119.234 29.1163 118.968 28.983L111 25V18ZM93.5 32H107.5C108.428 32 109.318 31.6313 109.975 30.9749C110.631 30.3185 111 29.4283 111 28.5V14.5C111 13.5717 110.631 12.6815 109.975 12.0251C109.318 11.3687 108.428 11 107.5 11H93.5C92.5717 11 91.6815 11.3687 91.0251 12.0251C90.3687 12.6815 90 13.5717 90 14.5V28.5C90 29.4283 90.3687 30.3185 91.0251 30.9749C91.6815 31.6313 92.5717 32 93.5 32Z" stroke="#D9D8D8" stroke-width="2.6" stroke-linecap="round" stroke-linejoin="round"/>
<path d="M297.539 10.9692C295.106 10.9692 293.123 12.9524 293.123 15.3846C293.123 17.8167 295.106 19.8 297.539 19.8C299.971 19.8 301.954 17.8167 301.954 15.3846C301.954 12.9524 299.971 10.9692 297.539 10.9692Z" stroke="#D9D8D8" stroke-width="2.36923"/>
<path d="M286.769 8.81538C283.743 8.81538 281.277 11.2812 281.277 14.3077C281.277 17.3342 283.743 19.8 286.769 19.8C289.796 19.8 292.262 17.3342 292.262 14.3077C292.262 11.2812 289.796 8.81538 286.769 8.81538Z" stroke="#D9D8D8" stroke-width="2.36923"/>
<path d="M302.588 21.367L302.588 21.367C301.006 20.2544 298.827 19.5846 296.462 19.5846C294.096 19.5846 291.917 20.2544 290.336 21.367L290.336 21.367C288.764 22.4726 287.738 24.0332 287.738 25.7825V30.4615V31.6461H288.923H302.923C304.172 31.6461 305.185 30.6336 305.185 29.3846V25.7825C305.185 24.0332 304.159 22.4726 302.588 21.367Z" stroke="#D9D8D8" stroke-width="2.36923"/>
<path d="M295.116 22.5476L295.116 22.5476C292.97 21.3736 290.004 20.6615 286.769 20.6615C283.535 20.6615 280.569 21.3736 278.423 22.5476L278.423 22.5476C276.328 23.6936 274.815 25.3827 274.815 27.4164V31.5384C274.815 32.7875 275.828 33.8 277.077 33.8H296.462C297.711 33.8 298.723 32.7875 298.723 31.5384V27.4164C298.723 25.3827 297.21 23.6936 295.116 22.5476Z" fill="white" stroke="#D9D8D8" stroke-width="2.36923"/>
<path fill-rule="evenodd" clip-rule="evenodd" d="M27.7253 17.6011L19.4081 9.24319C16.417 6.25227 11.583 6.25227 8.59187 9.24319L0.274736 17.6011C0.00681765 17.8684 -0.0736672 18.2719 0.0710632 18.6223C0.215794 18.9727 0.556999 19.2003 0.934508 19.1983H2.34402V28.3097C2.34953 32.0023 5.32706 34.9945 9.00172 35H10.4312C10.9463 34.9945 11.3609 34.5733 11.3609 34.0557V26.3809H16.6391V34.0557C16.6391 34.5733 17.0537 34.9945 17.5688 35H18.9983C22.6729 34.9945 25.6505 32.0023 25.656 28.3097V19.1983H27.0655C27.443 19.2003 27.7842 18.9727 27.9289 18.6223C28.0737 18.2719 27.9932 17.8684 27.7253 17.6011ZM9.8381 10.612C10.9414 9.57993 12.4386 8.99997 14 8.99997C15.5613 8.99997 17.0586 9.57993 18.1619 10.612L25 17H2.99999L9.8381 10.612ZM19.1073 33C21.8071 32.9945 23.9944 30.8315 24 28.1616V19H4.00001V28.1616C4.00562 30.8315 6.19289 32.9945 8.89275 33H9.39326V25.2727C9.39886 24.7523 9.82711 24.3333 10.3534 24.3333H17.6466C18.1729 24.3333 18.6011 24.7523 18.6067 25.2727V33H19.1073Z" fill="#371B34"/>
<path d="M27.7253 17.6011L19.4081 9.24319C16.417 6.25227 11.583 6.25227 8.59187 9.24319L0.274736 17.6011C0.00681765 17.8684 -0.0736672 18.2719 0.0710632 18.6223C0.215794 18.9727 0.556999 19.2003 0.934508 19.1983H2.34402V28.3097C2.34953 32.0023 5.32706 34.9945 9.00172 35H10.4312C10.9463 34.9945 11.3609 34.5733 11.3609 34.0557V26.3809H16.6391V34.0557C16.6391 34.5733 17.0537 34.9945 17.5688 35H18.9983C22.6729 34.9945 25.6505 32.0023 25.656 28.3097V19.1983H27.0655C27.443 19.2003 27.7842 18.9727 27.9289 18.6223C28.0737 18.2719 27.9932 17.8684 27.7253 17.6011Z" fill="#FE8235"/>
</svg>
