<svg width="32" height="32" viewBox="0 0 32 32" fill="none" xmlns="http://www.w3.org/2000/svg">
<path d="M18.6667 25.3333C23.6947 25.3333 26.2094 25.3333 27.7707 23.7707C29.3334 22.2093 29.3334 19.6947 29.3334 14.6667C29.3334 9.63867 29.3334 7.124 27.7707 5.56267C26.2094 4 23.6947 4 18.6667 4H13.3334C8.30542 4 5.79075 4 4.22941 5.56267C2.66675 7.124 2.66675 9.63867 2.66675 14.6667C2.66675 19.6947 2.66675 22.2093 4.22941 23.7707C5.10008 24.6427 6.26675 25.028 8.00008 25.1973" stroke="#D9D8D8" stroke-width="2.6" stroke-linecap="round" stroke-linejoin="round"/>
<path d="M18.6667 25.3334C17.0187 25.3334 15.2027 26 13.5454 26.86C10.8814 28.2427 9.54941 28.9347 8.89341 28.4934C8.23741 28.0534 8.36141 26.6867 8.61074 23.9547L8.66674 23.3334" stroke="#D9D8D8" stroke-width="2.6" stroke-linecap="round"/>
</svg>
