<svg width="33" height="33" viewBox="0 0 33 33" fill="none" xmlns="http://www.w3.org/2000/svg">
<g clip-path="url(#clip0_103_251)">
<path d="M33 16.5C33 25.6137 25.6137 33 16.5 33C7.38633 33 0 25.6137 0 16.5C0 7.38633 7.38633 0 16.5 0C25.6137 0 33 7.38633 33 16.5ZM21.9076 24.0603C20.8699 22.9066 19.0588 21.6562 16.5 21.6562C13.9412 21.6562 12.1301 22.9066 11.0924 24.0603C10.7121 24.4857 10.7443 25.0787 11.1697 25.517C11.5951 25.8973 12.1881 25.865 12.6264 25.4396C13.3805 24.6017 14.6631 23.7187 16.442 23.7187C18.3369 23.7187 19.6195 24.6017 20.3736 25.4396C20.7539 25.865 21.4049 25.8973 21.8303 25.517C22.2557 25.0787 22.2879 24.4857 21.9076 24.0603ZM11.3695 17.5312C12.5039 17.5312 13.432 16.6096 13.432 15.4687C13.432 15.3721 13.4256 15.2754 13.4127 15.1852L14.1088 15.4172C14.6502 15.5396 15.2367 15.3012 15.4172 14.7662C15.5396 14.2248 15.3012 13.6383 14.7662 13.4578L8.57871 11.3953C8.0373 11.2148 7.45078 11.5113 7.27031 12.0463C7.08984 12.5877 7.38633 13.1742 7.92129 13.3547L9.90644 14.0121C9.53261 14.3859 9.30703 14.9016 9.30703 15.4687C9.30703 16.6096 10.2287 17.5312 11.3695 17.5312ZM23.1322 13.9992L25.0787 13.3547C25.6137 13.1742 25.8521 12.5877 25.7297 12.0463C25.5492 11.5113 24.9627 11.2148 24.4213 11.3953L18.2338 13.4578C17.6988 13.6383 17.4023 14.2248 17.5828 14.7662C17.7633 15.3012 18.3498 15.5396 18.8912 15.4172L19.6389 15.1658C19.626 15.2625 19.6195 15.3656 19.6195 15.4687C19.6195 16.6096 20.5412 17.5312 21.682 17.5312C22.8164 17.5312 23.7445 16.6096 23.7445 15.4687C23.7445 14.8951 23.506 14.373 23.1322 13.9992Z" fill="white"/>
</g>
<defs>
<clipPath id="clip0_103_251">
<rect width="32.3296" height="32.3296" fill="white" transform="scale(1.02074)"/>
</clipPath>
</defs>
</svg>
