<svg width="20" height="20" viewBox="0 0 20 20" fill="none" xmlns="http://www.w3.org/2000/svg">
<path fill-rule="evenodd" clip-rule="evenodd" d="M11.884 1.73753C11.6336 1.69075 11.3776 1.66675 11.1192 1.66675H7.49992C5.19873 1.66675 3.33325 3.53223 3.33325 5.83341V14.1667C3.33325 16.4679 5.19873 18.3334 7.49992 18.3334H12.4999C14.8011 18.3334 16.6666 16.4679 16.6666 14.1667V7.21413C16.6666 6.95571 16.6426 6.69978 16.5958 6.44929C16.5722 6.47447 16.5481 6.4993 16.5236 6.52377C16.1099 6.93751 15.5945 7.23506 15.0293 7.3865C14.4641 7.53794 13.869 7.53794 13.3039 7.3865C12.7387 7.23506 12.2233 6.93751 11.8096 6.52377C11.3958 6.11003 11.0983 5.59466 10.9468 5.02948C10.7954 4.46429 10.7954 3.8692 10.9468 3.30402C11.0983 2.73883 11.3958 2.22347 11.8096 1.80973C11.834 1.78525 11.8589 1.76118 11.884 1.73753ZM12.4999 10.0001L7.49992 10.0001V8.33341L12.4999 8.33342V10.0001ZM7.49992 13.3334H10.8333V11.6667H7.49992V13.3334Z" fill="#ACA9A5"/>
<path d="M15.7678 4.62916C15.6682 4.50322 15.5609 4.38253 15.4462 4.26785L14.0655 2.88714C13.9508 2.77245 13.8301 2.66514 13.7042 2.56551C13.4338 2.6436 13.1873 2.78897 12.9881 2.98824C12.7812 3.19511 12.6324 3.45279 12.5567 3.73538C12.481 4.01798 12.481 4.31552 12.5567 4.59811C12.6324 4.88071 12.7812 5.13839 12.9881 5.34526C13.1949 5.55213 13.4526 5.7009 13.7352 5.77662C14.0178 5.85234 14.3154 5.85234 14.5979 5.77662C14.8805 5.7009 15.1382 5.55213 15.3451 5.34526C15.5444 5.14599 15.6897 4.89957 15.7678 4.62916Z" fill="#ACA9A5"/>
</svg>
