<svg width="343" height="194" viewBox="0 0 343 194" fill="none" xmlns="http://www.w3.org/2000/svg">
<circle cx="172" cy="97" r="97" fill="white"/>
<path d="M85.3801 63.3565C84.4267 62.7757 83.4952 62.1511 82.6185 61.4497C81.9829 60.9456 80.6022 60.0799 80.2844 59.3238C79.6268 57.7677 82.1473 58.5238 83.0459 58.6663C84.1308 58.8416 85.2157 59.0389 86.3006 59.2471C86.6403 59.3128 86.8704 58.995 86.7279 58.6992C85.4239 55.8828 84.5691 52.9459 84.1089 49.8776C83.9226 50.02 83.7363 50.1625 83.5609 50.3049C85.7636 51.9268 87.9443 53.5815 90.0922 55.2691C90.3771 55.4883 90.8264 55.302 90.7168 54.9075C90.136 52.672 90.0922 50.4803 90.6073 48.2338C90.399 48.2886 90.1908 48.3434 89.9826 48.3982C91.6264 50.1515 93.2702 51.8939 94.9139 53.6473C95.2427 53.998 95.7797 53.4719 95.4509 53.1103C93.8071 51.357 92.1634 49.6146 90.5196 47.8612C90.3333 47.6639 89.9497 47.7516 89.8949 48.0256C89.347 50.4036 89.3799 52.7487 90.0045 55.1048C90.2127 54.9842 90.421 54.8637 90.6292 54.7431C88.4265 53.0117 86.2019 51.3241 83.9445 49.6584C83.6486 49.4392 83.3527 49.8009 83.3966 50.0858C83.8568 53.2199 84.7554 56.2116 86.0814 59.0827C86.2239 58.8964 86.3663 58.7101 86.5088 58.5348C84.7006 58.1841 82.8925 57.8553 81.0734 57.6252C80.3172 57.5266 79.2981 57.3403 79.046 58.2718C78.7721 59.3019 80.1748 60.2991 80.7884 60.8689C82.0815 62.0634 83.5061 63.0935 85.0075 64.014C85.4129 64.2551 85.7965 63.6086 85.3801 63.3565Z" fill="#FFBD1A"/>
<path d="M217.77 48.4639C218.548 45.8887 219.808 43.5765 221.54 41.5272C221.32 41.4395 221.112 41.3519 220.893 41.2642C221.09 43.7189 221.288 46.1736 221.485 48.6283C221.507 48.968 221.868 49.1105 222.131 48.8913C225.189 46.3818 228.487 44.2011 231.994 42.3601C231.808 42.2176 231.621 42.0751 231.446 41.9327C231.074 44.6723 230.35 47.3023 229.243 49.8447C229.101 50.1625 229.408 50.5789 229.758 50.3598C232.038 48.9242 234.482 47.9599 237.112 47.4338C236.958 47.2804 236.805 47.127 236.651 46.9736C235.764 49.4612 234.58 51.7734 233.112 53.9651C232.838 54.3706 233.495 54.7432 233.758 54.3487C235.271 52.1022 236.465 49.7242 237.375 47.1708C237.484 46.875 237.166 46.6558 236.914 46.7106C234.208 47.2475 231.709 48.2448 229.375 49.7132C229.55 49.8885 229.715 50.0529 229.89 50.2283C231.019 47.6311 231.786 44.9463 232.169 42.1409C232.213 41.8231 231.928 41.5491 231.621 41.7135C228.06 43.5874 224.718 45.801 221.616 48.3544C221.836 48.442 222.044 48.5297 222.263 48.6174C222.066 46.1627 221.868 43.708 221.671 41.2533C221.649 40.9574 221.255 40.7163 221.025 40.9902C219.205 43.1381 217.88 45.5599 217.058 48.2557C216.904 48.7269 217.627 48.9242 217.77 48.4639Z" fill="#FFBD1A"/>
<path d="M153.159 20.3772C152.819 18.0869 152.797 15.8294 153.06 13.5282C152.841 13.6158 152.633 13.7035 152.413 13.7912C154.156 15.6979 155.887 17.6157 157.63 19.5225C157.838 19.7526 158.156 19.5992 158.254 19.3581C159.306 16.8376 160.797 14.6131 162.714 12.6734C162.506 12.6186 162.298 12.5638 162.09 12.509C162.408 14.5035 162.725 16.5089 163.043 18.5033C163.098 18.8649 163.558 18.8211 163.734 18.591C165.29 16.476 167.185 14.7226 169.421 13.3309C169.235 13.2213 169.048 13.1117 168.851 13.0022C168.72 15.15 168.391 17.2431 167.876 19.3252C167.755 19.7964 168.479 19.9937 168.599 19.5225C169.136 17.3746 169.465 15.2048 169.607 12.9912C169.629 12.7063 169.279 12.52 169.037 12.6624C166.692 14.1199 164.72 15.9719 163.087 18.1855C163.317 18.2184 163.547 18.2403 163.777 18.2732C163.46 16.2787 163.142 14.2733 162.824 12.2789C162.78 11.994 162.375 11.9282 162.199 12.1145C160.183 14.1528 158.649 16.487 157.542 19.128C157.75 19.0732 157.958 19.0184 158.167 18.9636C156.424 17.0568 154.693 15.1391 152.95 13.2323C152.709 12.9693 152.337 13.1994 152.304 13.4953C152.041 15.8623 152.085 18.1855 152.435 20.5416C152.501 21.0457 153.224 20.8484 153.159 20.3772Z" fill="#FFBD1A"/>
<path d="M148.622 173.522C149.334 176.306 150.046 179.1 150.759 181.884C150.836 182.179 151.307 182.267 151.449 181.971C152.578 179.659 153.718 177.347 154.846 175.035C154.649 175.056 154.452 175.089 154.255 175.111C156.37 177.215 158.813 178.826 161.575 179.955C161.838 180.064 162.123 179.747 162.035 179.495C161.235 177.237 160.917 174.936 161.071 172.547C160.917 172.667 160.753 172.788 160.6 172.909C162.649 173.435 164.687 173.961 166.736 174.498C167.065 174.585 167.317 174.235 167.164 173.95C165.805 171.374 164.435 168.799 163.076 166.224C162.846 165.797 162.199 166.18 162.43 166.607C163.788 169.183 165.158 171.758 166.517 174.333C166.66 174.147 166.802 173.961 166.944 173.785C164.895 173.259 162.857 172.733 160.808 172.196C160.556 172.131 160.347 172.317 160.337 172.558C160.183 175.024 160.512 177.38 161.323 179.714C161.476 179.56 161.63 179.407 161.783 179.254C159.142 178.169 156.819 176.613 154.792 174.607C154.627 174.443 154.309 174.465 154.2 174.684C153.071 176.996 151.931 179.308 150.803 181.621C151.033 181.653 151.263 181.675 151.493 181.708C150.781 178.925 150.068 176.13 149.356 173.347C149.225 172.854 148.501 173.051 148.622 173.522Z" fill="#FFBD1A"/>
<path d="M263.992 128.187C266.677 128.702 269.121 129.798 271.268 131.496C271.323 131.288 271.378 131.08 271.433 130.872C268.419 132.088 265.417 133.305 262.403 134.521C262.151 134.62 262.019 134.937 262.239 135.146C264.715 137.556 266.644 140.351 268.014 143.518C268.156 143.332 268.299 143.145 268.441 142.97C266.052 142.181 263.641 141.534 261.176 141.03C260.847 140.965 260.595 141.282 260.748 141.578C262.129 144.318 263.51 147.057 264.891 149.797C265 149.611 265.11 149.424 265.219 149.227C262.885 149.041 260.639 148.581 258.425 147.846C257.965 147.693 257.768 148.416 258.228 148.57C260.507 149.326 262.83 149.786 265.23 149.972C265.537 149.994 265.669 149.644 265.559 149.403C264.178 146.663 262.797 143.923 261.417 141.184C261.274 141.37 261.132 141.556 260.989 141.732C263.455 142.236 265.866 142.882 268.255 143.671C268.605 143.781 268.803 143.397 268.682 143.123C267.29 139.902 265.307 137.041 262.787 134.598C262.732 134.806 262.677 135.014 262.622 135.222C265.636 134.006 268.638 132.789 271.652 131.573C271.882 131.485 272.068 131.146 271.816 130.948C269.57 129.162 267.038 127.99 264.211 127.453C263.718 127.376 263.521 128.099 263.992 128.187Z" fill="#FFBD1A"/>
<path d="M250.185 145.852C246.711 149.907 235.775 146.258 225.758 137.688C215.742 129.118 210.428 118.883 213.901 114.829C217.375 110.774 228.312 114.423 238.328 122.993C248.344 131.562 253.659 141.797 250.185 145.852Z" fill="#4F3422"/>
<path d="M179.075 149.468C175.601 153.523 164.664 149.874 154.648 141.304C144.632 132.735 139.317 122.499 142.791 118.445C146.265 114.39 157.202 118.039 167.218 126.609C177.234 135.167 182.549 145.403 179.075 149.468Z" fill="#4F3422"/>
<path d="M211.172 73.997C215.709 68.3205 224.947 61.8221 231.906 59.751C238.875 57.6798 246.985 58.7209 252.464 63.4878C258.622 68.8575 260.442 77.6462 260.694 85.8103C261.263 103.432 256.135 126.214 251.247 143.156C248.946 136.022 241.615 125.458 235.423 121.228C229.232 116.987 220.903 115.574 214.043 118.62C209.167 120.79 205.397 124.987 202.975 129.743C200.553 134.488 201.101 108.418 200.367 113.689C197.945 113.053 195.304 120.275 192.882 119.639C192.882 119.639 182.658 140.548 179.754 147.879C176.445 140.208 167.798 131.978 159.996 128.954C152.205 125.929 143.777 125.031 135.46 124.154C139.526 116.856 143.613 109.546 146.912 101.875C148.709 97.7112 150.276 93.4374 152.413 89.4375C160.248 74.7641 176.532 64.5179 193.145 65.4713C200.981 65.9206 209.222 69.241 213.035 76.101L211.172 73.997Z" fill="#FFBD1A"/>
<path d="M173.947 142.904C170.221 155.945 158.945 166.531 145.696 169.413C138.726 170.936 131.274 169.917 126.672 163.977C116.053 150.301 122.858 128.461 127.055 113.711C132.184 95.6839 139.154 73.6135 150.057 58.3702C150.057 58.3702 147.34 54.8197 144.6 48.1788C143.318 45.0556 143.153 41.5051 144.359 38.36C145.564 35.2149 149.378 32.9355 152.435 34.3382C151.318 32.7054 152.687 30.3274 154.539 29.6699C156.402 29.0124 158.452 29.5384 160.347 30.0754C159.109 28.9905 159.734 26.7659 161.147 25.9221C162.561 25.0783 164.347 25.2536 165.947 25.6262C170.331 26.6563 174.374 29.0453 177.464 32.3109C179.207 34.1519 177.454 37.1436 175.01 36.4861C171.788 35.6204 168.873 34.5574 166.55 33.4396C167.558 34.1081 170.55 36.256 173.235 38.5025C175.371 40.2777 173.487 43.6858 170.835 42.8311C168.742 42.1626 166.835 41.3517 166.013 40.8037C169.947 44.8913 173.947 49.0993 176.248 54.2827C180.785 64.4741 178.001 76.2654 175.262 87.0705C171.437 102.193 168.205 120.702 164.829 135.934C164.84 135.934 170.988 138.915 173.947 142.904Z" fill="#F6A460"/>
<path d="M173.453 64.9456C175.141 59.1047 176.741 52.5515 173.552 47.2914C171.218 43.445 166.593 41.0999 161.892 40.6287C157.191 40.1574 152.435 41.3519 148.183 43.2806C144.808 44.8148 141.652 46.8093 139.011 49.3078C131.691 56.2226 128.951 66.2167 123.472 74.4904C120.918 78.3478 116.568 82.2381 111.889 81.0545C109.817 80.5285 108.174 79.082 106.267 78.1505C102.092 76.1013 96.8535 76.6821 92.6564 78.7094C88.4593 80.7367 85.1389 84.0243 82.1144 87.4324C76.4927 93.7773 71.4956 101.054 70.4545 109.24C69.4135 117.426 73.2818 126.609 81.3254 129.973C83.9773 131.091 86.9032 131.518 89.7744 131.935C95.955 132.844 102.914 134.269 106.146 139.299C107.659 141.644 108.163 144.57 110.212 146.532C111.483 147.737 113.215 148.438 114.979 148.833C121.149 150.192 127.636 148.055 133.049 144.975C136.523 143.003 139.822 140.548 141.816 137.228C144.49 132.79 144.501 127.442 145.235 122.39C145.783 118.686 146.748 115.026 148.128 111.508C148.753 109.919 149.487 108.319 150.758 107.136C152.03 105.941 153.969 105.229 155.679 105.766C156.698 106.084 157.531 106.796 158.528 107.191C160.742 108.067 163.361 107.18 165.202 105.744C170.451 101.657 170.834 94.3581 170.56 87.9693C170.286 81.5805 170.034 74.4466 174.582 69.6906L173.453 64.9456Z" fill="#4F3422"/>
<path d="M151.251 43.8943C140.577 41.0889 130.474 49.5379 125.444 58.1842C122.846 62.6662 120.852 67.7619 116.929 71.3125C112.348 75.4548 105.938 76.0027 100.097 74.9397C97.1927 74.4137 94.4969 73.285 91.6477 72.5836C89.0286 71.9371 86.5848 72.2878 84.1521 73.4165C79.1988 75.7178 74.4209 78.9724 71.5388 83.6956C68.5581 88.583 65.8952 94.6102 65.1829 100.309C64.5254 105.591 65.6541 111.081 68.3499 115.672C71.1882 120.494 75.7469 124.242 80.9851 126.16C87.5273 128.56 94.5955 127.672 101.335 126.773C101.806 126.708 101.817 125.962 101.335 126.017C95.4174 126.806 89.2587 127.628 83.385 126.116C78.2783 124.801 73.6429 121.7 70.4649 117.492C67.1006 113.031 65.4459 107.366 65.7856 101.799C66.1473 95.9691 68.7773 90.0515 71.6265 85.0215C74.4538 80.0025 79.1112 76.6273 84.2616 74.1836C87.5602 72.6165 90.4422 72.8905 93.8175 74.0192C96.3269 74.8521 98.8584 75.5534 101.488 75.9041C105.981 76.4958 110.759 76.1342 114.748 73.822C118.649 71.5536 121.104 67.6962 123.208 63.8388C126.003 58.7102 128.665 53.7789 133.191 49.9215C138.057 45.7682 144.61 42.919 151.043 44.6066C151.514 44.7491 151.722 44.0258 151.251 43.8943Z" fill="#4F3422"/>
<path d="M85.9063 127.211C89.8952 128.088 93.4567 130.269 96.0868 133.392C99.0784 136.954 99.7688 140.899 100.645 145.315C101.358 148.931 102.991 151.912 106.267 153.764C109.336 155.506 113.061 156.251 116.546 156.493C123.045 156.931 129.839 155.068 134.869 150.838C141.236 145.468 142.584 137.403 142.682 129.48C142.748 124.198 142.485 118.938 143 113.667C143.515 108.385 145.488 102.259 151.263 100.769C151.734 100.648 151.537 99.9248 151.066 100.045C142.638 102.215 142.047 112.604 141.915 119.705C141.74 128.461 143.175 138.488 138.047 146.192C133.926 152.383 126.486 155.583 119.209 155.802C115.428 155.912 111.407 155.32 107.944 153.786C106.114 152.975 104.404 151.813 103.254 150.159C101.873 148.186 101.478 145.775 101.073 143.452C100.361 139.332 99.1223 135.693 96.3059 132.515C93.6211 129.491 90.0486 127.376 86.1036 126.499C85.6324 126.379 85.4351 127.113 85.9063 127.211Z" fill="#4F3422"/>
<path d="M143.121 105.152C146.573 103.87 148.907 107.388 150.375 109.93C151.548 111.946 152.786 113.941 154.989 114.927C159.285 116.856 163.35 114.368 165.597 110.686C170.539 102.588 170.67 91.0047 164.808 83.3776C164.512 82.9941 163.865 83.3776 164.161 83.7612C169.936 91.2677 169.827 102.873 164.687 110.73C163.197 113.009 160.95 114.872 158.101 114.861C155.066 114.85 153.049 112.933 151.57 110.478C149.773 107.497 147.197 102.851 142.935 104.44C142.474 104.593 142.672 105.317 143.121 105.152Z" fill="#4F3422"/>
<path d="M149.476 45.1873C142.824 39.2807 133.258 40.8039 126.157 44.99C121.992 47.4448 118.245 50.6775 114.815 54.0637C111.122 57.7238 107.56 63.6633 101.949 64.3208C98.9795 64.6715 95.4509 62.8633 95.6153 59.4772C95.692 58.0526 96.5906 56.4965 98.07 56.1787C99.7576 55.817 101.621 57.0334 101.73 58.7758C101.763 59.258 102.508 59.258 102.486 58.7758C102.256 55.1267 97.2481 54.2281 95.4947 57.3183C93.2483 61.2634 97.0837 65.055 100.974 65.1537C106.957 65.3071 110.815 59.2251 114.508 55.4664C118.858 51.0172 123.801 46.7105 129.51 44.1024C135.734 41.2642 143.57 40.9464 148.961 45.7352C149.312 46.0421 149.849 45.5161 149.476 45.1873Z" fill="#4F3422"/>
<path d="M164.589 42.3708C168.095 41.8776 171.416 43.9597 174.835 44.4419C177.432 44.8036 180.084 44.683 182.648 44.1241C187.897 42.9954 192.599 40.0147 196.127 35.9929C199.009 32.7054 202.965 27.6754 200.511 23.2263C198.472 19.5442 193.541 15.2156 189.004 15.7088C187.119 15.906 185.585 17.4402 186.045 19.4346C186.517 21.4729 188.763 22.1304 190.484 21.2209C190.911 20.9907 190.527 20.3442 190.1 20.5743C187.218 22.0866 185.3 17.747 188.27 16.6293C189.453 16.18 190.834 16.5197 191.985 16.9361C194.538 17.8676 196.839 19.599 198.549 21.6921C199.601 22.9852 200.719 24.6399 200.664 26.3823C200.62 27.8398 199.798 29.2425 199.108 30.4808C197.87 32.7163 196.335 34.7875 194.549 36.6066C190.681 40.5517 185.563 43.2474 180.029 43.7954C177.202 44.0803 174.396 43.7954 171.69 42.9625C169.246 42.2173 166.999 41.2968 164.402 41.6585C163.909 41.7133 164.117 42.4365 164.589 42.3708Z" fill="#4F3422"/>
<path d="M160.05 72.5836C160.894 74.2932 162.001 75.926 163.458 77.4054L168.313 71.0714L175.096 85.0325C177.496 89.9748 183.874 91.4542 188.159 88.0132C188.224 87.9584 188.301 87.9036 188.367 87.8379C192.433 84.5394 192.564 78.3697 188.696 74.8411L159.952 48.6613C159.952 48.6613 155.141 61.5923 159.754 71.9371L160.05 72.5836Z" fill="#F6A460"/>
<path d="M159.756 71.9372C160.928 68.1236 162.989 62.8307 166.397 65.121C166.802 65.2963 166.32 67.499 165.564 68.1346C163.537 69.4386 161.476 70.8413 160.052 72.5837L159.756 71.9372Z" fill="#F6A460"/>
<path d="M159.733 72.7698C160.654 74.5779 161.793 76.1998 163.196 77.6682C163.382 77.8655 163.645 77.7778 163.788 77.5915C165.41 75.4765 167.021 73.3725 168.642 71.2575C168.423 71.2575 168.204 71.2575 167.996 71.2575C170.067 75.5203 172.138 79.7832 174.209 84.0351C175.316 86.3035 176.642 88.276 179.02 89.3938C182.253 90.9061 185.902 90.3143 188.653 88.1007C189.025 87.7938 188.499 87.2678 188.116 87.5637C184.872 90.1828 180.16 90.117 177.124 87.1802C175.722 85.8213 174.987 83.9145 174.144 82.1831C172.313 78.4134 170.472 74.6437 168.642 70.8739C168.5 70.589 168.149 70.6767 167.996 70.8739C166.374 72.9889 164.763 75.093 163.141 77.2079C163.338 77.186 163.536 77.1531 163.733 77.1312C162.374 75.7066 161.278 74.1396 160.391 72.3862C160.161 71.9588 159.514 72.3424 159.733 72.7698Z" fill="#4F3422"/>
<path d="M159.591 48.5626C156.884 55.8938 156.314 64.8798 159.437 72.1233C159.623 72.5617 160.281 72.1891 160.084 71.7398C157.048 64.6825 157.695 55.8828 160.314 48.7598C160.478 48.3105 159.755 48.1133 159.591 48.5626Z" fill="#4F3422"/>
<path d="M159.756 71.937C159.854 72.1562 159.953 72.3644 160.052 72.5835C160.402 72.1561 160.786 71.7397 161.213 71.3562C162.101 68.6494 163.8 66.3262 166.539 65.5153C166.528 65.318 166.484 65.1756 166.397 65.1318C162.989 62.8305 160.928 68.1234 159.756 71.937Z" fill="#4F3422"/>
<path d="M161.212 71.3564C162.494 70.1619 164.039 69.1208 165.562 68.1346C166.154 67.6414 166.57 66.2059 166.538 65.5045C163.798 66.3264 162.099 68.6386 161.212 71.3564Z" fill="#ED7E1C"/>
<path d="M176.445 55.3897C176.336 57.6581 174.418 59.4114 172.15 59.3128C169.881 59.2032 168.128 57.2855 168.227 55.0171C168.336 52.7487 170.254 50.9953 172.522 51.0939C174.802 51.1926 176.555 53.1103 176.445 55.3897Z" fill="#F6A460"/>
<path d="M171.919 57.0445C172.478 55.6418 173.037 54.2391 173.618 52.8474C173.804 52.3981 173.081 52.2118 172.894 52.6501C172.314 54.0418 171.755 55.4445 171.196 56.8472C171.01 57.2965 171.744 57.4938 171.919 57.0445Z" fill="#4F3422"/>
<path d="M168.313 71.0712L174.845 84.4625L171.568 66.1509L168.313 71.0712Z" fill="#4F3422"/>
<path d="M162.616 59.1047C162.122 60.2553 161.64 61.406 161.147 62.5566C161.016 62.8635 161.311 63.3128 161.662 63.0717C162.254 62.6552 162.89 62.3703 163.591 62.206C164.062 62.0964 163.865 61.3731 163.394 61.4827C162.626 61.658 161.925 61.9758 161.279 62.4251C161.454 62.6005 161.618 62.7648 161.794 62.9402C162.287 61.7895 162.769 60.6389 163.262 59.4882C163.448 59.0499 162.802 58.6664 162.616 59.1047Z" fill="#4F3422"/>
<path d="M158.659 60.6607C158.363 63.1044 158.067 65.5372 157.771 67.981C157.749 68.1782 157.957 68.3755 158.144 68.3536C158.801 68.2988 159.513 67.8824 160.116 67.6413C160.554 67.4659 160.368 66.7317 159.919 66.918C159.393 67.1262 158.702 67.5646 158.144 67.6084C158.264 67.7289 158.396 67.8604 158.516 67.981C158.812 65.5372 159.108 63.1044 159.404 60.6607C159.47 60.1785 158.713 60.1785 158.659 60.6607Z" fill="#4F3422"/>
<path d="M160.479 55.5541C161.29 56.3102 162.364 56.6828 163.47 56.5404C163.942 56.4746 163.953 55.7294 163.47 55.7842C162.55 55.9048 161.695 55.6527 161.016 55.0171C160.654 54.6993 160.128 55.2254 160.479 55.5541Z" fill="#4F3422"/>
<path d="M245.89 139.902C241.09 150.345 232.06 158.783 221.299 162.849C212.652 166.114 201.749 166.125 195.382 159.452C191.163 155.035 189.804 148.657 189.092 142.586C188.533 137.787 188.259 132.965 188.292 128.132C188.314 124.264 188.522 120.385 188.412 116.516C188.138 106.851 187.349 96.8128 185.081 87.4105C182.297 75.8602 177.673 64.2442 169.246 55.861C169.092 55.7075 168.939 55.576 168.797 55.4445C167.471 54.2939 168.523 52.1241 170.254 52.409C171.284 52.5844 172.336 52.9131 173.081 53.5487C176.643 56.5623 176.741 55.4555 181.837 60.1019C178.166 57.2089 174.868 53.8556 172.04 50.1406C171.262 49.1105 172.15 47.6311 173.421 47.8941C176.873 48.6174 183.623 53.5158 187.525 56.0034C187.525 56.0034 177.355 47.412 177.355 46.2832C177.355 44.4093 180.325 45.1436 182.517 46.1956C186.845 48.2886 193.037 52.146 198.089 55.6308C199.152 56.365 200.335 54.8747 199.371 54.009C196.795 51.6967 193.464 49.8228 191.261 49.8119C190.845 49.8119 190.44 49.7571 190.067 49.5817C188.051 48.6174 189.135 46.7435 190.472 46.4367C191.426 46.2175 195.437 46.5353 196.346 46.8969C204.543 50.1516 207.151 53.5487 213.704 63.1593C217.595 68.8687 220.17 75.3561 222.274 81.9312C227.03 96.7909 231.72 111.004 232.191 126.598C238.372 128.888 243.851 134.773 245.89 139.902Z" fill="#F6A460"/>
<path d="M188.893 136.318C188.433 128.691 188.981 121.053 188.663 113.426C188.367 106.094 187.742 98.7632 186.351 91.5525C183.918 78.9393 179.304 65.8329 170.275 56.3867C169.551 55.6306 168.05 54.6114 168.773 53.4389C169.529 52.2115 171.568 53.0005 172.488 53.5923C173.474 54.2279 174.329 55.0717 175.326 55.7073C177.551 57.1428 179.6 58.5894 181.573 60.3756C181.748 60.2003 181.923 60.0249 182.11 59.8386C179.819 58.0195 177.672 56.047 175.688 53.8991C175.162 53.3293 174.647 52.7485 174.143 52.1458C173.814 51.7622 172.368 50.3595 172.379 49.9431C172.795 49.4061 173.2 48.8582 173.617 48.3213C173.814 48.376 174.022 48.4308 174.22 48.4966C174.768 48.6171 175.315 48.924 175.82 49.1651C179.907 51.1047 183.567 53.8882 187.359 56.321C187.709 56.5511 188.148 56.0141 187.819 55.7292C185.058 53.395 182.318 51.028 179.743 48.4966C179.239 48.0035 178.285 47.2912 177.989 46.6227C177.222 44.8474 180.323 45.7022 181.156 45.9981C184.663 47.2583 187.972 49.5048 191.107 51.4663C192.772 52.5074 194.416 53.5704 196.038 54.6662C196.904 55.247 198.164 56.6168 199.315 56.047C202.021 54.7101 197.506 51.9814 196.52 51.3677C195.282 50.6006 193.934 49.8883 192.498 49.5815C191.874 49.45 191.172 49.5267 190.57 49.3514C188.323 48.7048 189.704 46.8857 191.139 46.7323C193.89 46.4474 196.52 47.2473 198.953 48.4199C205.506 51.6088 209.396 57.4716 213.385 63.3234C213.659 63.7179 214.306 63.3453 214.032 62.9399C210.328 57.5045 206.635 51.7513 200.728 48.4856C198.153 47.061 195.786 46.1734 192.849 45.9981C191.326 45.9104 187.918 46.0309 188.652 48.5733C188.926 49.5376 189.967 50.0089 190.866 50.1404C193.211 50.4691 195.085 51.2253 197.046 52.5951C197.55 52.9457 198.032 53.3183 198.504 53.7019C198.821 53.9649 200.367 55.0936 198.295 55.2689C197.726 55.3237 195.961 53.68 195.446 53.3402C193.496 52.0471 191.512 50.7869 189.507 49.5705C186.537 47.7843 183.052 45.2419 179.534 44.7707C177.956 44.5625 176.28 45.5049 177.441 47.1049C178.921 49.1322 181.102 50.8198 182.964 52.4745C184.389 53.7457 185.836 54.995 187.293 56.2333C187.446 56.036 187.6 55.8388 187.753 55.6415C185.134 53.9539 182.581 52.1677 179.918 50.5458C178.658 49.7787 177.376 49.0226 176.039 48.398C175.184 48.0035 174.033 47.3679 173.058 47.4555C172.269 47.5213 171.601 48.124 171.447 48.9021C171.228 50.0308 172.258 50.9513 172.894 51.7403C175.469 54.9183 178.406 57.7784 181.606 60.3208C181.978 60.6167 182.504 60.1235 182.143 59.7838C180.323 58.1401 178.471 56.6716 176.378 55.3895C174.417 54.184 172.707 52.1567 170.285 51.9704C168.565 51.8499 167.272 53.5485 168.149 55.1374C168.828 56.3648 170.329 57.4058 171.261 58.4688C172.554 59.9592 173.737 61.5372 174.833 63.17C183.512 76.1777 186.625 92.4073 187.666 107.738C188.312 117.25 187.611 126.751 188.192 136.252C188.17 136.8 188.926 136.8 188.893 136.318Z" fill="#4F3422"/>
<path d="M245.561 139.715C240.87 149.764 232.432 157.939 222.131 162.114C212.532 166.005 199.327 166.114 193.354 156.164C189.837 150.312 189.332 142.959 188.894 136.307C188.861 135.825 188.105 135.825 188.138 136.307C188.543 142.477 189.048 149.052 191.732 154.717C194.045 159.616 198.198 163.101 203.425 164.525C214.219 167.473 225.945 162.575 234.186 155.704C239.281 151.452 243.402 146.104 246.207 140.088C246.415 139.66 245.769 139.277 245.561 139.715Z" fill="#4F3422"/>
<path d="M168.489 54.8854C169.694 55.0279 170.834 54.2389 171.196 53.0882C171.338 52.628 170.615 52.4307 170.472 52.891C170.209 53.7458 169.366 54.2389 168.489 54.1403C168.007 54.0745 168.007 54.8306 168.489 54.8854Z" fill="#4F3422"/>
<path d="M171.94 50.1078C173.321 50.7434 174.888 50.3379 175.797 49.1215C176.093 48.738 175.436 48.3544 175.151 48.738C174.504 49.6037 173.299 49.8996 172.313 49.4503C171.885 49.264 171.502 49.9105 171.94 50.1078Z" fill="#4F3422"/>
<path d="M178.121 47.1816C179.283 47.3898 180.39 46.9405 181.091 45.9871C181.376 45.6036 180.729 45.22 180.444 45.6036C179.962 46.2611 179.118 46.5898 178.319 46.4474C177.847 46.3707 177.639 47.0939 178.121 47.1816Z" fill="#4F3422"/>
<path d="M189.408 47.8831C190.636 48.2995 191.929 48.0256 192.904 47.1927C193.277 46.8749 192.74 46.3489 192.367 46.6558C191.589 47.3133 190.559 47.4776 189.606 47.1489C189.145 47.0064 188.948 47.7297 189.408 47.8831Z" fill="#4F3422"/>
<path d="M151.328 35.0289C157.904 35.4672 163.931 39.0288 167.492 44.5628C167.755 44.9683 168.402 44.5957 168.139 44.1792C164.424 38.4041 158.177 34.733 151.328 34.2728C150.846 34.2399 150.846 34.996 151.328 35.0289Z" fill="#4F3422"/>
<path d="M159.7 30.7548C162.188 31.4781 164.544 32.4972 166.779 33.8122C167.196 34.0643 167.579 33.4068 167.163 33.1657C164.873 31.8178 162.462 30.7658 159.898 30.0315C159.437 29.8891 159.229 30.6123 159.7 30.7548Z" fill="#4F3422"/>
<path d="M171.591 37.8121C171.218 39.4339 172.457 41.0667 174.111 41.1544C174.594 41.1763 174.594 40.4312 174.111 40.3983C172.95 40.3325 172.051 39.1381 172.314 38.0093C172.424 37.5381 171.701 37.3409 171.591 37.8121Z" fill="#4F3422"/>
<path d="M175.886 31.1495C175.295 32.6727 176.281 34.4809 177.87 34.8206C178.341 34.9192 178.538 34.196 178.067 34.0973C176.851 33.8343 176.16 32.4974 176.61 31.3467C176.785 30.8974 176.062 30.7112 175.886 31.1495Z" fill="#4F3422"/>
<path d="M165.497 133.754C164.577 137.326 164.018 140.943 163.821 144.625C163.799 145.107 164.544 145.107 164.577 144.625C164.763 141.008 165.322 137.458 166.221 133.951C166.341 133.491 165.618 133.294 165.497 133.754Z" fill="#4F3422"/>
<path d="M232.454 121.842C232.333 127.902 232.212 133.962 232.092 140.011C232.081 140.493 232.837 140.493 232.848 140.011C232.969 133.951 233.089 127.891 233.21 121.842C233.21 121.36 232.465 121.36 232.454 121.842Z" fill="#4F3422"/>
<path d="M182.78 67.937C183.624 67.4109 184.467 66.8849 185.322 66.3699C185.739 66.1178 185.355 65.4603 184.939 65.7233C184.095 66.2493 183.251 66.7644 182.396 67.2904C181.991 67.5424 182.374 68.189 182.78 67.937Z" fill="#FFBD1A"/>
<path d="M188.499 64.0469C189.167 63.5209 189.836 62.9839 190.504 62.4579C190.888 62.162 190.351 61.6251 189.967 61.9209C189.299 62.4469 188.63 62.9839 187.962 63.5099C187.589 63.8168 188.126 64.3428 188.499 64.0469Z" fill="#FFBD1A"/>
<path d="M193.508 60.9785C194.275 60.5511 195.042 60.1237 195.809 59.6963C196.236 59.4552 195.853 58.8087 195.425 59.0498C194.658 59.4772 193.891 59.9045 193.124 60.3319C192.708 60.5621 193.08 61.2086 193.508 60.9785Z" fill="#FFBD1A"/>
<path d="M203.042 55.9158C203.645 55.9158 204.237 55.9158 204.839 55.9158C205.321 55.9158 205.321 55.1597 204.839 55.1597C204.237 55.1597 203.645 55.1597 203.042 55.1597C202.56 55.1597 202.56 55.9158 203.042 55.9158Z" fill="#FFBD1A"/>
<path d="M146.484 38.6561C146.977 38.2068 147.481 37.7684 147.975 37.3191C148.336 36.9904 147.799 36.4644 147.438 36.7822C146.945 37.2315 146.44 37.6698 145.947 38.1191C145.586 38.4479 146.123 38.9739 146.484 38.6561Z" fill="#FFBD1A"/>
<path d="M154.155 32.508C154.703 31.8724 155.361 31.3793 156.128 31.0286C156.566 30.8204 156.182 30.1739 155.744 30.3821C154.933 30.7656 154.21 31.3026 153.618 31.982C153.311 32.3327 153.837 32.8697 154.155 32.508Z" fill="#FFBD1A"/>
<path d="M163.328 27.7524C164.237 27.1936 165.147 26.6347 166.056 26.0868C166.473 25.8347 166.089 25.1882 165.673 25.4402C164.763 25.9991 163.854 26.558 162.944 27.1059C162.539 27.3579 162.922 28.0045 163.328 27.7524Z" fill="#FFBD1A"/>
<path d="M164.939 62.0742C165.641 63.7947 166.846 65.3179 168.359 66.4028C169.465 67.1918 171.361 67.5425 171.876 66.2932C172.391 65.0439 170.846 63.97 169.586 63.4878C168.096 62.918 166.594 62.3481 165.104 61.7673L164.939 62.0742Z" fill="white"/>
<path d="M156.785 94.8621C155.273 96.4291 154.002 98.2263 153.004 100.166C152.752 100.67 152.5 101.24 152.665 101.777C152.939 102.719 154.319 102.906 155.109 102.325C155.898 101.744 156.193 100.714 156.358 99.7495C156.599 98.2044 157.015 96.4072 156.785 94.8621Z" fill="white"/>
<path d="M152.03 79.5532C150.441 81.1422 149.082 82.9613 148.019 84.9448C147.745 85.4599 147.482 86.0406 147.635 86.5995C147.898 87.5748 149.312 87.805 150.145 87.2242C150.967 86.6434 151.306 85.5914 151.482 84.5941C151.767 83.0051 152.238 81.1532 152.03 79.5532Z" fill="white"/>
<path d="M133.905 111.234C132.316 112.823 130.957 114.642 129.894 116.626C129.62 117.141 129.357 117.722 129.51 118.28C129.773 119.256 131.187 119.486 132.02 118.905C132.842 118.324 133.181 117.272 133.357 116.275C133.642 114.686 134.113 112.834 133.905 111.234Z" fill="white"/>
</svg>
