<svg xmlns="http://www.w3.org/2000/svg" xmlns:xlink="http://www.w3.org/1999/xlink" width="1080" zoomAndPan="magnify" viewBox="0 0 810 809.999993" height="1080" preserveAspectRatio="xMidYMid meet" version="1.0"><defs><clipPath id="f91fdd383e"><path d="M 98 216 L 714 216 L 714 772.707031 L 98 772.707031 Z M 98 216 " clip-rule="nonzero"/></clipPath></defs><path fill="#d9d9d9" d="M 776.003906 295.484375 L 651.332031 203.777344 L 651.332031 94.386719 C 651.332031 77.234375 637.410156 63.363281 620.285156 63.363281 L 569.828125 63.363281 C 552.675781 63.363281 538.78125 77.257812 538.78125 94.386719 L 538.78125 120.960938 L 443.722656 51.046875 C 423.097656 35.839844 389.332031 35.839844 368.707031 51.046875 L 36.425781 295.484375 C 15.800781 310.664062 11.355469 339.988281 26.539062 360.636719 L 35.722656 373.097656 C 50.878906 393.746094 80.203125 398.21875 100.804688 383.035156 L 368.707031 185.871094 C 389.332031 170.6875 423.097656 170.6875 443.722656 185.871094 L 711.601562 383.035156 C 732.226562 398.21875 761.523438 393.722656 776.683594 373.097656 L 785.890625 360.636719 C 801.050781 339.988281 796.601562 310.664062 776.003906 295.484375 Z M 776.003906 295.484375 " fill-opacity="1" fill-rule="nonzero"/><g clip-path="url(#f91fdd383e)"><path fill="#d9d9d9" d="M 676.597656 400.183594 L 443.648438 228.019531 C 423.050781 212.789062 389.378906 212.789062 368.777344 228.019531 L 135.832031 400.183594 C 115.234375 415.417969 98.375 437.695312 98.375 449.765625 L 98.375 699.378906 C 98.375 739.898438 133.113281 772.765625 175.988281 772.765625 L 318.25 772.765625 L 318.25 551.96875 C 318.25 534.914062 332.21875 520.96875 349.273438 520.96875 L 463.109375 520.96875 C 480.164062 520.96875 494.132812 534.914062 494.132812 551.96875 L 494.132812 772.765625 L 636.414062 772.765625 C 679.269531 772.765625 713.984375 739.898438 713.984375 699.378906 L 713.984375 449.765625 C 714.007812 437.695312 697.195312 415.417969 676.597656 400.183594 Z M 676.597656 400.183594 " fill-opacity="1" fill-rule="nonzero"/></g></svg>