<svg xmlns="http://www.w3.org/2000/svg" xmlns:xlink="http://www.w3.org/1999/xlink" width="1080" zoomAndPan="magnify" viewBox="0 0 810 809.999993" height="1080" preserveAspectRatio="xMidYMid meet" version="1.0"><defs><clipPath id="ed606e909a"><path d="M 219 23.894531 L 590 23.894531 L 590 420 L 219 420 Z M 219 23.894531 " clip-rule="nonzero"/></clipPath><clipPath id="fe16d79fc4"><path d="M 59 421 L 751 421 L 751 785.894531 L 59 785.894531 Z M 59 421 " clip-rule="nonzero"/></clipPath></defs><g clip-path="url(#ed606e909a)"><path fill="#000000" d="M 404.96875 419.152344 C 506.992188 419.152344 589.980469 310.890625 589.980469 208.894531 C 589.980469 106.894531 506.992188 23.894531 404.96875 23.894531 C 302.945312 23.894531 219.949219 106.894531 219.949219 208.894531 C 219.964844 310.882812 302.953125 419.152344 404.96875 419.152344 Z M 404.96875 419.152344 " fill-opacity="1" fill-rule="nonzero"/></g><g clip-path="url(#fe16d79fc4)"><path fill="#000000" d="M 543.863281 421.050781 C 507.976562 448.390625 463.203125 464.652344 414.707031 464.652344 L 395.230469 464.652344 C 346.726562 464.652344 301.945312 448.378906 266.066406 421.050781 C 148.882812 439.992188 59.398438 541.539062 59.398438 664.035156 C 59.398438 731.328125 214.113281 785.894531 404.96875 785.894531 C 595.816406 785.894531 750.539062 731.328125 750.539062 664.035156 C 750.539062 541.539062 661.046875 439.992188 543.863281 421.050781 Z M 543.863281 421.050781 " fill-opacity="1" fill-rule="nonzero"/></g></svg>