<svg xmlns="http://www.w3.org/2000/svg" xmlns:xlink="http://www.w3.org/1999/xlink" width="1080" zoomAndPan="magnify" viewBox="0 0 810 809.999993" height="1080" preserveAspectRatio="xMidYMid meet" version="1.0"><defs><clipPath id="baabe5a77b"><path d="M 219 23.894531 L 591 23.894531 L 591 420 L 219 420 Z M 219 23.894531 " clip-rule="nonzero"/></clipPath><clipPath id="ce9e69c54f"><path d="M 59 421 L 751 421 L 751 785.894531 L 59 785.894531 Z M 59 421 " clip-rule="nonzero"/></clipPath></defs><g clip-path="url(#baabe5a77b)"><path fill="#d9d9d9" d="M 405 419.257812 C 507.03125 419.257812 590.027344 310.964844 590.027344 208.941406 C 590.027344 106.917969 507.03125 23.894531 405 23.894531 C 302.964844 23.894531 219.960938 106.917969 219.960938 208.941406 C 219.980469 310.957031 302.972656 419.257812 405 419.257812 Z M 405 419.257812 " fill-opacity="1" fill-rule="nonzero"/></g><g clip-path="url(#ce9e69c54f)"><path fill="#d9d9d9" d="M 543.90625 421.15625 C 508.015625 448.5 463.238281 464.769531 414.738281 464.769531 L 395.257812 464.769531 C 346.75 464.769531 301.964844 448.492188 266.082031 421.15625 C 148.890625 440.097656 59.398438 541.675781 59.398438 664.203125 C 59.398438 731.511719 214.125 786.09375 405 786.09375 C 595.863281 786.09375 750.597656 731.511719 750.597656 664.203125 C 750.597656 541.675781 661.097656 440.097656 543.90625 421.15625 Z M 543.90625 421.15625 " fill-opacity="1" fill-rule="nonzero"/></g></svg>