<svg xmlns="http://www.w3.org/2000/svg" xmlns:xlink="http://www.w3.org/1999/xlink" width="1080" zoomAndPan="magnify" viewBox="0 0 810 809.999993" height="1080" preserveAspectRatio="xMidYMid meet" version="1.0"><defs><clipPath id="f97c717f85"><path d="M 21 78 L 786 78 L 786 735.703125 L 21 735.703125 Z M 21 78 " clip-rule="nonzero"/></clipPath></defs><g clip-path="url(#f97c717f85)"><path fill="#000000" d="M 554.203125 423.539062 C 528.21875 423.539062 507.164062 402.476562 507.164062 376.496094 C 507.164062 350.519531 528.21875 329.453125 554.203125 329.453125 C 580.179688 329.453125 601.238281 350.519531 601.238281 376.496094 C 601.238281 402.476562 580.179688 423.539062 554.203125 423.539062 Z M 397.40625 423.539062 C 371.429688 423.539062 350.367188 402.476562 350.367188 376.496094 C 350.367188 350.519531 371.429688 329.453125 397.40625 329.453125 C 423.386719 329.453125 444.445312 350.519531 444.445312 376.496094 C 444.445312 402.476562 423.386719 423.539062 397.40625 423.539062 Z M 240.613281 423.539062 C 214.632812 423.539062 193.574219 402.476562 193.574219 376.496094 C 193.574219 350.519531 214.632812 329.453125 240.613281 329.453125 C 266.59375 329.453125 287.652344 350.519531 287.652344 376.496094 C 287.652344 402.476562 266.59375 423.539062 240.613281 423.539062 Z M 409.730469 78.441406 C 198.847656 74.285156 25.265625 204.25 22.027344 368.71875 C 20.898438 425.894531 40.523438 479.714844 75.453125 525.777344 L 75.441406 525.777344 C 135.503906 602.949219 69.949219 735.621094 69.949219 735.621094 L 263.5 652.253906 C 305.199219 665.429688 350.507812 673.109375 397.996094 674.046875 C 608.875 678.199219 782.457031 548.242188 785.695312 383.769531 C 788.941406 219.296875 620.613281 82.605469 409.730469 78.441406 " fill-opacity="1" fill-rule="evenodd"/></g></svg>