<svg width="16" height="16" viewBox="0 0 16 16" fill="none" xmlns="http://www.w3.org/2000/svg">
<path d="M4 7.99916L11.9067 7.99916L9.48667 10.9058C9.37351 11.042 9.31907 11.2175 9.33532 11.3938C9.35157 11.5701 9.43719 11.7327 9.57333 11.8458C9.70948 11.959 9.885 12.0134 10.0613 11.9972C10.2376 11.9809 10.4002 11.8953 10.5133 11.7592L13.8467 7.75917C13.8691 7.72735 13.8891 7.69392 13.9067 7.65916C13.9067 7.62583 13.9067 7.60583 13.9533 7.5725C13.9836 7.49606 13.9994 7.41469 14 7.3325C13.9994 7.25031 13.9836 7.16894 13.9533 7.0925C13.9533 7.05917 13.9533 7.03917 13.9067 7.00583C13.8891 6.97107 13.8691 6.93765 13.8467 6.90583L10.5133 2.90583C10.4507 2.83058 10.3722 2.77006 10.2834 2.72858C10.1947 2.68709 10.0979 2.66567 10 2.66583C9.84423 2.66553 9.69328 2.71978 9.57333 2.81916C9.50583 2.87513 9.45003 2.94386 9.40913 3.02143C9.36822 3.09899 9.34303 3.18387 9.33498 3.27118C9.32693 3.3585 9.33618 3.44655 9.36221 3.53028C9.38824 3.61402 9.43053 3.6918 9.48667 3.75916L11.9067 6.66583L4 6.66583C3.82319 6.66583 3.65362 6.73607 3.5286 6.86109C3.40357 6.98612 3.33333 7.15569 3.33333 7.3325C3.33333 7.50931 3.40357 7.67888 3.5286 7.8039C3.65362 7.92893 3.82319 7.99916 4 7.99916Z" fill="white" stroke="white"/>
</svg>
