<svg width="48" height="48" viewBox="0 0 48 48" fill="none" xmlns="http://www.w3.org/2000/svg">
<rect width="48" height="48" rx="24" fill="#ED7E1C"/>
<path fill-rule="evenodd" clip-rule="evenodd" d="M16.6949 28.4798C18.7906 26.8716 21.3584 26 24 26C26.6416 26 29.2094 26.8717 31.3052 28.4798C33.4009 30.0879 34.9074 32.3426 35.5911 34.8942C35.877 35.9611 35.2439 37.0578 34.1769 37.3437C33.11 37.6295 32.0133 36.9964 31.7274 35.9295C31.2716 34.2284 30.2673 32.7252 28.8701 31.6532C27.473 30.5811 25.7611 30 24 30C22.239 30 20.5271 30.5811 19.1299 31.6532C17.7328 32.7252 16.7284 34.2284 16.2726 35.9294C15.9867 36.9964 14.8901 37.6295 13.8231 37.3437C12.7562 37.0578 12.123 35.9611 12.4089 34.8942C13.0926 32.3426 14.5992 30.0879 16.6949 28.4798Z" fill="#663600"/>
<path fill-rule="evenodd" clip-rule="evenodd" d="M12 14C13.1046 14 14 14.8954 14 16V22C14 23.1046 13.1046 24 12 24C10.8954 24 10 23.1046 10 22V16C10 14.8954 10.8954 14 12 14Z" fill="#663600"/>
<path fill-rule="evenodd" clip-rule="evenodd" d="M36 14C37.1046 14 38 14.8954 38 16V22C38 23.1046 37.1046 24 36 24C34.8954 24 34 23.1046 34 22V16C34 14.8954 34.8954 14 36 14Z" fill="#663600"/>
</svg>
