<svg width="80" height="63" viewBox="0 0 80 63" fill="none" xmlns="http://www.w3.org/2000/svg">
<path d="M80 52.264C78.6918 54.3533 76.7849 55.7745 74.8447 57.1108C69.3813 60.8832 63.3706 62.5322 56.8126 62.0577C53.8995 61.8584 51.0357 61.1743 48.3296 60.0315C59.2494 59.5549 68.3854 55.1411 75.746 46.6141C77.2815 47.97 79.0465 49.0211 80 50.9668V52.264Z" fill="#99D9AF"/>
<path d="M27.877 27.6861C28.0648 16.9195 31.4405 8.22483 38.1542 0.962236C39.3434 -0.324008 40.6995 -0.317479 41.895 0.962236C47.3027 6.79277 50.6972 13.6897 51.7278 21.7402C53.2717 33.7604 49.9086 44.1722 41.9659 52.9953C40.7037 54.3969 39.3434 54.3686 38.0604 52.9822C32.9161 47.4979 29.5313 40.4825 28.3736 32.905C28.0544 30.9594 27.9918 28.9701 27.877 27.6861Z" fill="#99D9AF"/>
<path d="M51.0079 48.969C51.9968 46.7752 53.0942 44.601 53.9746 42.331C56.2695 36.3481 57.1041 30.1171 56.6263 23.6859C56.3382 19.7943 55.5227 15.9649 54.2041 12.3121C53.9955 11.755 54.0727 11.4699 54.5922 11.25C57.0185 10.2315 59.4157 9.12589 61.8713 8.2031C63.4444 7.60677 64.7421 8.42074 65.1135 10.1379C68.0941 23.8129 64.804 35.5835 55.2431 45.4498C54.1165 46.6054 52.8021 47.5587 51.567 48.599C51.3875 48.7333 51.2008 48.8569 51.0079 48.969Z" fill="#99D9AF"/>
<path d="M28.9552 49.1432C27.2403 47.5871 25.4272 46.1311 23.825 44.4553C18.4172 38.7966 15.2502 31.9432 14.1424 24.0582C13.511 19.4263 13.7706 14.7097 14.9059 10.1837C15.3232 8.42953 16.575 7.59598 18.1919 8.20101C20.5786 9.09551 22.9028 10.1598 25.2645 11.137C25.9384 11.4134 26.0511 11.7746 25.7882 12.4863C23.7916 17.9055 23.0322 23.5424 23.3305 29.3163C23.6501 35.9213 25.4884 42.3492 28.6902 48.0572L29.1597 48.8994L28.9552 49.1432Z" fill="#99D9AF"/>
<path d="M9.69701 26.0191C12.0441 38.6421 18.4971 48.2008 29.0393 54.8888C28.6074 54.8366 28.1734 54.7887 27.7416 54.7278C27.3097 54.6668 26.8653 54.619 26.4335 54.5254C15.273 52.0965 7.32834 45.4723 2.59935 34.6528C1.97346 33.2077 1.5562 31.6581 1.10138 30.1346C1.00754 29.8435 0.970204 29.5358 0.991556 29.2295C1.01291 28.9231 1.09252 28.6243 1.22574 28.3504C1.35896 28.0765 1.54313 27.833 1.7675 27.6342C1.99187 27.4353 2.25196 27.285 2.53259 27.1921C4.856 26.4517 7.26788 26.0568 9.69701 26.0191Z" fill="#99D9AF"/>
<path d="M51.0064 54.9191C61.5173 48.2354 67.9765 38.6724 70.3654 25.9057C72.001 26.1234 73.6367 26.341 75.2682 26.6022C75.9332 26.7164 76.5904 26.8756 77.2356 27.0788C78.6397 27.5141 79.3428 28.7807 78.9193 30.2324C75.0617 43.4365 66.6225 51.4848 53.7436 54.5056C52.8465 54.7167 51.9202 54.7864 51.0064 54.9191Z" fill="#99D9AF"/>
<path d="M4.26211 46.5746C11.6539 55.1387 20.7857 59.5459 31.7473 60.1531C30.4537 60.5557 29.179 61.0585 27.8625 61.3457C17.6813 63.57 8.72891 61.0672 1.08256 53.6566C-0.352831 52.2659 -0.365349 50.8882 1.07212 49.4823C2.08607 48.4811 3.17722 47.5562 4.26211 46.5746Z" fill="#99D9AF"/>
</svg>
