<svg width="56" height="53" viewBox="0 0 56 53" fill="none" xmlns="http://www.w3.org/2000/svg">
<path fill-rule="evenodd" clip-rule="evenodd" d="M45.9459 18.8934C47.4142 19.0867 48.8302 19.5673 50.1128 20.3078C51.3954 21.0484 52.5196 22.0343 53.4213 23.2093C54.3229 24.3843 54.9842 25.7254 55.3675 27.1559C55.7509 28.5865 55.8487 30.0786 55.6553 31.547C55.462 33.0154 54.9814 34.4313 54.2409 35.7139C53.2027 37.512 50.9036 38.1281 49.1055 37.09C47.3074 36.0518 46.6914 33.7527 47.7295 31.9546C47.9763 31.5271 48.1365 31.0551 48.201 30.5656C48.2654 30.0762 48.2328 29.5788 48.105 29.1019C47.9773 28.6251 47.7568 28.178 47.4563 27.7864C47.1557 27.3947 46.781 27.0661 46.3535 26.8192C45.9259 26.5724 45.4539 26.4122 44.9645 26.3477C44.475 26.2833 43.9776 26.3159 43.5008 26.4437C43.0239 26.5714 42.5769 26.7919 42.1852 27.0924C41.7936 27.393 41.4649 27.7677 41.2181 28.1952C40.18 29.9933 37.8808 30.6094 36.0827 29.5713C34.2846 28.5331 33.6686 26.234 34.7067 24.4359C35.4472 23.1533 36.4331 22.029 37.6081 21.1274C38.7831 20.2258 40.1242 19.5645 41.5548 19.1812C42.9854 18.7978 44.4775 18.7 45.9459 18.8934Z" fill="#3D4A26"/>
<path fill-rule="evenodd" clip-rule="evenodd" d="M38.5057 41.0771C39.9738 42.5452 39.9738 44.9255 38.5057 46.3936C34.9947 49.9047 30.4232 52.1591 25.5003 52.8072C20.5774 53.4553 15.5782 52.4609 11.2781 49.9782C6.97796 47.4955 3.61718 43.6633 1.71702 39.0759C-0.183147 34.4885 -0.516516 29.4023 0.768616 24.6061C1.30598 22.6006 3.36738 21.4105 5.37286 21.9478C7.37835 22.4852 8.56849 24.5466 8.03113 26.5521C7.17437 29.7495 7.39662 33.1404 8.66339 36.1986C9.93017 39.2569 12.1707 41.8117 15.0374 43.4668C17.9042 45.122 21.237 45.7849 24.5189 45.3528C27.8008 44.9207 30.8485 43.4178 33.1892 41.0771C34.6573 39.609 37.0376 39.609 38.5057 41.0771Z" fill="#3D4A26"/>
<path fill-rule="evenodd" clip-rule="evenodd" d="M13.3889 0.0965956C14.8573 0.289912 16.2732 0.770555 17.5559 1.51108C18.8385 2.25161 19.9627 3.23752 20.8643 4.41252C21.7659 5.58752 22.4273 6.9286 22.8106 8.35919C23.1939 9.78978 23.2917 11.2819 23.0984 12.7502C22.9051 14.2186 22.4244 15.6346 21.6839 16.9172C20.6458 18.7153 18.3466 19.3313 16.5485 18.2932C14.7505 17.2551 14.1344 14.9559 15.1725 13.1578C15.4194 12.7303 15.5796 12.2583 15.644 11.7689C15.7085 11.2794 15.6759 10.782 15.5481 10.3052C15.4203 9.82831 15.1999 9.38128 14.8993 8.98962C14.5988 8.59795 14.2241 8.26931 13.7965 8.02247C13.369 7.77563 12.897 7.61541 12.4075 7.55097C11.9181 7.48653 11.4207 7.51913 10.9438 7.64691C10.467 7.77468 10.02 7.99513 9.62829 8.29567C9.23662 8.59621 8.90799 8.97094 8.66114 9.39849C7.62303 11.1966 5.32385 11.8126 3.52578 10.7745C1.72771 9.73639 1.11164 7.43721 2.14976 5.63914C2.89028 4.35651 3.87619 3.23229 5.05119 2.33068C6.22619 1.42907 7.56727 0.767726 8.99786 0.384401C10.4285 0.0010755 11.9205 -0.0967211 13.3889 0.0965956Z" fill="#3D4A26"/>
</svg>
