<svg width="42" height="42" viewBox="0 0 42 42" fill="none" xmlns="http://www.w3.org/2000/svg">
<path d="M26 18L33.9677 14.017C34.2345 13.8837 34.5309 13.8208 34.8287 13.8342C35.1266 13.8476 35.4161 13.9369 35.6698 14.0937C35.9235 14.2504 36.1329 14.4693 36.2782 14.7297C36.4235 14.9901 36.4998 15.2833 36.5 15.5815V27.4185C36.4998 27.7167 36.4235 28.0099 36.2782 28.2703C36.1329 28.5307 35.9235 28.7496 35.6698 28.9063C35.4161 29.0631 35.1266 29.1524 34.8287 29.1658C34.5309 29.1792 34.2345 29.1163 33.9677 28.983L26 25V18ZM8.5 32H22.5C23.4283 32 24.3185 31.6313 24.9749 30.9749C25.6313 30.3185 26 29.4283 26 28.5V14.5C26 13.5717 25.6313 12.6815 24.9749 12.0251C24.3185 11.3687 23.4283 11 22.5 11H8.5C7.57174 11 6.6815 11.3687 6.02513 12.0251C5.36875 12.6815 5 13.5717 5 14.5V28.5C5 29.4283 5.36875 30.3185 6.02513 30.9749C6.6815 31.6313 7.57174 32 8.5 32Z" fill="#FE8235"/>
</svg>
