<svg width="33" height="28" viewBox="0 0 33 28" fill="none" xmlns="http://www.w3.org/2000/svg">
<path d="M24.0987 3.36508C21.647 3.36508 19.648 5.36415 19.648 7.81576C19.648 10.2674 21.647 12.2664 24.0987 12.2664C26.5503 12.2664 28.5493 10.2674 28.5493 7.81576C28.5493 5.36415 26.5503 3.36508 24.0987 3.36508Z" stroke="#D9D8D8" stroke-width="2.36923"/>
<path d="M13.2433 1.19406C10.1926 1.19406 7.70707 3.67956 7.70707 6.73027C7.70707 9.78098 10.1926 12.2665 13.2433 12.2665C16.294 12.2665 18.7795 9.78098 18.7795 6.73027C18.7795 3.67956 16.294 1.19406 13.2433 1.19406Z" stroke="#D9D8D8" stroke-width="2.36923"/>
<path d="M29.1882 13.846L29.1882 13.846C27.594 12.7245 25.3974 12.0494 23.0132 12.0494C20.6291 12.0494 18.4324 12.7245 16.8382 13.846L16.8382 13.846C15.254 14.9604 14.2204 16.5335 14.2204 18.2968V23.0133V24.2073H15.4145H29.5264C30.7854 24.2073 31.806 23.1867 31.806 21.9277V18.2968C31.806 16.5335 30.7724 14.9604 29.1882 13.846Z" stroke="#D9D8D8" stroke-width="2.36923"/>
<path d="M21.6565 15.0361L21.6565 15.0361C19.4937 13.8527 16.5036 13.1349 13.2434 13.1349C9.98319 13.1349 6.99315 13.8527 4.8303 15.0361L4.83029 15.0361C2.71912 16.1912 1.19399 17.8938 1.19399 19.9438V24.0988C1.19399 25.3578 2.21462 26.3784 3.47361 26.3784H23.0132C24.2722 26.3784 25.2928 25.3578 25.2928 24.0988V19.9438C25.2928 17.8938 23.7677 16.1912 21.6565 15.0361Z" fill="white" stroke="#D9D8D8" stroke-width="2.36923"/>
</svg>
