<svg width="301" height="260" viewBox="0 0 301 260" fill="none" xmlns="http://www.w3.org/2000/svg">
<path d="M294.761 174.89C294.81 205.478 284.304 235.212 264.902 259.397H38.0939C18.6911 235.212 8.18522 205.478 8.23474 174.89C8.23474 98.5158 72.3782 36.607 151.501 36.607C230.624 36.607 294.761 98.5178 294.761 174.89Z" fill="white"/>
<path opacity="0.1" d="M294.761 174.89C294.81 205.478 284.304 235.212 264.902 259.397H38.0939C18.6911 235.212 8.18522 205.478 8.23474 174.89C8.23474 98.5158 72.3782 36.607 151.501 36.607C230.624 36.607 294.761 98.5178 294.761 174.89Z" fill="#0E82FD"/>
<path d="M222.277 259.843H162.018L158.402 213.42L220.118 215.518C220.118 215.518 220.865 210.106 220.902 220.366C220.927 227.483 222.467 241.594 222.277 259.843Z" fill="#262626"/>
<path d="M183.93 210.753C183.874 211.859 183.812 212.97 183.737 214.075C182.777 229.474 180.571 244.777 177.139 259.843H116.912C117.696 236.272 118.349 217.601 118.349 217.601L158.402 213.42L160.804 213.167L183.93 210.753Z" fill="#262626"/>
<path d="M198.456 53.4433C198.456 53.4433 199.139 68.627 202.537 74.2069C212.328 90.2701 214.845 108.15 204.434 117.227C194.023 126.304 129.044 124.974 124.638 103.458C120.928 85.3435 129.868 83.6052 132.39 68.7878C133.532 62.0833 136.565 48.0384 136.565 48.0384" fill="#0A0A0A"/>
<path d="M142.857 101.093C142.969 101.079 144.214 121.019 168.212 119.281C184.826 118.079 190.749 101.065 191.13 101.065C189.338 100.698 186.322 100.163 185.527 99.7531C182.911 98.3963 179.674 96.9847 178.83 92.0808C178.344 89.2541 179.169 74.7948 178.915 71.9351L153.413 77.4293C153.769 83.4693 156.264 97.4701 147.522 99.9499C146.068 100.358 144.501 100.734 142.857 101.093Z" fill="#FFCEA9"/>
<path opacity="0.52" d="M153.056 94.2266C153.455 92.984 153.713 91.7029 153.823 90.4062C154.103 87.4472 154.048 84.4674 153.656 81.5202C158.84 80.845 163.723 78.7798 167.751 75.5593C168.224 77.2473 170.829 84.6233 170.108 86.2277C168.744 89.2604 162.34 94.2266 153.056 94.2266Z" fill="#0C0C0C"/>
<path d="M155.34 87.9248C165.369 89.0914 178.469 85.5008 181.474 72.6402L184.186 61.0365C187.192 48.1764 182.631 36.2273 170.087 33.4944C157.543 30.7625 145.729 39.1464 142.724 52.008L141.523 57.1451C140.37 62.0788 137.447 85.8467 155.34 87.9248Z" fill="#FFCEA9"/>
<path d="M152.942 73.718C154.867 73.7529 156.757 74.224 158.459 75.0936C158.528 75.1295 158.58 75.1899 158.603 75.2619C158.626 75.334 158.62 75.412 158.585 75.4794C158.549 75.5468 158.488 75.5984 158.414 75.623C158.34 75.6476 158.259 75.6435 158.189 75.6114C154.517 73.824 151.074 73.8392 148.232 75.6556C148.175 75.694 148.115 75.7295 148.054 75.7621C147.983 75.7908 147.904 75.7923 147.832 75.7661C147.76 75.74 147.701 75.6883 147.668 75.6216C147.634 75.5549 147.628 75.4783 147.651 75.4076C147.674 75.3368 147.724 75.2773 147.791 75.2412C147.814 75.229 147.851 75.2046 147.903 75.1717C149.395 74.214 151.15 73.7079 152.942 73.718Z" fill="#0C0C0C"/>
<path d="M152.452 69.7808H152.427C151.911 69.705 151.4 69.6019 150.897 69.4719C150.144 69.2726 149.155 68.9317 149.252 68.2795C149.363 67.5359 152.675 59.8089 153.053 58.9304C153.068 58.8913 153.092 58.8556 153.122 58.8254C153.152 58.7952 153.188 58.7711 153.228 58.7546C153.268 58.7381 153.311 58.7295 153.354 58.7292C153.397 58.729 153.44 58.7371 153.48 58.7532C153.521 58.7693 153.557 58.7929 153.587 58.8228C153.618 58.8526 153.642 58.8881 153.658 58.927C153.674 58.9659 153.681 59.0075 153.681 59.0494C153.68 59.0913 153.67 59.1326 153.652 59.1708C152.239 62.4611 149.969 67.8686 149.895 68.3692C149.989 68.5955 151.24 68.9815 152.522 69.1605C152.605 69.1725 152.679 69.2149 152.73 69.2787C152.782 69.3425 152.805 69.4229 152.797 69.5032C152.788 69.5835 152.747 69.6574 152.684 69.7096C152.62 69.7618 152.538 69.7882 152.454 69.7834L152.452 69.7808Z" fill="#0C0C0C"/>
<path d="M194.141 65.4472L182.896 63.0633C174.444 59.426 172.369 45.0133 172.369 45.0133C172.369 45.0133 161.602 54.4598 136.568 48.0384C136.568 48.0384 142.855 14.2387 179.78 25.3707C191.686 28.9603 199.891 40.9424 198.252 56.5359C197.1 67.4604 194.141 65.4472 194.141 65.4472Z" fill="#0A0A0A"/>
<path d="M179.779 76.3876C183.591 77.2179 187.602 73.9529 188.462 70.2745C189.322 66.5962 186.706 63.8922 182.892 63.0624L180.351 65.0999L176.502 75.6775L179.779 76.3876Z" fill="#FFCEA9"/>
<path d="M151.002 52.0612C149.908 51.3258 148.629 50.8879 147.299 50.7931C146.645 50.7429 145.986 50.7878 145.345 50.9265C144.711 51.0612 144.097 51.2725 143.517 51.5555C143.438 51.592 143.376 51.6571 143.345 51.7369C143.314 51.8167 143.317 51.905 143.352 51.983C143.388 52.0609 143.454 52.1224 143.536 52.1543C143.617 52.1863 143.709 52.1861 143.791 52.154L143.815 52.1444C144.35 51.9128 144.912 51.7468 145.49 51.6503C146.061 51.5522 146.644 51.538 147.219 51.6082C148.361 51.7393 149.446 52.1592 150.365 52.8256L150.395 52.8484C150.501 52.9285 150.636 52.9645 150.77 52.9484C150.905 52.9323 151.026 52.8655 151.109 52.7627C151.192 52.6598 151.23 52.5294 151.213 52.4C151.196 52.2706 151.127 52.1529 151.021 52.0728L151.002 52.0612Z" fill="#0C0C0C"/>
<path d="M160.827 54.2594C161.953 54.033 163.12 54.0981 164.211 54.4481C164.763 54.6209 165.284 54.8731 165.758 55.1962C166.238 55.5205 166.674 55.9017 167.056 56.3309L167.074 56.3491C167.133 56.4115 167.216 56.4489 167.304 56.4535C167.392 56.4581 167.478 56.4294 167.545 56.3737C167.611 56.3179 167.652 56.2394 167.66 56.1547C167.667 56.0701 167.64 55.9859 167.585 55.92C167.185 55.4263 166.722 54.9833 166.207 54.6013C165.689 54.2126 165.113 53.9016 164.498 53.6786C163.253 53.218 161.903 53.0891 160.588 53.3053C160.521 53.3151 160.456 53.3377 160.398 53.372C160.34 53.4063 160.29 53.4514 160.25 53.5048C160.21 53.5582 160.182 53.6187 160.167 53.6828C160.152 53.7469 160.151 53.8132 160.163 53.8779C160.174 53.9425 160.2 54.0042 160.237 54.0593C160.274 54.1144 160.322 54.1617 160.379 54.1985C160.435 54.2353 160.498 54.2608 160.565 54.2735C160.632 54.2863 160.701 54.2859 160.767 54.2726L160.788 54.2685L160.827 54.2594Z" fill="#0C0C0C"/>
<path d="M182.874 62.9239L182.997 62.6252C168.835 57.1731 172.833 43.7058 172.874 43.5699L172.556 43.4776C172.514 43.6156 168.424 57.3612 182.874 62.9239Z" fill="#0C0C0C"/>
<path d="M144.907 57.5296C145.781 57.5296 146.491 56.8452 146.491 56.0009C146.491 55.1566 145.781 54.4721 144.907 54.4721C144.032 54.4721 143.323 55.1566 143.323 56.0009C143.323 56.8452 144.032 57.5296 144.907 57.5296Z" fill="#0C0C0C"/>
<path d="M160.562 60.1304C161.437 60.1304 162.146 59.446 162.146 58.6017C162.146 57.7573 161.437 57.0729 160.562 57.0729C159.688 57.0729 158.979 57.7573 158.979 58.6017C158.979 59.446 159.688 60.1304 160.562 60.1304Z" fill="#0C0C0C"/>
<path opacity="0.1" d="M165.437 69.4338C165.61 68.2658 164.413 67.1344 162.764 66.9067C161.114 66.679 159.637 67.4412 159.463 68.6093C159.29 69.7773 160.487 70.9087 162.137 71.1364C163.787 71.3641 165.264 70.6019 165.437 69.4338Z" fill="#0C0C0C"/>
<path opacity="0.1" d="M144.772 66.0614C144.596 67.228 143.119 67.9889 141.469 67.7637C141.184 67.724 140.904 67.656 140.633 67.5608C140.589 66.1644 140.617 64.8218 140.69 63.5821C141.152 63.4818 141.629 63.4654 142.098 63.534C143.747 63.7576 144.944 64.8908 144.772 66.0614Z" fill="#0C0C0C"/>
<path d="M27.0774 99.9225C27.2982 99.5004 27.6493 99.1549 28.0823 98.9337C28.5153 98.7126 29.0088 98.6267 29.4946 98.6879C29.4903 98.6597 29.4933 98.6309 29.5031 98.604C29.513 98.5771 29.5296 98.5529 29.5513 98.5336C29.573 98.5143 29.5993 98.5003 29.6279 98.493C29.6565 98.4857 29.6865 98.4852 29.7153 98.4916L28.0763 97.3575C27.586 97.0336 27.2338 96.5493 27.0846 95.9942C26.9355 95.439 26.9996 94.8506 27.265 94.3375C27.5442 93.839 28.0051 93.4584 28.5586 93.2694C29.112 93.0804 29.7184 93.0964 30.2602 93.3144C30.256 93.2921 30.2718 93.2708 30.2754 93.248L29.6018 92.7818C29.1411 92.4747 28.8045 92.0233 28.6489 91.5042C28.4933 90.985 28.5283 90.4299 28.7479 89.9328C28.8923 89.6238 29.106 89.3497 29.3735 89.1301C29.6409 88.9105 29.9556 88.7509 30.2947 88.6629C30.6338 88.5748 30.9889 88.5606 31.3344 88.6211C31.68 88.6816 32.0073 88.8153 32.2927 89.0127L33.8466 90.088C33.8513 90.0789 33.8466 90.0687 33.8529 90.0601C33.8592 90.0515 33.876 90.0489 33.8849 90.0398C33.5277 89.6526 33.3175 89.1597 33.2888 88.6419C33.2602 88.1242 33.4148 87.6125 33.7273 87.1907C34.463 86.0515 36.154 86.2843 37.1592 86.9792L46.3056 93.0781L44.6709 90.4212C44.3425 89.9101 44.2271 89.2977 44.3481 88.7076C44.4692 88.1176 44.8176 87.5938 45.323 87.242C45.5907 87.0691 45.892 86.9507 46.2086 86.8939C46.5252 86.8372 46.8505 86.8433 47.1646 86.9119C47.4787 86.9804 47.7751 87.1101 48.0356 87.2928C48.296 87.4756 48.5152 87.7077 48.6798 87.9749L57.6071 102.481C58.6543 104.183 58.9729 106.212 58.495 108.137C58.0172 110.062 56.7806 111.731 55.048 112.79C53.0387 114.018 50.6953 114.639 48.318 114.573C45.9408 114.507 43.6381 113.758 41.7051 112.42L27.8919 102.864C27.4324 102.534 27.1019 102.064 26.954 101.53C26.8062 100.996 26.8496 100.43 27.0774 99.9225Z" fill="#FFCEA9"/>
<g opacity="0.25">
<path d="M42.8999 96.1183C42.8664 96.1631 42.8162 96.1935 42.7598 96.2029C42.7034 96.2124 42.6455 96.2002 42.5983 96.169L33.9074 90.3553C33.8828 90.3399 33.8616 90.3198 33.8451 90.2964C33.8286 90.2729 33.8172 90.2465 33.8115 90.2187C33.8058 90.1909 33.806 90.1622 33.812 90.1345C33.818 90.1068 33.8297 90.0805 33.8464 90.0572C33.8632 90.0339 33.8846 90.0141 33.9094 89.9989C33.9342 89.9838 33.9619 89.9736 33.9909 89.969C34.0199 89.9644 34.0495 89.9654 34.078 89.9721C34.1066 89.9788 34.1334 89.9909 34.157 90.0078L42.8479 95.8185C42.8955 95.8505 42.928 95.8993 42.9383 95.9544C42.9486 96.0094 42.936 96.0662 42.9031 96.1122L42.8999 96.1183Z" fill="#0C0C0C"/>
</g>
<g opacity="0.25">
<path d="M40.3509 99.887C40.3174 99.9318 40.2672 99.9622 40.2108 99.9717C40.1544 99.9812 40.0965 99.969 40.0493 99.9378L30.3506 93.4514C30.3029 93.4195 30.2703 93.3707 30.2599 93.3157C30.2494 93.2606 30.262 93.2038 30.2949 93.1577C30.3291 93.1132 30.3797 93.0828 30.4363 93.073C30.4929 93.0631 30.5513 93.0743 30.5996 93.1045L40.2989 99.5893C40.3465 99.6213 40.379 99.6701 40.3893 99.7251C40.3996 99.7802 40.387 99.8369 40.3541 99.883L40.3509 99.887Z" fill="#0C0C0C"/>
</g>
<g opacity="0.25">
<path d="M37.6142 103.986C37.5809 104.031 37.5307 104.061 37.4744 104.071C37.4181 104.08 37.3601 104.068 37.3131 104.037L29.576 98.8629C29.5313 98.8298 29.5015 98.7815 29.4928 98.7278C29.4841 98.6742 29.4971 98.6193 29.5291 98.5747C29.5611 98.53 29.6097 98.499 29.6648 98.4879C29.7199 98.4769 29.7773 98.4867 29.825 98.5154L37.5622 103.689C37.6099 103.721 37.6425 103.77 37.6528 103.825C37.6632 103.88 37.6504 103.937 37.6173 103.983L37.6142 103.986Z" fill="#0C0C0C"/>
</g>
<path d="M61.543 97.2473L83.7613 146.775L114.418 106.275L140.986 129.392L95.6171 186.107L95.3197 186.513C93.5037 188.914 91.0845 190.829 88.2899 192.077C85.4953 193.326 82.4173 193.867 79.346 193.651C76.2747 193.434 73.3112 192.465 70.7348 190.837C68.1583 189.209 66.0537 186.975 64.6192 184.344L32.6702 112.75L61.543 97.2473Z" fill="#0E82FD"/>
<path d="M86.3327 151.957C86.3898 151.957 86.4458 151.943 86.4956 151.916C86.5454 151.89 86.5871 151.851 86.6169 151.804C86.6467 151.757 86.6634 151.703 86.6655 151.648C86.6677 151.593 86.6551 151.539 86.6291 151.49L84.059 146.629C84.0173 146.556 83.9477 146.501 83.8649 146.476C83.7821 146.452 83.6926 146.459 83.6154 146.497C83.5382 146.535 83.4794 146.601 83.4515 146.68C83.4235 146.759 83.4286 146.846 83.4657 146.921L86.0358 151.782C86.0638 151.835 86.1063 151.879 86.1587 151.91C86.2111 151.941 86.2713 151.957 86.3327 151.957Z" fill="#0C0C0C"/>
<path d="M113.04 144.991C113.796 153.564 117.473 207.042 118.2 217.6H220.85C221.416 208.077 221.467 166.437 223.613 147.816C225.663 130.046 229.679 121.15 226.734 115.896C221.921 107.311 215.008 99.5673 201.756 98.4986C196.249 98.0538 186.087 99.9503 186.087 99.9503C186.087 99.9503 185.388 113.567 168.761 114.324C146.124 115.355 147.628 99.9853 147.523 99.9483C142.857 98.3013 126.615 97.4629 119.463 102.023C105.816 110.721 111.436 126.826 113.04 144.991Z" fill="url(#paint0_linear_156_3041)"/>
<path d="M113.805 150.555L113.14 150.592L113.94 164.204L114.605 164.168L113.805 150.555Z" fill="#0C0C0C"/>
<path d="M300.688 105.933C300.428 105.532 300.045 105.22 299.594 105.038C299.142 104.856 298.643 104.814 298.165 104.918C298.167 104.89 298.161 104.861 298.149 104.835C298.136 104.809 298.117 104.787 298.094 104.77C298.07 104.752 298.043 104.741 298.014 104.736C297.985 104.731 297.955 104.734 297.927 104.743L299.451 103.467C299.908 103.101 300.212 102.588 300.308 102.022C300.404 101.456 300.284 100.875 299.97 100.388C299.645 99.9167 299.149 99.5789 298.58 99.4399C298.011 99.3009 297.409 99.3708 296.89 99.6359C296.89 99.6131 296.875 99.5933 296.869 99.571L297.495 99.047C297.924 98.7002 298.216 98.2208 298.322 97.69C298.427 97.1591 298.339 96.6095 298.073 96.134C297.9 95.8393 297.661 95.5853 297.373 95.3904C297.086 95.1955 296.758 95.0646 296.412 95.0071C296.065 94.9496 295.711 94.967 295.372 95.0579C295.034 95.1488 294.721 95.3111 294.455 95.533L293.01 96.7417C293.005 96.7331 293.01 96.7224 293.002 96.7148C292.994 96.7072 292.978 96.7057 292.968 96.6975C293.287 96.2799 293.448 95.7703 293.427 95.2523C293.406 94.7342 293.203 94.2385 292.852 93.8465C292.011 92.7772 290.348 93.1597 289.415 93.9408L280.888 100.827L282.263 98.0371C282.542 97.4987 282.599 96.8781 282.422 96.3007C282.245 95.7233 281.848 95.2323 281.311 94.9268C281.028 94.7784 280.716 94.6872 280.396 94.6588C280.075 94.6303 279.751 94.6653 279.445 94.7615C279.139 94.8577 278.856 95.0132 278.614 95.2184C278.372 95.4236 278.176 95.6742 278.038 95.955L270.533 111.193C269.653 112.981 269.529 115.03 270.188 116.904C270.848 118.778 272.238 120.331 274.064 121.231C276.182 122.275 278.575 122.685 280.936 122.408C283.297 122.131 285.519 121.18 287.316 119.677L300.158 108.932C300.584 108.563 300.868 108.066 300.964 107.521C301.06 106.977 300.963 106.417 300.688 105.933Z" fill="#FFCEA9"/>
<g opacity="0.25">
<path d="M284.569 103.548C284.607 103.589 284.66 103.615 284.717 103.619C284.774 103.623 284.83 103.606 284.874 103.57L292.974 97.0121C292.996 96.9943 293.014 96.9725 293.027 96.9479C293.04 96.9233 293.048 96.8964 293.051 96.8688C293.053 96.8412 293.05 96.8133 293.042 96.7869C293.033 96.7604 293.019 96.7359 293.001 96.7146C292.982 96.6934 292.96 96.6759 292.934 96.6631C292.909 96.6502 292.881 96.6424 292.852 96.64C292.824 96.6375 292.795 96.6406 292.767 96.6489C292.74 96.6572 292.714 96.6707 292.692 96.6885L284.593 103.247C284.548 103.283 284.521 103.334 284.516 103.39C284.51 103.446 284.529 103.501 284.566 103.544L284.569 103.548Z" fill="#0C0C0C"/>
</g>
<g opacity="0.25">
<path d="M287.467 107.074C287.505 107.116 287.558 107.141 287.615 107.146C287.672 107.15 287.728 107.132 287.772 107.097L296.81 99.7776C296.855 99.7415 296.882 99.6899 296.887 99.6341C296.893 99.5784 296.875 99.5229 296.838 99.4798C296.799 99.4386 296.746 99.4131 296.689 99.4083C296.631 99.4035 296.574 99.4198 296.529 99.454L287.491 106.773C287.446 106.809 287.419 106.861 287.414 106.917C287.409 106.973 287.427 107.028 287.464 107.071L287.467 107.074Z" fill="#0C0C0C"/>
</g>
<g opacity="0.25">
<path d="M290.583 110.915C290.621 110.956 290.674 110.981 290.731 110.985C290.788 110.99 290.844 110.972 290.888 110.937L298.099 105.096C298.143 105.06 298.171 105.009 298.176 104.953C298.181 104.897 298.163 104.842 298.126 104.799C298.088 104.756 298.035 104.729 297.977 104.724C297.919 104.719 297.862 104.737 297.818 104.773L290.607 110.611C290.563 110.647 290.535 110.699 290.53 110.755C290.525 110.81 290.543 110.866 290.58 110.908L290.583 110.915Z" fill="#0C0C0C"/>
</g>
<path d="M267.009 105.293L250.118 147.105L225.456 113.679L198.893 136.797L236.934 192.869L237.232 193.274C239.048 195.675 241.467 197.59 244.262 198.839C247.056 200.087 250.134 200.629 253.205 200.412C256.277 200.195 259.24 199.227 261.817 197.598C264.393 195.97 266.498 193.736 267.933 191.106L295.221 120.154L267.009 105.293Z" fill="#0E82FD"/>
<path d="M247.548 152.288C247.491 152.288 247.435 152.274 247.385 152.247C247.336 152.22 247.294 152.181 247.264 152.134C247.234 152.087 247.218 152.033 247.215 151.978C247.213 151.923 247.226 151.869 247.251 151.82L249.821 146.959C249.862 146.884 249.932 146.828 250.016 146.802C250.099 146.777 250.19 146.784 250.268 146.823C250.346 146.861 250.405 146.928 250.433 147.008C250.46 147.088 250.454 147.176 250.415 147.252L247.845 152.112C247.817 152.165 247.774 152.21 247.722 152.241C247.67 152.271 247.61 152.288 247.548 152.288Z" fill="#0C0C0C"/>
<path d="M279.482 259.84H26.7368C26.5748 259.835 26.4211 259.77 26.3082 259.658C26.1953 259.546 26.1322 259.396 26.1322 259.239C26.1322 259.083 26.1953 258.933 26.3082 258.82C26.4211 258.708 26.5748 258.643 26.7368 258.638H279.482C279.644 258.643 279.798 258.708 279.911 258.82C280.024 258.933 280.087 259.083 280.087 259.239C280.087 259.396 280.024 259.546 279.911 259.658C279.798 259.77 279.644 259.835 279.482 259.84Z" fill="#292A2E"/>
<path d="M85.5693 66.5839V5.19648C85.5693 3.81864 85.0024 2.4972 83.9932 1.52273C82.9841 0.54826 81.6153 0.000537956 80.1878 0L5.38352 0C3.95572 0 2.5864 0.547484 1.5768 1.52201C0.56719 2.49654 0 3.81829 0 5.19648L0 50.9691C0 52.3473 0.56719 53.669 1.5768 54.6436C2.5864 55.6181 3.95572 56.1656 5.38352 56.1656H66.1665L83.1195 67.8038C83.3515 67.9631 83.6244 68.0577 83.9084 68.0772C84.1924 68.0968 84.4765 68.0404 84.7295 67.9144C84.9825 67.7885 85.1947 67.5976 85.3429 67.3629C85.491 67.1282 85.5693 66.8587 85.5693 66.5839Z" fill="#0CBC8B"/>
<path d="M40.4822 48.7186C42.3018 48.7186 43.7769 47.2947 43.7769 45.5383C43.7769 43.7819 42.3018 42.3581 40.4822 42.3581C38.6625 42.3581 37.1874 43.7819 37.1874 45.5383C37.1874 47.2947 38.6625 48.7186 40.4822 48.7186Z" fill="white"/>
<path d="M40.3289 38.636C39.7601 38.6358 39.2147 38.4176 38.8125 38.0294C38.4104 37.6411 38.1845 37.1145 38.1845 36.5655V28.876C38.1845 28.4115 38.3464 27.9604 38.6441 27.5955C38.9419 27.2305 39.3582 26.9728 39.826 26.8639C39.9191 26.8416 49.5137 24.4977 49.5137 18.2655C49.5137 14.3548 46.1922 11.6209 41.4366 11.6209C36.287 11.6209 33.6396 16.5916 33.5298 16.8016C33.2725 17.2853 32.8284 17.6518 32.2934 17.8221C31.7585 17.9923 31.1756 17.9527 30.6707 17.7116C30.1659 17.4706 29.7794 17.0475 29.595 16.5338C29.4105 16.0201 29.4428 15.4569 29.6849 14.966C29.8425 14.6617 33.5913 7.48095 41.4366 7.48095C48.602 7.48095 53.8027 12.015 53.8027 18.2629C53.8027 25.7926 45.9731 29.2417 42.4739 30.4073V36.5655C42.4738 37.1146 42.2478 37.6411 41.8455 38.0294C41.4433 38.4177 40.8978 38.6358 40.3289 38.636Z" fill="white"/>
<defs>
<linearGradient id="paint0_linear_156_3041" x1="111" y1="98.7775" x2="228" y2="217.778" gradientUnits="userSpaceOnUse">
<stop stop-color="#C753AC"/>
<stop offset="1" stop-color="#ECC91B"/>
</linearGradient>
</defs>
</svg>
