<svg width="20" height="20" viewBox="0 0 20 20" fill="none" xmlns="http://www.w3.org/2000/svg">
<g clip-path="url(#clip0_102_72)">
<path d="M18.3 14.1211C17.9456 13.9557 17.5046 13.75 16.6963 13.75C15.888 13.75 15.447 13.9558 15.0927 14.1211C14.7887 14.2629 14.5486 14.375 14.0175 14.375C13.4865 14.375 13.2465 14.263 12.9425 14.1211C12.5882 13.9558 12.1473 13.75 11.3389 13.75C10.5306 13.75 10.0897 13.9558 9.73539 14.1211C9.43145 14.2629 9.19141 14.375 8.66043 14.375C8.12945 14.375 7.88945 14.263 7.58555 14.1211C7.23125 13.9558 6.79031 13.75 5.98203 13.75C5.17375 13.75 4.73277 13.9558 4.37848 14.1211C4.07453 14.2629 3.83449 14.375 3.30352 14.375C2.77254 14.375 2.5325 14.263 2.22855 14.1211C1.87426 13.9558 1.43328 13.75 0.625 13.75V15C1.15598 15 1.39602 15.112 1.69996 15.2539C2.05426 15.4192 2.49523 15.625 3.30352 15.625C4.1118 15.625 4.55277 15.4192 4.90707 15.2539C5.21102 15.1121 5.45105 15 5.98203 15C6.51301 15 6.75301 15.112 7.05691 15.2539C7.41121 15.4192 7.85215 15.625 8.66043 15.625C9.46871 15.625 9.90969 15.4192 10.264 15.2539C10.5679 15.1121 10.808 15 11.3389 15C11.8699 15 12.11 15.112 12.4139 15.2539C12.7683 15.4192 13.2092 15.625 14.0175 15.625C14.8259 15.625 15.2669 15.4192 15.6212 15.2539C15.9252 15.1121 16.1653 15 16.6963 15C17.2273 15 17.4674 15.112 17.7713 15.2539C18.1257 15.4193 18.5667 15.625 19.375 15.625V14.375C18.844 14.375 18.6039 14.263 18.3 14.1211ZM16.6963 17.5C15.888 17.5 15.447 17.7058 15.0927 17.8711C14.7887 18.0129 14.5486 18.125 14.0175 18.125C13.4865 18.125 13.2465 18.013 12.9425 17.8711C12.5882 17.7058 12.1473 17.5 11.3389 17.5C10.5306 17.5 10.0897 17.7058 9.73539 17.8711C9.43145 18.0129 9.19141 18.125 8.66043 18.125C8.12945 18.125 7.88945 18.013 7.58555 17.8711C7.23125 17.7058 6.79031 17.5 5.98203 17.5C5.17375 17.5 4.73277 17.7058 4.37848 17.8711C4.07453 18.0129 3.83449 18.125 3.30352 18.125C2.77254 18.125 2.5325 18.013 2.22855 17.8711C1.87426 17.7058 1.43328 17.5 0.625 17.5V18.75C1.15598 18.75 1.39602 18.862 1.69996 19.0039C2.05426 19.1692 2.49523 19.375 3.30352 19.375C4.1118 19.375 4.55277 19.1692 4.90707 19.0039C5.21102 18.8621 5.45105 18.75 5.98203 18.75C6.51301 18.75 6.75301 18.862 7.05691 19.0039C7.41121 19.1692 7.85215 19.375 8.66043 19.375C9.46871 19.375 9.90969 19.1692 10.264 19.0039C10.5679 18.8621 10.808 18.75 11.3389 18.75C11.8699 18.75 12.11 18.862 12.4139 19.0039C12.7683 19.1692 13.2092 19.375 14.0175 19.375C14.8259 19.375 15.2669 19.1692 15.6212 19.0039C15.9252 18.8621 16.1653 18.75 16.6963 18.75C17.2273 18.75 17.4674 18.862 17.7713 19.0039C18.1257 19.1693 18.5667 19.375 19.375 19.375V18.125C18.844 18.125 18.6039 18.013 18.3 17.8711C17.9456 17.7058 17.5046 17.5 16.6963 17.5ZM9.6875 10.625H15.3125V12.8125H16.5625V4.52648C16.562 4.14711 16.6771 3.7766 16.8924 3.46426L18.8444 0.625H17.3275L15.8623 2.75609C15.5035 3.27667 15.3117 3.8942 15.3125 4.52648V6.25H9.6875V4.52648C9.68701 4.14711 9.80209 3.7766 10.0174 3.46426L11.9694 0.625H10.4525L8.98734 2.75609C8.62847 3.27667 8.43668 3.8942 8.4375 4.52648V12.8125H9.6875V10.625ZM9.6875 7.5H15.3125V9.375H9.6875V7.5Z" fill="#0070F0"/>
</g>
<defs>
<clipPath id="clip0_102_72">
<rect width="20" height="20" fill="white"/>
</clipPath>
</defs>
</svg>
