<svg width="48" height="48" viewBox="0 0 48 48" fill="none" xmlns="http://www.w3.org/2000/svg">
<path d="M37.523 13.6234C36.7253 16.6003 34.9677 19.2308 32.5227 21.1069C30.0777 22.983 27.0819 23.9999 24 23.9999C20.9181 23.9999 17.9224 22.983 15.4774 21.1069C13.0323 19.2308 11.2747 16.6003 10.4771 13.6234L14.3408 12.5881C14.9105 14.7145 16.166 16.5934 17.9124 17.9335C19.6588 19.2736 21.7987 19.9999 24 19.9999C26.2014 19.9999 28.3412 19.2736 30.0876 17.9335C31.8341 16.5934 33.0895 14.7145 33.6593 12.5881L37.523 13.6234Z" fill="#C9C7C5"/>
<path d="M37.523 25.6234C36.7253 28.6003 34.9677 31.2308 32.5227 33.1069C30.0777 34.983 27.0819 35.9999 24 35.9999C20.9181 35.9999 17.9224 34.983 15.4774 33.1069C13.0323 31.2308 11.2747 28.6003 10.4771 25.6234L14.3408 24.5881C14.9105 26.7145 16.166 28.5934 17.9124 29.9335C19.6588 31.2736 21.7987 31.9999 24 31.9999C26.2014 31.9999 28.3412 31.2736 30.0876 29.9335C31.8341 28.5934 33.0895 26.7145 33.6593 24.5881L37.523 25.6234Z" fill="#C9C7C5"/>
</svg>
