<svg width="21" height="17" viewBox="0 0 21 17" fill="none" xmlns="http://www.w3.org/2000/svg">
<path d="M20.9185 2.01254C20.1351 2.3596 19.3042 2.58714 18.4534 2.68754C19.3497 2.15151 20.0205 1.30778 20.3407 0.313662C19.4983 0.813545 18.5766 1.16567 17.6154 1.35482C17.2138 0.926454 16.7284 0.585166 16.1894 0.352114C15.6504 0.119063 15.0693 -0.000784096 14.4821 3.86031e-06C12.1123 3.86031e-06 10.1904 1.92196 10.1904 4.29168C10.1904 4.62807 10.2285 4.95549 10.3021 5.26979C6.73533 5.09087 3.57282 3.38239 1.45595 0.78511C1.07422 1.4401 0.873621 2.18485 0.874723 2.94295C0.874723 4.43155 1.63294 5.74571 2.78388 6.51514C2.10231 6.49411 1.43573 6.30982 0.840156 5.97776L0.839836 6.03217C0.839836 8.11159 2.31979 9.846 4.28272 10.24C3.91432 10.3405 3.53412 10.3912 3.15227 10.3907C2.87509 10.3907 2.60656 10.3642 2.34476 10.3142C2.89078 12.0189 4.47539 13.2598 6.35382 13.2946C4.83348 14.4879 2.95591 15.135 1.02323 15.1318C0.677566 15.1318 0.335102 15.1116 0 15.0716C1.96194 16.333 4.24573 17.0025 6.57818 17C14.4721 17 18.7891 10.4605 18.7891 4.78874C18.7891 4.60278 18.7849 4.41747 18.7766 4.23375C19.6172 3.62683 20.3425 2.87461 20.9185 2.01254Z" fill="#F1F2F2"/>
</svg>
