<svg width="34" height="34" viewBox="0 0 34 34" fill="none" xmlns="http://www.w3.org/2000/svg">
<g clip-path="url(#clip0_103_235)">
<path d="M0 17C0 7.61105 7.61105 0 17 0C26.3889 0 34 7.61105 34 17C34 26.3889 26.3889 34 17 34C7.61105 34 0 26.3889 0 17Z" fill="white"/>
<path d="M11.9928 12.8754C11.9928 14.0419 11.4322 14.9871 10.7404 14.9871C10.0487 14.9871 9.48736 14.0419 9.48736 12.8754C9.48736 11.7089 10.0487 10.7643 10.7404 10.7643C11.4322 10.7643 11.9928 11.7095 11.9928 12.8754Z" fill="#EF5DA8"/>
<path d="M24.5159 12.8754C24.5159 14.0419 23.9546 14.9871 23.2629 14.9871C22.5711 14.9871 22.0104 14.0419 22.0104 12.8754C22.0104 11.7089 22.5711 10.7643 23.2629 10.7643C23.9546 10.7643 24.5159 11.7095 24.5159 12.8754Z" fill="#EF5DA8"/>
<path d="M5.57681 18.6072C6.22467 24.3446 11.0904 28.8035 17.0002 28.8035C22.91 28.8035 27.7757 24.3446 28.4236 18.6072H5.57681Z" fill="#EF5DA8"/>
</g>
<defs>
<clipPath id="clip0_103_235">
<rect width="33.1804" height="33.1804" fill="white" transform="scale(1.0247)"/>
</clipPath>
</defs>
</svg>
