<svg width="14" height="14" viewBox="0 0 14 14" fill="none" xmlns="http://www.w3.org/2000/svg">
<path d="M7 0C3.13996 0 0 3.14027 0 7C0 10.8597 3.13996 14 7 14C10.86 14 14 10.8597 14 7C14 3.14027 10.86 0 7 0ZM9.7828 7.24525L5.69948 9.87025C5.65163 9.90128 5.59636 9.91668 5.54168 9.91668C5.49382 9.91668 5.4454 9.9047 5.40211 9.88107C5.30811 9.8298 5.25 9.7318 5.25 9.625V4.375C5.25 4.2682 5.30811 4.1702 5.40211 4.11893C5.4944 4.06823 5.61004 4.07135 5.69948 4.12975L9.7828 6.75475C9.86598 6.80829 9.91668 6.90088 9.91668 7C9.91668 7.09912 9.86598 7.19168 9.7828 7.24525Z" fill="#FE8235"/>
</svg>
