<svg width="23" height="24" viewBox="0 0 23 24" fill="none" xmlns="http://www.w3.org/2000/svg">
<mask id="mask0_1_68" style="mask-type:luminance" maskUnits="userSpaceOnUse" x="0" y="0" width="23" height="24">
<path d="M22.7325 9.6279H11.7674V14.1744H18.079C17.4907 17.0628 15.0302 18.7209 11.7674 18.7209C7.91627 18.7209 4.81395 15.6186 4.81395 11.7674C4.81395 7.91627 7.91627 4.81395 11.7674 4.81395C13.4256 4.81395 14.9232 5.40233 16.1 6.36512L19.5232 2.94186C17.4372 1.12325 14.7628 0 11.7674 0C5.24186 0 0 5.24186 0 11.7674C0 18.293 5.24186 23.5349 11.7674 23.5349C17.6511 23.5349 23 19.2558 23 11.7674C23 11.0721 22.893 10.3232 22.7325 9.6279Z" fill="white"/>
</mask>
<g mask="url(#mask0_1_68)">
<path d="M-1.06975 18.7209V4.81392L8.02327 11.7674L-1.06975 18.7209Z" fill="#FBBC05"/>
</g>
<mask id="mask1_1_68" style="mask-type:luminance" maskUnits="userSpaceOnUse" x="0" y="0" width="23" height="24">
<path d="M22.7325 9.6279H11.7674V14.1744H18.079C17.4907 17.0628 15.0302 18.7209 11.7674 18.7209C7.91627 18.7209 4.81395 15.6186 4.81395 11.7674C4.81395 7.91627 7.91627 4.81395 11.7674 4.81395C13.4256 4.81395 14.9232 5.40233 16.1 6.36512L19.5232 2.94186C17.4372 1.12325 14.7628 0 11.7674 0C5.24186 0 0 5.24186 0 11.7674C0 18.293 5.24186 23.5349 11.7674 23.5349C17.6511 23.5349 23 19.2558 23 11.7674C23 11.0721 22.893 10.3232 22.7325 9.6279Z" fill="white"/>
</mask>
<g mask="url(#mask1_1_68)">
<path d="M-1.06975 4.81397L8.02327 11.7674L11.7674 8.50467L24.6046 6.41862V-1.06975H-1.06975V4.81397Z" fill="#EA4335"/>
</g>
<mask id="mask2_1_68" style="mask-type:luminance" maskUnits="userSpaceOnUse" x="0" y="0" width="23" height="24">
<path d="M22.7325 9.6279H11.7674V14.1744H18.079C17.4907 17.0628 15.0302 18.7209 11.7674 18.7209C7.91627 18.7209 4.81395 15.6186 4.81395 11.7674C4.81395 7.91627 7.91627 4.81395 11.7674 4.81395C13.4256 4.81395 14.9232 5.40233 16.1 6.36512L19.5232 2.94186C17.4372 1.12325 14.7628 0 11.7674 0C5.24186 0 0 5.24186 0 11.7674C0 18.293 5.24186 23.5349 11.7674 23.5349C17.6511 23.5349 23 19.2558 23 11.7674C23 11.0721 22.893 10.3232 22.7325 9.6279Z" fill="white"/>
</mask>
<g mask="url(#mask2_1_68)">
<path d="M-1.06975 18.7209L14.9767 6.41862L19.2023 6.9535L24.6046 -1.06975V24.6046H-1.06975V18.7209Z" fill="#34A853"/>
</g>
<mask id="mask3_1_68" style="mask-type:luminance" maskUnits="userSpaceOnUse" x="0" y="0" width="23" height="24">
<path d="M22.7325 9.6279H11.7674V14.1744H18.079C17.4907 17.0628 15.0302 18.7209 11.7674 18.7209C7.91627 18.7209 4.81395 15.6186 4.81395 11.7674C4.81395 7.91627 7.91627 4.81395 11.7674 4.81395C13.4256 4.81395 14.9232 5.40233 16.1 6.36512L19.5232 2.94186C17.4372 1.12325 14.7628 0 11.7674 0C5.24186 0 0 5.24186 0 11.7674C0 18.293 5.24186 23.5349 11.7674 23.5349C17.6511 23.5349 23 19.2558 23 11.7674C23 11.0721 22.893 10.3232 22.7325 9.6279Z" fill="white"/>
</mask>
<g mask="url(#mask3_1_68)">
<path d="M24.6047 24.6046L8.02327 11.7674L5.88373 10.1628L24.6047 4.81392V24.6046Z" fill="#4285F4"/>
</g>
</svg>
