<svg width="24" height="24" viewBox="0 0 24 24" fill="none" xmlns="http://www.w3.org/2000/svg">
<path d="M18.7615 9.18827C18.3627 7.69983 17.4838 6.38459 16.2613 5.44653C15.0388 4.50846 13.5409 4 12 4C10.4591 4 8.96119 4.50846 7.73868 5.44653C6.51617 6.38459 5.63735 7.69983 5.23853 9.18827L7.17038 9.7059C7.45525 8.64274 8.08298 7.70328 8.9562 7.03323C9.82942 6.36319 10.8993 6 12 6C13.1007 6 14.1706 6.36319 15.0438 7.03323C15.917 7.70328 16.5448 8.64274 16.8296 9.70591L18.7615 9.18827Z" fill="white"/>
<path d="M18.7615 14.8117C18.3627 16.3002 17.4838 17.6154 16.2613 18.5535C15.0388 19.4915 13.5409 20 12 20C10.4591 20 8.96119 19.4915 7.73868 18.5535C6.51617 17.6154 5.63735 16.3002 5.23853 14.8117L7.17038 14.2941C7.45525 15.3573 8.08298 16.2967 8.9562 16.9668C9.82942 17.6368 10.8993 18 12 18C13.1007 18 14.1706 17.6368 15.0438 16.9668C15.917 16.2967 16.5448 15.3573 16.8296 14.2941L18.7615 14.8117Z" fill="white"/>
</svg>
