<svg width="20" height="20" viewBox="0 0 20 20" fill="none" xmlns="http://www.w3.org/2000/svg">
<path d="M14.9605 9.28008C14.8332 7.88407 14.4091 6.53136 13.7166 5.31259C13.024 4.09382 12.079 3.03712 10.9448 2.21328L9.83035 1.40625L8.78602 2.21836C7.69793 3.06429 6.80055 4.13026 6.15249 5.34663C5.50443 6.563 5.12028 7.9024 5.02512 9.27734C4.6047 9.19811 4.17782 9.15823 3.75 9.15824H0.625V11.7188C0.625 15.5096 3.7091 18.5938 7.5 18.5938H12.5C16.2909 18.5938 19.375 15.5096 19.375 11.7188V9.15824H16.25C15.8173 9.15822 15.3855 9.19901 14.9605 9.28008ZM9.55344 3.20508L9.85715 2.96875L10.2118 3.22559C11.2347 3.96861 12.0808 4.92841 12.6896 6.03638C13.2984 7.14435 13.655 8.37314 13.7338 9.63492C12.081 10.2897 10.7438 11.556 10 13.1707C9.25467 11.553 7.91382 10.2852 6.25688 9.63168C6.30053 8.38408 6.61855 7.16142 7.18831 6.05067C7.75808 4.93992 8.5656 3.96835 9.55344 3.20508ZM9.375 17.3438H7.5C4.39844 17.3438 1.875 14.8203 1.875 11.7188V10.4082H3.75C6.85156 10.4082 9.375 12.9317 9.375 16.0332V17.3438ZM18.125 11.7188C18.125 14.8203 15.6016 17.3438 12.5 17.3438H10.625V16.0332C10.625 12.9317 13.1484 10.4082 16.25 10.4082H18.125V11.7188Z" fill="#0070F0"/>
</svg>
