<svg width="22" height="22" viewBox="0 0 22 22" fill="none" xmlns="http://www.w3.org/2000/svg">
<path d="M12.4609 19.9999H6.1875C5.4584 19.9992 4.75939 19.718 4.24384 19.218C3.72828 18.7181 3.4383 18.0403 3.4375 17.3333V3.99994C3.4383 3.29293 3.72828 2.6151 4.24384 2.11518C4.75939 1.61525 5.4584 1.33405 6.1875 1.33327H12.4609V19.9999ZM15.8125 19.9999H15.0391V1.33327H15.8125C16.5416 1.33405 17.2406 1.61525 17.7562 2.11518C18.2717 2.6151 18.5617 3.29293 18.5625 3.99994V17.3333C18.5617 18.0403 18.2717 18.7181 17.7562 19.218C17.2406 19.718 16.5416 19.9992 15.8125 19.9999Z" fill="#D6CCC6"/>
</svg>
