<svg width="16" height="16" viewBox="0 0 16 16" fill="none" xmlns="http://www.w3.org/2000/svg">
<path d="M1.63593 5.293C1.82345 5.10553 2.07776 5.00021 2.34293 5.00021C2.60809 5.00021 2.8624 5.10553 3.04993 5.293L7.99993 10.243L12.9499 5.293C13.1385 5.11084 13.3911 5.01005 13.6533 5.01233C13.9155 5.0146 14.1663 5.11977 14.3517 5.30518C14.5372 5.49059 14.6423 5.7414 14.6446 6.0036C14.6469 6.2658 14.5461 6.5184 14.3639 6.707L8.70693 12.364C8.5194 12.5515 8.26509 12.6568 7.99993 12.6568C7.73476 12.6568 7.48045 12.5515 7.29293 12.364L1.63593 6.707C1.44846 6.51947 1.34314 6.26516 1.34314 6C1.34314 5.73484 1.44846 5.48053 1.63593 5.293Z" fill="#707070"/>
</svg>
