<svg width="34" height="34" viewBox="0 0 34 34" fill="none" xmlns="http://www.w3.org/2000/svg">
<path d="M34 16.1991C33.9805 16.0239 33.9611 15.8391 33.9319 15.664C33.8832 15.2748 33.8443 14.8759 33.7859 14.477C33.387 11.6555 32.346 9.06758 30.7115 6.80068C29.3105 4.84512 27.5301 3.25927 25.4383 2.09177C23.5411 1.03129 21.4494 0.369704 19.2116 0.116745C18.5695 0.0389119 17.9079 0 17.2658 0C16.1275 0 14.9989 0.116748 13.8703 0.350248V0.340521L13.7049 0.389167C13.4422 0.447542 13.1893 0.505907 12.9266 0.574012C12.5958 0.661574 12.2553 0.768605 11.9245 0.875625C11.6229 0.963188 11.3699 1.04102 11.1267 1.12858C8.4901 2.07231 6.19401 3.65817 4.29682 5.84723C2.39963 8.02656 1.11538 10.5464 0.463526 13.3192C0.00625525 15.2748 -0.110496 17.2304 0.103546 19.1373C0.327317 21.0831 0.8235 22.9025 1.58238 24.537C2.40935 26.3077 3.53794 27.8838 4.92921 29.2167C6.48588 30.7053 8.31497 31.863 10.5235 32.7581C11.4867 33.1473 12.4304 33.3321 13.306 33.4683C13.7633 33.5656 14.24 33.6435 14.707 33.7018C14.8724 33.7213 15.0281 33.7408 15.1935 33.7602C15.6994 33.8478 16.3415 33.8867 17.1101 33.8867C17.4215 33.8867 17.7231 33.877 18.0052 33.8672L17.7717 33.9645L18.7836 33.8283C19.2116 33.7991 19.5522 33.7505 19.7273 33.7213L19.7759 33.7116C19.8051 33.7019 19.8246 33.6921 19.844 33.6824C21.1283 33.4975 22.3639 33.1959 23.5119 32.7678C25.0394 32.1938 26.4599 31.4252 27.7149 30.462C29.2132 29.314 30.4877 27.9227 31.4801 26.3077C32.4725 24.7121 33.1535 23.0192 33.5135 21.2582C33.6303 20.6745 33.7178 20.081 33.7957 19.4973C33.8346 19.2248 33.8735 18.9622 33.9124 18.6897C33.9221 18.6411 33.9319 18.5827 33.9416 18.5341L33.9611 18.4465L33.9708 16.2574L34 16.1991ZM20.6516 5.19537C21.9163 5.19537 22.9671 6.25586 22.9574 7.50119C22.9476 8.74652 21.8969 9.807 20.6516 9.807C19.4062 9.807 18.3555 8.74652 18.3555 7.50119C18.3652 6.25586 19.4159 5.19537 20.6516 5.19537ZM23.2103 30.248C22.3347 31.5809 21.1672 32.5538 19.7565 33.1473C19.4451 33.1862 19.1241 33.2251 18.803 33.2543C17.6744 33.3516 16.5069 33.3419 15.3102 33.2154C14.8919 33.1376 14.4833 33.0792 14.0844 33.0208C13.8703 32.9916 13.6563 32.9624 13.4422 32.9235C12.2164 32.6706 11.0294 32.2814 9.91056 31.7755C8.68468 31.2209 7.54636 30.5204 6.5248 29.7032C5.5908 28.954 4.75409 28.1173 4.03413 27.2028C3.16824 26.1034 2.44828 24.8969 1.90344 23.603C1.39753 22.3868 1.05701 21.2291 0.862426 20.0421C0.794322 19.5946 0.735944 19.1275 0.677569 18.6703C0.648382 18.466 0.628919 18.2617 0.599731 18.0573V16.131C0.599731 16.1212 0.599729 16.1212 0.609458 16.1115C0.619187 16.0629 0.63865 16.0045 0.63865 15.9364C0.745671 14.6132 0.998625 13.3192 1.38779 12.1128C1.89371 10.5464 2.6234 9.06758 3.57686 7.71523C4.7249 6.08073 6.1551 4.66027 7.81878 3.5025C9.16141 2.5685 10.6013 1.84854 12.1093 1.34262C12.3623 1.26479 12.625 1.19669 12.8877 1.12858C13.0142 1.08966 13.1504 1.06048 13.2768 1.02156C13.2379 1.30371 13.2087 1.57613 13.1698 1.84854C13.0531 2.72417 12.9461 3.56087 12.8585 4.39758C12.6931 5.84723 12.5569 7.57902 12.7612 9.34973C12.9363 10.8869 13.3547 12.1615 14.026 13.2609C14.6681 14.3116 15.4659 15.2067 16.4096 15.9072C17.3534 16.6174 18.336 17.3082 19.3381 17.9406C19.6592 18.1449 19.9997 18.2908 20.3402 18.4368C20.5737 18.5341 20.7975 18.6314 21.0115 18.7481C22.4125 19.4875 23.4244 20.3729 24.1054 21.4625C24.7183 22.4452 25.0102 23.564 24.9713 24.7802C24.8837 26.7649 24.3 28.594 23.2103 30.248Z" fill="white"/>
<path d="M13.6192 21.3933H13.5803C12.0236 21.3933 10.8075 22.5803 10.7588 24.1661C10.7199 25.7033 11.9653 26.9876 13.5414 27.0265C13.5608 27.0265 13.59 27.0265 13.6192 27.0265C15.1272 27.0265 16.3726 25.7715 16.4018 24.2245C16.4115 23.4851 16.1293 22.7749 15.604 22.2398C15.0786 21.7047 14.3781 21.4031 13.6192 21.3933Z" fill="white"/>
</svg>
